<svg width="2765" height="505" viewBox="0 0 2765 505" fill="none" xmlns="http://www.w3.org/2000/svg">
<path d="M236.5 123.5H2520.09C2577.92 123.5 2620.93 123.507 2653.99 127.952C2686.95 132.383 2709.48 141.167 2726.66 158.341C2743.83 175.515 2752.62 198.051 2757.05 231.009C2761.49 264.068 2761.5 307.084 2761.5 364.908V380.5H477.908C420.084 380.5 377.068 380.493 344.009 376.048C311.051 371.617 288.515 362.833 271.341 345.659C254.167 328.485 245.383 305.949 240.952 272.991C236.507 239.932 236.5 196.916 236.5 139.092V123.5Z" stroke="#485578" stroke-width="7"/>
<path d="M483.551 227.988C481.19 227.988 479.104 227.714 477.293 227.165C475.481 226.616 474.026 225.49 472.929 223.789C471.886 222.032 471.364 219.397 471.364 215.884V188.464C471.364 185.39 471.886 183.085 472.929 181.548C474.026 180.011 475.509 178.995 477.375 178.501C479.241 177.952 481.355 177.678 483.715 177.678C486.076 177.678 488.162 177.952 489.973 178.501C491.84 179.05 493.294 180.093 494.337 181.63C495.435 183.167 495.984 185.445 495.984 188.464V215.802C495.984 219.37 495.435 222.032 494.337 223.789C493.294 225.49 491.84 226.616 489.973 227.165C488.162 227.714 486.021 227.988 483.551 227.988ZM483.633 224.777C485.06 224.777 486.295 224.612 487.338 224.283C488.436 223.898 489.287 223.185 489.891 222.142C490.495 221.044 490.797 219.425 490.797 217.284V188.464C490.797 186.323 490.495 184.732 489.891 183.689C489.287 182.591 488.436 181.877 487.338 181.548C486.24 181.163 485.005 180.971 483.633 180.971C482.206 180.971 480.943 181.163 479.845 181.548C478.802 181.877 477.979 182.591 477.375 183.689C476.771 184.732 476.469 186.323 476.469 188.464V217.284C476.469 219.425 476.771 221.044 477.375 222.142C477.979 223.185 478.802 223.898 479.845 224.283C480.943 224.612 482.206 224.777 483.633 224.777ZM510.593 227L501.041 186.241H506.311L513.969 221.154H513.804L520.968 186.241H525.826L516.603 227H510.593ZM541.247 227.741C538.503 227.741 536.279 227.439 534.578 226.835C532.876 226.177 531.641 224.996 530.872 223.295C530.104 221.593 529.72 219.123 529.72 215.884V195.546C529.72 191.703 530.57 189.068 532.272 187.641C534.029 186.214 536.911 185.5 540.918 185.5C544.815 185.5 547.615 186.214 549.317 187.641C551.073 189.068 551.952 191.703 551.952 195.546V206.085H534.825V217.613C534.825 220.248 535.236 222.087 536.06 223.13C536.883 224.118 538.557 224.612 541.083 224.612C543.388 224.612 544.925 224.118 545.694 223.13C546.462 222.142 546.846 220.303 546.846 217.613V212.343H551.952V215.802C551.952 218.985 551.567 221.456 550.799 223.212C550.03 224.914 548.85 226.094 547.258 226.753C545.721 227.412 543.718 227.741 541.247 227.741ZM534.825 203.45H546.846V195.381C546.846 193.075 546.462 191.401 545.694 190.358C544.925 189.315 543.333 188.794 540.918 188.794C538.503 188.794 536.883 189.315 536.06 190.358C535.236 191.401 534.825 193.075 534.825 195.381V203.45ZM559.254 227V186.241H563.535L564.112 190.605C564.716 189.068 565.704 187.97 567.076 187.312C568.448 186.653 569.821 186.241 571.193 186.076C572.73 185.747 574.212 185.72 575.64 185.994V190.029C575.42 189.974 575.036 189.919 574.487 189.864C573.938 189.809 573.334 189.782 572.675 189.782C572.071 189.782 571.495 189.892 570.946 190.111C569.08 190.331 567.515 191.017 566.253 192.17C564.99 193.268 564.359 194.777 564.359 196.698V227H559.254ZM604.088 227.082C602.881 227.082 601.783 226.945 600.795 226.671C599.807 226.396 598.956 225.957 598.242 225.353C597.529 224.694 596.98 223.871 596.595 222.883C596.211 221.84 596.019 220.55 596.019 219.013V189.452H592.396V186.818L596.348 186.241L597.254 178.583H601.124V186.241H609.935V189.452H601.124V218.107C601.124 219.644 601.399 220.934 601.948 221.977C602.496 223.02 603.704 223.542 605.571 223.542C606.339 223.542 607.162 223.514 608.041 223.459C608.919 223.35 609.55 223.295 609.935 223.295V226.588C609.495 226.588 608.727 226.671 607.629 226.835C606.531 227 605.351 227.082 604.088 227.082ZM615.22 227V175.125H620.078V189.617C620.737 188.355 621.725 187.366 623.042 186.653C624.36 185.884 626.034 185.5 628.065 185.5C630.974 185.5 633.088 186.022 634.405 187.065C635.778 188.053 636.656 189.37 637.04 191.017C637.425 192.609 637.617 194.365 637.617 196.287V227H632.512V197.028C632.512 196.204 632.484 195.354 632.429 194.475C632.374 193.542 632.155 192.691 631.77 191.923C631.441 191.154 630.865 190.523 630.041 190.029C629.218 189.48 628.01 189.205 626.418 189.205C624.991 189.205 623.811 189.452 622.878 189.946C621.999 190.386 621.341 190.907 620.901 191.511C620.517 192.115 620.325 192.636 620.325 193.075V227H615.22ZM656.235 227.741C653.491 227.741 651.267 227.439 649.566 226.835C647.864 226.177 646.629 224.996 645.86 223.295C645.092 221.593 644.708 219.123 644.708 215.884V195.546C644.708 191.703 645.559 189.068 647.26 187.641C649.017 186.214 651.899 185.5 655.906 185.5C659.804 185.5 662.603 186.214 664.305 187.641C666.061 189.068 666.94 191.703 666.94 195.546V206.085H649.813V217.613C649.813 220.248 650.225 222.087 651.048 223.13C651.871 224.118 653.546 224.612 656.071 224.612C658.376 224.612 659.913 224.118 660.682 223.13C661.45 222.142 661.835 220.303 661.835 217.613V212.343H666.94V215.802C666.94 218.985 666.556 221.456 665.787 223.212C665.018 224.914 663.838 226.094 662.246 226.753C660.709 227.412 658.706 227.741 656.235 227.741ZM649.813 203.45H661.835V195.381C661.835 193.075 661.45 191.401 660.682 190.358C659.913 189.315 658.321 188.794 655.906 188.794C653.491 188.794 651.871 189.315 651.048 190.358C650.225 191.401 649.813 193.075 649.813 195.381V203.45ZM689.439 236.552V186.241H694.215L694.38 189.864C694.874 188.711 695.67 187.723 696.768 186.9C697.866 186.076 699.677 185.665 702.202 185.665C704.782 185.665 706.759 186.104 708.131 186.982C709.503 187.861 710.464 189.068 711.013 190.605C711.562 192.142 711.836 193.926 711.836 195.957V216.049C711.836 218.299 711.589 220.303 711.095 222.06C710.601 223.816 709.668 225.188 708.296 226.177C706.923 227.11 704.892 227.576 702.202 227.576C700.116 227.576 698.442 227.247 697.18 226.588C695.972 225.93 695.066 225.106 694.462 224.118V236.552H689.439ZM700.638 224.447C702.175 224.447 703.355 224.228 704.179 223.789C705.002 223.35 705.606 222.773 705.99 222.06C706.374 221.291 706.594 220.468 706.649 219.589C706.704 218.656 706.731 217.668 706.731 216.625V196.781C706.731 195.738 706.704 194.777 706.649 193.899C706.594 192.966 706.374 192.115 705.99 191.346C705.606 190.578 705.002 189.974 704.179 189.535C703.355 189.096 702.175 188.876 700.638 188.876C699.101 188.876 697.921 189.151 697.097 189.699C696.274 190.248 695.67 190.989 695.286 191.923C694.901 192.801 694.682 193.762 694.627 194.805C694.572 195.848 694.545 196.836 694.545 197.769V217.201C694.545 218.519 694.654 219.754 694.874 220.907C695.148 222.005 695.697 222.883 696.521 223.542C697.399 224.146 698.771 224.447 700.638 224.447ZM730.053 227.741C727.308 227.741 725.085 227.439 723.383 226.835C721.682 226.177 720.447 224.996 719.678 223.295C718.909 221.593 718.525 219.123 718.525 215.884V195.546C718.525 191.703 719.376 189.068 721.078 187.641C722.834 186.214 725.716 185.5 729.724 185.5C733.621 185.5 736.421 186.214 738.122 187.641C739.879 189.068 740.757 191.703 740.757 195.546V206.085H723.63V217.613C723.63 220.248 724.042 222.087 724.865 223.13C725.689 224.118 727.363 224.612 729.888 224.612C732.194 224.612 733.731 224.118 734.499 223.13C735.268 222.142 735.652 220.303 735.652 217.613V212.343H740.757V215.802C740.757 218.985 740.373 221.456 739.605 223.212C738.836 224.914 737.656 226.094 736.064 226.753C734.527 227.412 732.523 227.741 730.053 227.741ZM723.63 203.45H735.652V195.381C735.652 193.075 735.268 191.401 734.499 190.358C733.731 189.315 732.139 188.794 729.724 188.794C727.308 188.794 725.689 189.315 724.865 190.358C724.042 191.401 723.63 193.075 723.63 195.381V203.45ZM748.059 227V186.241H752.341L752.917 190.605C753.521 189.068 754.509 187.97 755.882 187.312C757.254 186.653 758.626 186.241 759.999 186.076C761.536 185.747 763.018 185.72 764.445 185.994V190.029C764.226 189.974 763.841 189.919 763.292 189.864C762.743 189.809 762.14 189.782 761.481 189.782C760.877 189.782 760.301 189.892 759.752 190.111C757.885 190.331 756.321 191.017 755.058 192.17C753.796 193.268 753.164 194.777 753.164 196.698V227H748.059ZM768.886 227V186.241H773.909V227H768.886ZM771.438 181.218C770.615 181.218 769.901 180.944 769.298 180.395C768.749 179.791 768.474 179.105 768.474 178.336C768.474 177.513 768.749 176.854 769.298 176.36C769.901 175.811 770.615 175.537 771.438 175.537C772.207 175.537 772.893 175.811 773.497 176.36C774.101 176.854 774.403 177.513 774.403 178.336C774.403 179.105 774.101 179.791 773.497 180.395C772.893 180.944 772.207 181.218 771.438 181.218ZM792.846 227.576C790.321 227.576 788.208 227.247 786.506 226.588C784.859 225.875 783.624 224.64 782.801 222.883C782.032 221.126 781.648 218.711 781.648 215.637V196.616C781.648 192.664 782.499 189.837 784.201 188.135C785.957 186.433 788.839 185.582 792.846 185.582C796.854 185.582 799.708 186.406 801.41 188.053C803.167 189.699 804.045 192.554 804.045 196.616V215.637C804.045 218.711 803.661 221.126 802.892 222.883C802.124 224.585 800.916 225.792 799.269 226.506C797.622 227.22 795.481 227.576 792.846 227.576ZM792.846 224.365C795.042 224.365 796.607 223.816 797.54 222.718C798.473 221.62 798.94 219.617 798.94 216.707V196.369C798.94 193.679 798.501 191.758 797.622 190.605C796.744 189.398 795.152 188.794 792.846 188.794C790.706 188.794 789.141 189.37 788.153 190.523C787.22 191.621 786.753 193.569 786.753 196.369V216.707C786.753 219.562 787.22 221.565 788.153 222.718C789.141 223.816 790.706 224.365 792.846 224.365ZM820.722 227.659C818.691 227.659 817.017 227.412 815.699 226.918C814.382 226.369 813.339 225.628 812.57 224.694C811.857 223.706 811.363 222.499 811.088 221.071C810.814 219.589 810.677 217.915 810.677 216.049V195.71C810.677 194.228 810.814 192.883 811.088 191.676C811.418 190.413 811.939 189.343 812.653 188.464C813.366 187.531 814.327 186.818 815.535 186.323C816.742 185.775 818.279 185.5 820.146 185.5C822.342 185.5 824.043 185.829 825.251 186.488C826.514 187.147 827.419 187.943 827.968 188.876V175.125H833.073V227H829.533L829.039 223.13C828.709 223.844 828.215 224.557 827.556 225.271C826.953 225.93 826.102 226.506 825.004 227C823.961 227.439 822.534 227.659 820.722 227.659ZM821.628 224.53C823.22 224.53 824.455 224.255 825.333 223.706C826.212 223.103 826.815 222.334 827.145 221.401C827.529 220.468 827.749 219.452 827.804 218.354C827.913 217.201 827.968 216.076 827.968 214.978V192.664C827.804 192.17 827.502 191.621 827.062 191.017C826.678 190.413 826.074 189.892 825.251 189.452C824.428 189.013 823.302 188.794 821.875 188.794C820.283 188.794 819.075 189.013 818.252 189.452C817.429 189.892 816.825 190.495 816.44 191.264C816.111 191.978 815.919 192.801 815.864 193.734C815.809 194.667 815.782 195.628 815.782 196.616V216.707C815.782 218.025 815.864 219.287 816.029 220.495C816.193 221.703 816.687 222.691 817.511 223.459C818.334 224.173 819.707 224.53 821.628 224.53ZM867.394 227.741C864.704 227.741 862.508 227.439 860.806 226.835C859.105 226.177 857.869 225.024 857.101 223.377C856.332 221.675 855.948 219.205 855.948 215.966V195.875C855.948 191.868 856.799 189.151 858.501 187.723C860.257 186.241 863.139 185.5 867.146 185.5C871.044 185.5 873.844 186.214 875.545 187.641C877.302 189.068 878.18 191.703 878.18 195.546V200.898H873.075V195.381C873.075 193.021 872.691 191.319 871.922 190.276C871.154 189.178 869.562 188.629 867.146 188.629C864.731 188.629 863.112 189.178 862.288 190.276C861.465 191.319 861.053 193.021 861.053 195.381V217.284C861.053 219.919 861.465 221.785 862.288 222.883C863.112 223.926 864.786 224.447 867.311 224.447C869.617 224.447 871.154 223.926 871.922 222.883C872.691 221.84 873.075 219.974 873.075 217.284V211.767H878.18V215.966C878.18 219.095 877.796 221.511 877.027 223.212C876.259 224.914 875.079 226.094 873.487 226.753C871.895 227.412 869.864 227.741 867.394 227.741ZM895.693 227.576C893.167 227.576 891.054 227.247 889.352 226.588C887.705 225.875 886.47 224.64 885.647 222.883C884.878 221.126 884.494 218.711 884.494 215.637V196.616C884.494 192.664 885.345 189.837 887.047 188.135C888.803 186.433 891.685 185.582 895.693 185.582C899.7 185.582 902.554 186.406 904.256 188.053C906.013 189.699 906.891 192.554 906.891 196.616V215.637C906.891 218.711 906.507 221.126 905.738 222.883C904.97 224.585 903.762 225.792 902.115 226.506C900.468 227.22 898.327 227.576 895.693 227.576ZM895.693 224.365C897.888 224.365 899.453 223.816 900.386 222.718C901.319 221.62 901.786 219.617 901.786 216.707V196.369C901.786 193.679 901.347 191.758 900.468 190.605C899.59 189.398 897.998 188.794 895.693 188.794C893.552 188.794 891.987 189.37 890.999 190.523C890.066 191.621 889.599 193.569 889.599 196.369V216.707C889.599 219.562 890.066 221.565 890.999 222.718C891.987 223.816 893.552 224.365 895.693 224.365ZM920.208 227L910.656 186.241H915.926L923.584 221.154H923.419L930.583 186.241H935.441L926.219 227H920.208ZM950.862 227.741C948.118 227.741 945.894 227.439 944.193 226.835C942.491 226.177 941.256 224.996 940.487 223.295C939.719 221.593 939.335 219.123 939.335 215.884V195.546C939.335 191.703 940.185 189.068 941.887 187.641C943.644 186.214 946.526 185.5 950.533 185.5C954.43 185.5 957.23 186.214 958.932 187.641C960.688 189.068 961.567 191.703 961.567 195.546V206.085H944.44V217.613C944.44 220.248 944.851 222.087 945.675 223.13C946.498 224.118 948.173 224.612 950.698 224.612C953.003 224.612 954.54 224.118 955.309 223.13C956.077 222.142 956.462 220.303 956.462 217.613V212.343H961.567V215.802C961.567 218.985 961.182 221.456 960.414 223.212C959.645 224.914 958.465 226.094 956.873 226.753C955.336 227.412 953.333 227.741 950.862 227.741ZM944.44 203.45H956.462V195.381C956.462 193.075 956.077 191.401 955.309 190.358C954.54 189.315 952.948 188.794 950.533 188.794C948.118 188.794 946.498 189.315 945.675 190.358C944.851 191.401 944.44 193.075 944.44 195.381V203.45ZM968.869 227V186.241H973.15L973.727 190.605C974.331 189.068 975.319 187.97 976.691 187.312C978.063 186.653 979.436 186.241 980.808 186.076C982.345 185.747 983.827 185.72 985.255 185.994V190.029C985.035 189.974 984.651 189.919 984.102 189.864C983.553 189.809 982.949 189.782 982.29 189.782C981.686 189.782 981.11 189.892 980.561 190.111C978.695 190.331 977.13 191.017 975.868 192.17C974.605 193.268 973.974 194.777 973.974 196.698V227H968.869ZM1000.23 227.741C997.49 227.741 995.267 227.439 993.565 226.835C991.864 226.177 990.628 224.996 989.86 223.295C989.091 221.593 988.707 219.123 988.707 215.884V195.546C988.707 191.703 989.558 189.068 991.26 187.641C993.016 186.214 995.898 185.5 999.906 185.5C1003.8 185.5 1006.6 186.214 1008.3 187.641C1010.06 189.068 1010.94 191.703 1010.94 195.546V206.085H993.812V217.613C993.812 220.248 994.224 222.087 995.047 223.13C995.871 224.118 997.545 224.612 1000.07 224.612C1002.38 224.612 1003.91 224.118 1004.68 223.13C1005.45 222.142 1005.83 220.303 1005.83 217.613V212.343H1010.94V215.802C1010.94 218.985 1010.56 221.456 1009.79 223.212C1009.02 224.914 1007.84 226.094 1006.25 226.753C1004.71 227.412 1002.71 227.741 1000.23 227.741ZM993.812 203.45H1005.83V195.381C1005.83 193.075 1005.45 191.401 1004.68 190.358C1003.91 189.315 1002.32 188.794 999.906 188.794C997.49 188.794 995.871 189.315 995.047 190.358C994.224 191.401 993.812 193.075 993.812 195.381V203.45ZM1027.3 227.659C1025.27 227.659 1023.59 227.412 1022.28 226.918C1020.96 226.369 1019.92 225.628 1019.15 224.694C1018.43 223.706 1017.94 222.499 1017.66 221.071C1017.39 219.589 1017.25 217.915 1017.25 216.049V195.71C1017.25 194.228 1017.39 192.883 1017.66 191.676C1017.99 190.413 1018.52 189.343 1019.23 188.464C1019.94 187.531 1020.9 186.818 1022.11 186.323C1023.32 185.775 1024.86 185.5 1026.72 185.5C1028.92 185.5 1030.62 185.829 1031.83 186.488C1033.09 187.147 1034 187.943 1034.54 188.876V175.125H1039.65V227H1036.11L1035.62 223.13C1035.29 223.844 1034.79 224.557 1034.13 225.271C1033.53 225.93 1032.68 226.506 1031.58 227C1030.54 227.439 1029.11 227.659 1027.3 227.659ZM1028.2 224.53C1029.8 224.53 1031.03 224.255 1031.91 223.706C1032.79 223.103 1033.39 222.334 1033.72 221.401C1034.11 220.468 1034.33 219.452 1034.38 218.354C1034.49 217.201 1034.54 216.076 1034.54 214.978V192.664C1034.38 192.17 1034.08 191.621 1033.64 191.017C1033.25 190.413 1032.65 189.892 1031.83 189.452C1031 189.013 1029.88 188.794 1028.45 188.794C1026.86 188.794 1025.65 189.013 1024.83 189.452C1024.01 189.892 1023.4 190.495 1023.02 191.264C1022.69 191.978 1022.5 192.801 1022.44 193.734C1022.39 194.667 1022.36 195.628 1022.36 196.616V216.707C1022.36 218.025 1022.44 219.287 1022.61 220.495C1022.77 221.703 1023.26 222.691 1024.09 223.459C1024.91 224.173 1026.28 224.53 1028.2 224.53ZM1075.62 227.576C1073.04 227.576 1071.12 227.137 1069.85 226.259C1068.65 225.326 1067.82 224.31 1067.38 223.212L1067.14 227H1063.51V175.125H1068.54V189.617C1069.19 188.245 1070.15 187.229 1071.42 186.57C1072.73 185.857 1074.38 185.5 1076.36 185.5C1078.44 185.5 1080.2 185.829 1081.63 186.488C1083.06 187.147 1084.13 188.217 1084.84 189.699C1085.55 191.182 1085.91 193.24 1085.91 195.875V216.049C1085.91 218.299 1085.69 220.166 1085.25 221.648C1084.87 223.13 1084.26 224.31 1083.44 225.188C1082.62 226.067 1081.55 226.671 1080.23 227C1078.97 227.384 1077.43 227.576 1075.62 227.576ZM1074.71 223.953C1076.25 223.953 1077.46 223.734 1078.33 223.295C1079.21 222.855 1079.84 222.114 1080.23 221.071C1080.61 219.974 1080.8 218.464 1080.8 216.543V196.04C1080.8 193.295 1080.34 191.429 1079.4 190.441C1078.53 189.452 1076.96 188.958 1074.71 188.958C1072.41 188.958 1070.81 189.535 1069.94 190.688C1069.06 191.84 1068.62 193.515 1068.62 195.71V216.049C1068.62 218.848 1069.08 220.879 1070.02 222.142C1071.01 223.35 1072.57 223.953 1074.71 223.953ZM1094.9 236.634C1093.75 236.634 1092.71 236.552 1091.78 236.387C1090.9 236.222 1090.21 236.085 1089.72 235.975V232.929C1089.88 233.038 1090.24 233.148 1090.79 233.258C1091.39 233.368 1092.08 233.423 1092.85 233.423C1093.67 233.423 1094.57 233.285 1095.56 233.011C1096.61 232.736 1097.46 231.968 1098.12 230.705C1098.44 230.156 1098.8 229.525 1099.19 228.812C1099.62 228.098 1099.73 227.274 1099.52 226.341L1090.13 186.241H1095.4L1102.89 221.813H1102.81L1110.05 186.241H1114.91L1106.02 225.436C1105.2 229.223 1103.91 232.023 1102.15 233.834C1100.39 235.701 1097.98 236.634 1094.9 236.634ZM1143.81 227.082C1142.6 227.082 1141.5 226.945 1140.52 226.671C1139.53 226.396 1138.68 225.957 1137.96 225.353C1137.25 224.694 1136.7 223.871 1136.32 222.883C1135.93 221.84 1135.74 220.55 1135.74 219.013V189.452H1132.12V186.818L1136.07 186.241L1136.97 178.583H1140.84V186.241H1149.66V189.452H1140.84V218.107C1140.84 219.644 1141.12 220.934 1141.67 221.977C1142.22 223.02 1143.42 223.542 1145.29 223.542C1146.06 223.542 1146.88 223.514 1147.76 223.459C1148.64 223.35 1149.27 223.295 1149.66 223.295V226.588C1149.22 226.588 1148.45 226.671 1147.35 226.835C1146.25 227 1145.07 227.082 1143.81 227.082ZM1154.94 227V175.125H1159.8V189.617C1160.46 188.355 1161.45 187.366 1162.76 186.653C1164.08 185.884 1165.75 185.5 1167.79 185.5C1170.7 185.5 1172.81 186.022 1174.13 187.065C1175.5 188.053 1176.38 189.37 1176.76 191.017C1177.15 192.609 1177.34 194.365 1177.34 196.287V227H1172.23V197.028C1172.23 196.204 1172.2 195.354 1172.15 194.475C1172.09 193.542 1171.88 192.691 1171.49 191.923C1171.16 191.154 1170.59 190.523 1169.76 190.029C1168.94 189.48 1167.73 189.205 1166.14 189.205C1164.71 189.205 1163.53 189.452 1162.6 189.946C1161.72 190.386 1161.06 190.907 1160.62 191.511C1160.24 192.115 1160.05 192.636 1160.05 193.075V227H1154.94ZM1195.96 227.741C1193.21 227.741 1190.99 227.439 1189.29 226.835C1187.58 226.177 1186.35 224.996 1185.58 223.295C1184.81 221.593 1184.43 219.123 1184.43 215.884V195.546C1184.43 191.703 1185.28 189.068 1186.98 187.641C1188.74 186.214 1191.62 185.5 1195.63 185.5C1199.52 185.5 1202.32 186.214 1204.03 187.641C1205.78 189.068 1206.66 191.703 1206.66 195.546V206.085H1189.53V217.613C1189.53 220.248 1189.95 222.087 1190.77 223.13C1191.59 224.118 1193.27 224.612 1195.79 224.612C1198.1 224.612 1199.63 224.118 1200.4 223.13C1201.17 222.142 1201.56 220.303 1201.56 217.613V212.343H1206.66V215.802C1206.66 218.985 1206.28 221.456 1205.51 223.212C1204.74 224.914 1203.56 226.094 1201.97 226.753C1200.43 227.412 1198.43 227.741 1195.96 227.741ZM1189.53 203.45H1201.56V195.381C1201.56 193.075 1201.17 191.401 1200.4 190.358C1199.63 189.315 1198.04 188.794 1195.63 188.794C1193.21 188.794 1191.59 189.315 1190.77 190.358C1189.95 191.401 1189.53 193.075 1189.53 195.381V203.45ZM1238.22 227.659C1236.19 227.659 1234.51 227.412 1233.19 226.918C1231.88 226.369 1230.83 225.628 1230.07 224.694C1229.35 223.706 1228.86 222.499 1228.58 221.071C1228.31 219.589 1228.17 217.915 1228.17 216.049V195.71C1228.17 194.228 1228.31 192.883 1228.58 191.676C1228.91 190.413 1229.43 189.343 1230.15 188.464C1230.86 187.531 1231.82 186.818 1233.03 186.323C1234.24 185.775 1235.77 185.5 1237.64 185.5C1239.84 185.5 1241.54 185.829 1242.75 186.488C1244.01 187.147 1244.91 187.943 1245.46 188.876V175.125H1250.57V227H1247.03L1246.53 223.13C1246.2 223.844 1245.71 224.557 1245.05 225.271C1244.45 225.93 1243.6 226.506 1242.5 227C1241.46 227.439 1240.03 227.659 1238.22 227.659ZM1239.12 224.53C1240.72 224.53 1241.95 224.255 1242.83 223.706C1243.71 223.103 1244.31 222.334 1244.64 221.401C1245.02 220.468 1245.24 219.452 1245.3 218.354C1245.41 217.201 1245.46 216.076 1245.46 214.978V192.664C1245.3 192.17 1245 191.621 1244.56 191.017C1244.17 190.413 1243.57 189.892 1242.75 189.452C1241.92 189.013 1240.8 188.794 1239.37 188.794C1237.78 188.794 1236.57 189.013 1235.75 189.452C1234.92 189.892 1234.32 190.495 1233.94 191.264C1233.61 191.978 1233.41 192.801 1233.36 193.734C1233.3 194.667 1233.28 195.628 1233.28 196.616V216.707C1233.28 218.025 1233.36 219.287 1233.52 220.495C1233.69 221.703 1234.18 222.691 1235.01 223.459C1235.83 224.173 1237.2 224.53 1239.12 224.53ZM1266.64 227.576C1265.38 227.576 1264.09 227.384 1262.77 227C1261.51 226.671 1260.41 225.875 1259.48 224.612C1258.6 223.295 1258.16 221.264 1258.16 218.519V214.566C1258.16 211.822 1258.99 209.626 1260.63 207.979C1262.34 206.277 1264.64 204.768 1267.55 203.45C1269.42 202.517 1270.93 201.694 1272.08 200.98C1273.29 200.267 1274.19 199.471 1274.8 198.592C1275.4 197.714 1275.7 196.534 1275.7 195.052V193.322C1275.7 192.005 1275.43 190.989 1274.88 190.276C1274.33 189.562 1273.59 189.068 1272.66 188.794C1271.78 188.519 1270.84 188.382 1269.86 188.382C1267.39 188.382 1265.77 189.068 1265 190.441C1264.23 191.758 1263.84 193.734 1263.84 196.369V199.827H1259.15V195.875C1259.15 193.844 1259.43 192.06 1259.97 190.523C1260.52 188.931 1261.57 187.696 1263.1 186.818C1264.64 185.884 1266.89 185.418 1269.86 185.418C1272.98 185.418 1275.32 185.775 1276.85 186.488C1278.45 187.202 1279.49 188.217 1279.98 189.535C1280.53 190.852 1280.81 192.417 1280.81 194.228V227H1275.78L1275.7 221.895C1275.04 223.761 1273.86 225.188 1272.16 226.177C1270.46 227.11 1268.62 227.576 1266.64 227.576ZM1268.54 224.118C1271.01 224.118 1272.79 223.24 1273.89 221.483C1275.04 219.727 1275.62 217.394 1275.62 214.484V201.474C1275.07 202.353 1274.17 203.149 1272.9 203.862C1271.64 204.576 1270.35 205.289 1269.03 206.003C1267.17 207.101 1265.71 208.254 1264.67 209.461C1263.68 210.614 1263.19 212.233 1263.19 214.319V217.531C1263.19 219.507 1263.46 220.962 1264.01 221.895C1264.56 222.828 1265.24 223.432 1266.07 223.706C1266.89 223.981 1267.71 224.118 1268.54 224.118ZM1297.64 227.082C1296.43 227.082 1295.33 226.945 1294.34 226.671C1293.35 226.396 1292.5 225.957 1291.79 225.353C1291.08 224.694 1290.53 223.871 1290.14 222.883C1289.76 221.84 1289.57 220.55 1289.57 219.013V189.452H1285.94V186.818L1289.9 186.241L1290.8 178.583H1294.67V186.241H1303.48V189.452H1294.67V218.107C1294.67 219.644 1294.95 220.934 1295.49 221.977C1296.04 223.02 1297.25 223.542 1299.12 223.542C1299.89 223.542 1300.71 223.514 1301.59 223.459C1302.47 223.35 1303.1 223.295 1303.48 223.295V226.588C1303.04 226.588 1302.27 226.671 1301.18 226.835C1300.08 227 1298.9 227.082 1297.64 227.082ZM1316.18 227.576C1314.92 227.576 1313.63 227.384 1312.31 227C1311.05 226.671 1309.95 225.875 1309.01 224.612C1308.14 223.295 1307.7 221.264 1307.7 218.519V214.566C1307.7 211.822 1308.52 209.626 1310.17 207.979C1311.87 206.277 1314.17 204.768 1317.08 203.45C1318.95 202.517 1320.46 201.694 1321.61 200.98C1322.82 200.267 1323.73 199.471 1324.33 198.592C1324.93 197.714 1325.24 196.534 1325.24 195.052V193.322C1325.24 192.005 1324.96 190.989 1324.41 190.276C1323.86 189.562 1323.12 189.068 1322.19 188.794C1321.31 188.519 1320.38 188.382 1319.39 188.382C1316.92 188.382 1315.3 189.068 1314.53 190.441C1313.76 191.758 1313.38 193.734 1313.38 196.369V199.827H1308.68V195.875C1308.68 193.844 1308.96 192.06 1309.51 190.523C1310.06 188.931 1311.1 187.696 1312.64 186.818C1314.17 185.884 1316.42 185.418 1319.39 185.418C1322.52 185.418 1324.85 185.775 1326.39 186.488C1327.98 187.202 1329.02 188.217 1329.52 189.535C1330.07 190.852 1330.34 192.417 1330.34 194.228V227H1325.32L1325.24 221.895C1324.58 223.761 1323.4 225.188 1321.69 226.177C1319.99 227.11 1318.15 227.576 1316.18 227.576ZM1318.07 224.118C1320.54 224.118 1322.33 223.24 1323.42 221.483C1324.58 219.727 1325.15 217.394 1325.15 214.484V201.474C1324.6 202.353 1323.7 203.149 1322.44 203.862C1321.17 204.576 1319.88 205.289 1318.57 206.003C1316.7 207.101 1315.24 208.254 1314.2 209.461C1313.21 210.614 1312.72 212.233 1312.72 214.319V217.531C1312.72 219.507 1312.99 220.962 1313.54 221.895C1314.09 222.828 1314.78 223.432 1315.6 223.706C1316.42 223.981 1317.25 224.118 1318.07 224.118ZM1348.24 227.576C1345.28 227.576 1342.97 227.22 1341.32 226.506C1339.68 225.737 1338.52 224.557 1337.86 222.965C1337.21 221.318 1336.88 219.15 1336.88 216.46V212.92H1342.06V217.613C1342.06 220.193 1342.5 221.977 1343.38 222.965C1344.26 223.953 1345.85 224.447 1348.16 224.447C1350.19 224.447 1351.67 223.953 1352.6 222.965C1353.59 221.977 1354.09 220.303 1354.09 217.942V215.637C1354.09 214.374 1353.89 213.304 1353.51 212.426C1353.13 211.492 1352.38 210.642 1351.29 209.873C1350.24 209.105 1348.76 208.336 1346.84 207.567C1345.03 206.854 1343.44 206.085 1342.06 205.262C1340.69 204.439 1339.59 203.396 1338.77 202.133C1338 200.87 1337.62 199.251 1337.62 197.275V194.805C1337.62 191.895 1338.44 189.645 1340.09 188.053C1341.79 186.406 1344.64 185.582 1348.65 185.582C1351.29 185.582 1353.37 185.939 1354.91 186.653C1356.5 187.366 1357.65 188.519 1358.37 190.111C1359.14 191.703 1359.52 193.762 1359.52 196.287V199.745H1354.5V195.793C1354.5 193.048 1354.03 191.182 1353.1 190.194C1352.16 189.151 1350.68 188.629 1348.65 188.629C1346.35 188.629 1344.78 189.178 1343.96 190.276C1343.19 191.374 1342.81 192.746 1342.81 194.393V196.616C1342.81 198.153 1343.13 199.416 1343.79 200.404C1344.51 201.392 1345.49 202.215 1346.76 202.874C1348.02 203.533 1349.53 204.219 1351.29 204.933C1352.88 205.591 1354.28 206.305 1355.49 207.073C1356.75 207.787 1357.74 208.775 1358.45 210.038C1359.16 211.3 1359.52 213.029 1359.52 215.225V217.119C1359.52 219.315 1359.16 221.209 1358.45 222.801C1357.79 224.338 1356.64 225.518 1354.99 226.341C1353.34 227.165 1351.09 227.576 1348.24 227.576ZM1377.44 227.741C1374.7 227.741 1372.48 227.439 1370.77 226.835C1369.07 226.177 1367.84 224.996 1367.07 223.295C1366.3 221.593 1365.92 219.123 1365.92 215.884V195.546C1365.92 191.703 1366.77 189.068 1368.47 187.641C1370.23 186.214 1373.11 185.5 1377.11 185.5C1381.01 185.5 1383.81 186.214 1385.51 187.641C1387.27 189.068 1388.15 191.703 1388.15 195.546V206.085H1371.02V217.613C1371.02 220.248 1371.43 222.087 1372.26 223.13C1373.08 224.118 1374.75 224.612 1377.28 224.612C1379.59 224.612 1381.12 224.118 1381.89 223.13C1382.66 222.142 1383.04 220.303 1383.04 217.613V212.343H1388.15V215.802C1388.15 218.985 1387.76 221.456 1387 223.212C1386.23 224.914 1385.05 226.094 1383.46 226.753C1381.92 227.412 1379.91 227.741 1377.44 227.741ZM1371.02 203.45H1383.04V195.381C1383.04 193.075 1382.66 191.401 1381.89 190.358C1381.12 189.315 1379.53 188.794 1377.11 188.794C1374.7 188.794 1373.08 189.315 1372.26 190.358C1371.43 191.401 1371.02 193.075 1371.02 195.381V203.45ZM1404.26 227.082C1403.05 227.082 1401.96 226.945 1400.97 226.671C1399.98 226.396 1399.13 225.957 1398.41 225.353C1397.7 224.694 1397.15 223.871 1396.77 222.883C1396.38 221.84 1396.19 220.55 1396.19 219.013V189.452H1392.57V186.818L1396.52 186.241L1397.43 178.583H1401.3V186.241H1410.11V189.452H1401.3V218.107C1401.3 219.644 1401.57 220.934 1402.12 221.977C1402.67 223.02 1403.88 223.542 1405.74 223.542C1406.51 223.542 1407.34 223.514 1408.21 223.459C1409.09 223.35 1409.72 223.295 1410.11 223.295V226.588C1409.67 226.588 1408.9 226.671 1407.8 226.835C1406.7 227 1405.52 227.082 1404.26 227.082ZM1415.15 236.799C1415.75 235.536 1416.35 234.273 1416.96 233.011C1417.56 231.748 1417.86 230.596 1417.86 229.553C1417.86 228.729 1417.7 228.098 1417.37 227.659C1417.04 227.22 1416.71 226.835 1416.38 226.506C1416.11 226.122 1415.97 225.545 1415.97 224.777C1415.97 224.008 1416.24 223.35 1416.79 222.801C1417.34 222.197 1418.08 221.895 1419.02 221.895C1420 221.895 1420.77 222.197 1421.32 222.801C1421.87 223.404 1422.14 224.228 1422.14 225.271C1422.14 226.369 1421.9 227.604 1421.4 228.976C1420.96 230.349 1420.39 231.721 1419.67 233.093C1419.02 234.466 1418.33 235.701 1417.62 236.799H1415.15ZM1451.47 227L1442.33 186.241H1447.27L1454.43 220.495L1461.43 186.241H1466.29L1473.7 220.495L1480.37 186.241H1485.23L1476.42 227H1470.57L1463.82 196.369L1457.32 227H1451.47ZM1490.58 227V175.125H1495.44V189.617C1496.09 188.355 1497.08 187.366 1498.4 186.653C1499.72 185.884 1501.39 185.5 1503.42 185.5C1506.33 185.5 1508.45 186.022 1509.76 187.065C1511.13 188.053 1512.01 189.37 1512.4 191.017C1512.78 192.609 1512.97 194.365 1512.97 196.287V227H1507.87V197.028C1507.87 196.204 1507.84 195.354 1507.79 194.475C1507.73 193.542 1507.51 192.691 1507.13 191.923C1506.8 191.154 1506.22 190.523 1505.4 190.029C1504.58 189.48 1503.37 189.205 1501.78 189.205C1500.35 189.205 1499.17 189.452 1498.23 189.946C1497.36 190.386 1496.7 190.907 1496.26 191.511C1495.87 192.115 1495.68 192.636 1495.68 193.075V227H1490.58ZM1521.05 227V186.241H1526.08V227H1521.05ZM1523.61 181.218C1522.78 181.218 1522.07 180.944 1521.46 180.395C1520.92 179.791 1520.64 179.105 1520.64 178.336C1520.64 177.513 1520.92 176.854 1521.46 176.36C1522.07 175.811 1522.78 175.537 1523.61 175.537C1524.37 175.537 1525.06 175.811 1525.66 176.36C1526.27 176.854 1526.57 177.513 1526.57 178.336C1526.57 179.105 1526.27 179.791 1525.66 180.395C1525.06 180.944 1524.37 181.218 1523.61 181.218ZM1545.26 227.741C1542.57 227.741 1540.38 227.439 1538.67 226.835C1536.97 226.177 1535.74 225.024 1534.97 223.377C1534.2 221.675 1533.82 219.205 1533.82 215.966V195.875C1533.82 191.868 1534.67 189.151 1536.37 187.723C1538.12 186.241 1541.01 185.5 1545.01 185.5C1548.91 185.5 1551.71 186.214 1553.41 187.641C1555.17 189.068 1556.05 191.703 1556.05 195.546V200.898H1550.94V195.381C1550.94 193.021 1550.56 191.319 1549.79 190.276C1549.02 189.178 1547.43 188.629 1545.01 188.629C1542.6 188.629 1540.98 189.178 1540.16 190.276C1539.33 191.319 1538.92 193.021 1538.92 195.381V217.284C1538.92 219.919 1539.33 221.785 1540.16 222.883C1540.98 223.926 1542.65 224.447 1545.18 224.447C1547.48 224.447 1549.02 223.926 1549.79 222.883C1550.56 221.84 1550.94 219.974 1550.94 217.284V211.767H1556.05V215.966C1556.05 219.095 1555.66 221.511 1554.89 223.212C1554.13 224.914 1552.95 226.094 1551.35 226.753C1549.76 227.412 1547.73 227.741 1545.26 227.741ZM1563.35 227V175.125H1568.21V189.617C1568.87 188.355 1569.85 187.366 1571.17 186.653C1572.49 185.884 1574.16 185.5 1576.19 185.5C1579.1 185.5 1581.22 186.022 1582.53 187.065C1583.91 188.053 1584.79 189.37 1585.17 191.017C1585.55 192.609 1585.75 194.365 1585.75 196.287V227H1580.64V197.028C1580.64 196.204 1580.61 195.354 1580.56 194.475C1580.5 193.542 1580.28 192.691 1579.9 191.923C1579.57 191.154 1578.99 190.523 1578.17 190.029C1577.35 189.48 1576.14 189.205 1574.55 189.205C1573.12 189.205 1571.94 189.452 1571.01 189.946C1570.13 190.386 1569.47 190.907 1569.03 191.511C1568.65 192.115 1568.45 192.636 1568.45 193.075V227H1563.35ZM1621.13 227.576C1618.55 227.576 1616.63 227.137 1615.36 226.259C1614.16 225.326 1613.33 224.31 1612.89 223.212L1612.65 227H1609.02V175.125H1614.05V189.617C1614.7 188.245 1615.67 187.229 1616.93 186.57C1618.25 185.857 1619.89 185.5 1621.87 185.5C1623.95 185.5 1625.71 185.829 1627.14 186.488C1628.57 187.147 1629.64 188.217 1630.35 189.699C1631.06 191.182 1631.42 193.24 1631.42 195.875V216.049C1631.42 218.299 1631.2 220.166 1630.76 221.648C1630.38 223.13 1629.77 224.31 1628.95 225.188C1628.13 226.067 1627.06 226.671 1625.74 227C1624.48 227.384 1622.94 227.576 1621.13 227.576ZM1620.22 223.953C1621.76 223.953 1622.97 223.734 1623.84 223.295C1624.72 222.855 1625.35 222.114 1625.74 221.071C1626.12 219.974 1626.31 218.464 1626.31 216.543V196.04C1626.31 193.295 1625.85 191.429 1624.91 190.441C1624.04 189.452 1622.47 188.958 1620.22 188.958C1617.92 188.958 1616.32 189.535 1615.45 190.688C1614.57 191.84 1614.13 193.515 1614.13 195.71V216.049C1614.13 218.848 1614.59 220.879 1615.53 222.142C1616.52 223.35 1618.08 223.953 1620.22 223.953ZM1648.07 227.659C1645.22 227.659 1643.1 227.165 1641.73 226.177C1640.36 225.134 1639.48 223.789 1639.1 222.142C1638.71 220.495 1638.52 218.738 1638.52 216.872V186.241H1643.63V216.213C1643.63 217.421 1643.68 218.629 1643.79 219.836C1643.95 220.989 1644.48 221.95 1645.35 222.718C1646.23 223.432 1647.69 223.789 1649.72 223.789C1651.15 223.789 1652.27 223.542 1653.09 223.048C1653.92 222.554 1654.55 221.977 1654.99 221.318C1655.43 220.605 1655.7 219.974 1655.81 219.425V186.241H1660.92V227H1656.55L1656.14 222.554C1655.7 223.871 1654.8 225.051 1653.42 226.094C1652.11 227.137 1650.32 227.659 1648.07 227.659ZM1679.53 227.576C1676.57 227.576 1674.26 227.22 1672.62 226.506C1670.97 225.737 1669.82 224.557 1669.16 222.965C1668.5 221.318 1668.17 219.15 1668.17 216.46V212.92H1673.36V217.613C1673.36 220.193 1673.8 221.977 1674.68 222.965C1675.55 223.953 1677.15 224.447 1679.45 224.447C1681.48 224.447 1682.96 223.953 1683.9 222.965C1684.89 221.977 1685.38 220.303 1685.38 217.942V215.637C1685.38 214.374 1685.19 213.304 1684.8 212.426C1684.42 211.492 1683.68 210.642 1682.58 209.873C1681.54 209.105 1680.06 208.336 1678.13 207.567C1676.32 206.854 1674.73 206.085 1673.36 205.262C1671.99 204.439 1670.89 203.396 1670.06 202.133C1669.3 200.87 1668.91 199.251 1668.91 197.275V194.805C1668.91 191.895 1669.74 189.645 1671.38 188.053C1673.08 186.406 1675.94 185.582 1679.95 185.582C1682.58 185.582 1684.67 185.939 1686.2 186.653C1687.8 187.366 1688.95 188.519 1689.66 190.111C1690.43 191.703 1690.81 193.762 1690.81 196.287V199.745H1685.79V195.793C1685.79 193.048 1685.33 191.182 1684.39 190.194C1683.46 189.151 1681.98 188.629 1679.95 188.629C1677.64 188.629 1676.08 189.178 1675.25 190.276C1674.48 191.374 1674.1 192.746 1674.1 194.393V196.616C1674.1 198.153 1674.43 199.416 1675.09 200.404C1675.8 201.392 1676.79 202.215 1678.05 202.874C1679.31 203.533 1680.82 204.219 1682.58 204.933C1684.17 205.591 1685.57 206.305 1686.78 207.073C1688.04 207.787 1689.03 208.775 1689.74 210.038C1690.46 211.3 1690.81 213.029 1690.81 215.225V217.119C1690.81 219.315 1690.46 221.209 1689.74 222.801C1689.09 224.338 1687.93 225.518 1686.29 226.341C1684.64 227.165 1682.39 227.576 1679.53 227.576ZM1698.2 227V186.241H1703.22V227H1698.2ZM1700.75 181.218C1699.93 181.218 1699.21 180.944 1698.61 180.395C1698.06 179.791 1697.79 179.105 1697.79 178.336C1697.79 177.513 1698.06 176.854 1698.61 176.36C1699.21 175.811 1699.93 175.537 1700.75 175.537C1701.52 175.537 1702.21 175.811 1702.81 176.36C1703.41 176.854 1703.72 177.513 1703.72 178.336C1703.72 179.105 1703.41 179.791 1702.81 180.395C1702.21 180.944 1701.52 181.218 1700.75 181.218ZM1711.95 227V186.241H1716.15L1716.81 190.605C1717.25 188.958 1718.26 187.696 1719.85 186.818C1721.45 185.939 1723.09 185.5 1724.79 185.5C1727.7 185.5 1729.82 186.022 1731.13 187.065C1732.51 188.053 1733.39 189.37 1733.77 191.017C1734.15 192.609 1734.35 194.365 1734.35 196.287V227H1729.24V197.028C1729.24 196.04 1729.21 195.079 1729.16 194.146C1729.1 193.213 1728.88 192.389 1728.5 191.676C1728.17 190.907 1727.59 190.303 1726.77 189.864C1725.95 189.425 1724.74 189.205 1723.15 189.205C1721.78 189.205 1720.65 189.48 1719.77 190.029C1718.95 190.523 1718.32 191.127 1717.88 191.84C1717.49 192.499 1717.22 193.13 1717.05 193.734V227H1711.95ZM1752.96 227.741C1750.22 227.741 1748 227.439 1746.3 226.835C1744.59 226.177 1743.36 224.996 1742.59 223.295C1741.82 221.593 1741.44 219.123 1741.44 215.884V195.546C1741.44 191.703 1742.29 189.068 1743.99 187.641C1745.75 186.214 1748.63 185.5 1752.64 185.5C1756.53 185.5 1759.33 186.214 1761.03 187.641C1762.79 189.068 1763.67 191.703 1763.67 195.546V206.085H1746.54V217.613C1746.54 220.248 1746.95 222.087 1747.78 223.13C1748.6 224.118 1750.28 224.612 1752.8 224.612C1755.11 224.612 1756.64 224.118 1757.41 223.13C1758.18 222.142 1758.56 220.303 1758.56 217.613V212.343H1763.67V215.802C1763.67 218.985 1763.28 221.456 1762.52 223.212C1761.75 224.914 1760.57 226.094 1758.98 226.753C1757.44 227.412 1755.44 227.741 1752.96 227.741ZM1746.54 203.45H1758.56V195.381C1758.56 193.075 1758.18 191.401 1757.41 190.358C1756.64 189.315 1755.05 188.794 1752.64 188.794C1750.22 188.794 1748.6 189.315 1747.78 190.358C1746.95 191.401 1746.54 193.075 1746.54 195.381V203.45ZM1780.85 227.576C1777.89 227.576 1775.58 227.22 1773.94 226.506C1772.29 225.737 1771.14 224.557 1770.48 222.965C1769.82 221.318 1769.49 219.15 1769.49 216.46V212.92H1774.68V217.613C1774.68 220.193 1775.12 221.977 1775.99 222.965C1776.87 223.953 1778.46 224.447 1780.77 224.447C1782.8 224.447 1784.28 223.953 1785.22 222.965C1786.2 221.977 1786.7 220.303 1786.7 217.942V215.637C1786.7 214.374 1786.51 213.304 1786.12 212.426C1785.74 211.492 1785 210.642 1783.9 209.873C1782.86 209.105 1781.37 208.336 1779.45 207.567C1777.64 206.854 1776.05 206.085 1774.68 205.262C1773.3 204.439 1772.21 203.396 1771.38 202.133C1770.61 200.87 1770.23 199.251 1770.23 197.275V194.805C1770.23 191.895 1771.05 189.645 1772.7 188.053C1774.4 186.406 1777.26 185.582 1781.26 185.582C1783.9 185.582 1785.98 185.939 1787.52 186.653C1789.11 187.366 1790.27 188.519 1790.98 190.111C1791.75 191.703 1792.13 193.762 1792.13 196.287V199.745H1787.11V195.793C1787.11 193.048 1786.64 191.182 1785.71 190.194C1784.78 189.151 1783.29 188.629 1781.26 188.629C1778.96 188.629 1777.39 189.178 1776.57 190.276C1775.8 191.374 1775.42 192.746 1775.42 194.393V196.616C1775.42 198.153 1775.75 199.416 1776.41 200.404C1777.12 201.392 1778.11 202.215 1779.37 202.874C1780.63 203.533 1782.14 204.219 1783.9 204.933C1785.49 205.591 1786.89 206.305 1788.1 207.073C1789.36 207.787 1790.35 208.775 1791.06 210.038C1791.78 211.3 1792.13 213.029 1792.13 215.225V217.119C1792.13 219.315 1791.78 221.209 1791.06 222.801C1790.4 224.338 1789.25 225.518 1787.6 226.341C1785.96 227.165 1783.71 227.576 1780.85 227.576ZM1809.4 227.576C1806.43 227.576 1804.13 227.22 1802.48 226.506C1800.83 225.737 1799.68 224.557 1799.02 222.965C1798.36 221.318 1798.04 219.15 1798.04 216.46V212.92H1803.22V217.613C1803.22 220.193 1803.66 221.977 1804.54 222.965C1805.42 223.953 1807.01 224.447 1809.32 224.447C1811.35 224.447 1812.83 223.953 1813.76 222.965C1814.75 221.977 1815.24 220.303 1815.24 217.942V215.637C1815.24 214.374 1815.05 213.304 1814.67 212.426C1814.28 211.492 1813.54 210.642 1812.44 209.873C1811.4 209.105 1809.92 208.336 1808 207.567C1806.19 206.854 1804.59 206.085 1803.22 205.262C1801.85 204.439 1800.75 203.396 1799.93 202.133C1799.16 200.87 1798.78 199.251 1798.78 197.275V194.805C1798.78 191.895 1799.6 189.645 1801.25 188.053C1802.95 186.406 1805.8 185.582 1809.81 185.582C1812.44 185.582 1814.53 185.939 1816.07 186.653C1817.66 187.366 1818.81 188.519 1819.53 190.111C1820.29 191.703 1820.68 193.762 1820.68 196.287V199.745H1815.66V195.793C1815.66 193.048 1815.19 191.182 1814.26 190.194C1813.32 189.151 1811.84 188.629 1809.81 188.629C1807.5 188.629 1805.94 189.178 1805.12 190.276C1804.35 191.374 1803.96 192.746 1803.96 194.393V196.616C1803.96 198.153 1804.29 199.416 1804.95 200.404C1805.67 201.392 1806.65 202.215 1807.92 202.874C1809.18 203.533 1810.69 204.219 1812.44 204.933C1814.04 205.591 1815.44 206.305 1816.64 207.073C1817.91 207.787 1818.89 208.775 1819.61 210.038C1820.32 211.3 1820.68 213.029 1820.68 215.225V217.119C1820.68 219.315 1820.32 221.209 1819.61 222.801C1818.95 224.338 1817.8 225.518 1816.15 226.341C1814.5 227.165 1812.25 227.576 1809.4 227.576ZM1838.6 227.741C1835.86 227.741 1833.64 227.439 1831.93 226.835C1830.23 226.177 1829 224.996 1828.23 223.295C1827.46 221.593 1827.08 219.123 1827.08 215.884V195.546C1827.08 191.703 1827.93 189.068 1829.63 187.641C1831.38 186.214 1834.27 185.5 1838.27 185.5C1842.17 185.5 1844.97 186.214 1846.67 187.641C1848.43 189.068 1849.31 191.703 1849.31 195.546V206.085H1832.18V217.613C1832.18 220.248 1832.59 222.087 1833.42 223.13C1834.24 224.118 1835.91 224.612 1838.44 224.612C1840.74 224.612 1842.28 224.118 1843.05 223.13C1843.82 222.142 1844.2 220.303 1844.2 217.613V212.343H1849.31V215.802C1849.31 218.985 1848.92 221.456 1848.15 223.212C1847.39 224.914 1846.21 226.094 1844.61 226.753C1843.08 227.412 1841.07 227.741 1838.6 227.741ZM1832.18 203.45H1844.2V195.381C1844.2 193.075 1843.82 191.401 1843.05 190.358C1842.28 189.315 1840.69 188.794 1838.27 188.794C1835.86 188.794 1834.24 189.315 1833.42 190.358C1832.59 191.401 1832.18 193.075 1832.18 195.381V203.45ZM1866.49 227.576C1863.53 227.576 1861.22 227.22 1859.57 226.506C1857.93 225.737 1856.77 224.557 1856.12 222.965C1855.46 221.318 1855.13 219.15 1855.13 216.46V212.92H1860.31V217.613C1860.31 220.193 1860.75 221.977 1861.63 222.965C1862.51 223.953 1864.1 224.447 1866.41 224.447C1868.44 224.447 1869.92 223.953 1870.85 222.965C1871.84 221.977 1872.34 220.303 1872.34 217.942V215.637C1872.34 214.374 1872.14 213.304 1871.76 212.426C1871.38 211.492 1870.63 210.642 1869.54 209.873C1868.49 209.105 1867.01 208.336 1865.09 207.567C1863.28 206.854 1861.69 206.085 1860.31 205.262C1858.94 204.439 1857.84 203.396 1857.02 202.133C1856.25 200.87 1855.87 199.251 1855.87 197.275V194.805C1855.87 191.895 1856.69 189.645 1858.34 188.053C1860.04 186.406 1862.89 185.582 1866.9 185.582C1869.54 185.582 1871.62 185.939 1873.16 186.653C1874.75 187.366 1875.9 188.519 1876.62 190.111C1877.39 191.703 1877.77 193.762 1877.77 196.287V199.745H1872.75V195.793C1872.75 193.048 1872.28 191.182 1871.35 190.194C1870.42 189.151 1868.93 188.629 1866.9 188.629C1864.6 188.629 1863.03 189.178 1862.21 190.276C1861.44 191.374 1861.06 192.746 1861.06 194.393V196.616C1861.06 198.153 1861.39 199.416 1862.04 200.404C1862.76 201.392 1863.75 202.215 1865.01 202.874C1866.27 203.533 1867.78 204.219 1869.54 204.933C1871.13 205.591 1872.53 206.305 1873.74 207.073C1875 207.787 1875.99 208.775 1876.7 210.038C1877.41 211.3 1877.77 213.029 1877.77 215.225V217.119C1877.77 219.315 1877.41 221.209 1876.7 222.801C1876.04 224.338 1874.89 225.518 1873.24 226.341C1871.6 227.165 1869.34 227.576 1866.49 227.576ZM1907.76 227.576C1906.5 227.576 1905.21 227.384 1903.89 227C1902.63 226.671 1901.53 225.875 1900.6 224.612C1899.72 223.295 1899.28 221.264 1899.28 218.519V214.566C1899.28 211.822 1900.11 209.626 1901.75 207.979C1903.45 206.277 1905.76 204.768 1908.67 203.45C1910.54 202.517 1912.05 201.694 1913.2 200.98C1914.41 200.267 1915.31 199.471 1915.92 198.592C1916.52 197.714 1916.82 196.534 1916.82 195.052V193.322C1916.82 192.005 1916.55 190.989 1916 190.276C1915.45 189.562 1914.71 189.068 1913.77 188.794C1912.9 188.519 1911.96 188.382 1910.98 188.382C1908.5 188.382 1906.89 189.068 1906.12 190.441C1905.35 191.758 1904.96 193.734 1904.96 196.369V199.827H1900.27V195.875C1900.27 193.844 1900.55 192.06 1901.09 190.523C1901.64 188.931 1902.69 187.696 1904.22 186.818C1905.76 185.884 1908.01 185.418 1910.98 185.418C1914.1 185.418 1916.44 185.775 1917.97 186.488C1919.57 187.202 1920.61 188.217 1921.1 189.535C1921.65 190.852 1921.93 192.417 1921.93 194.228V227H1916.9L1916.82 221.895C1916.16 223.761 1914.98 225.188 1913.28 226.177C1911.58 227.11 1909.74 227.576 1907.76 227.576ZM1909.66 224.118C1912.13 224.118 1913.91 223.24 1915.01 221.483C1916.16 219.727 1916.74 217.394 1916.74 214.484V201.474C1916.19 202.353 1915.28 203.149 1914.02 203.862C1912.76 204.576 1911.47 205.289 1910.15 206.003C1908.29 207.101 1906.83 208.254 1905.79 209.461C1904.8 210.614 1904.31 212.233 1904.31 214.319V217.531C1904.31 219.507 1904.58 220.962 1905.13 221.895C1905.68 222.828 1906.36 223.432 1907.19 223.706C1908.01 223.981 1908.83 224.118 1909.66 224.118ZM1929.94 236.552V186.241H1934.72L1934.88 189.864C1935.38 188.711 1936.17 187.723 1937.27 186.9C1938.37 186.076 1940.18 185.665 1942.71 185.665C1945.29 185.665 1947.26 186.104 1948.64 186.982C1950.01 187.861 1950.97 189.068 1951.52 190.605C1952.07 192.142 1952.34 193.926 1952.34 195.957V216.049C1952.34 218.299 1952.09 220.303 1951.6 222.06C1951.11 223.816 1950.17 225.188 1948.8 226.177C1947.43 227.11 1945.4 227.576 1942.71 227.576C1940.62 227.576 1938.95 227.247 1937.68 226.588C1936.48 225.93 1935.57 225.106 1934.97 224.118V236.552H1929.94ZM1941.14 224.447C1942.68 224.447 1943.86 224.228 1944.68 223.789C1945.51 223.35 1946.11 222.773 1946.49 222.06C1946.88 221.291 1947.1 220.468 1947.15 219.589C1947.21 218.656 1947.24 217.668 1947.24 216.625V196.781C1947.24 195.738 1947.21 194.777 1947.15 193.899C1947.1 192.966 1946.88 192.115 1946.49 191.346C1946.11 190.578 1945.51 189.974 1944.68 189.535C1943.86 189.096 1942.68 188.876 1941.14 188.876C1939.61 188.876 1938.43 189.151 1937.6 189.699C1936.78 190.248 1936.17 190.989 1935.79 191.923C1935.41 192.801 1935.19 193.762 1935.13 194.805C1935.08 195.848 1935.05 196.836 1935.05 197.769V217.201C1935.05 218.519 1935.16 219.754 1935.38 220.907C1935.65 222.005 1936.2 222.883 1937.03 223.542C1937.9 224.146 1939.28 224.447 1941.14 224.447ZM1960.02 236.552V186.241H1964.79L1964.96 189.864C1965.45 188.711 1966.25 187.723 1967.35 186.9C1968.44 186.076 1970.26 185.665 1972.78 185.665C1975.36 185.665 1977.34 186.104 1978.71 186.982C1980.08 187.861 1981.04 189.068 1981.59 190.605C1982.14 192.142 1982.42 193.926 1982.42 195.957V216.049C1982.42 218.299 1982.17 220.303 1981.67 222.06C1981.18 223.816 1980.25 225.188 1978.87 226.177C1977.5 227.11 1975.47 227.576 1972.78 227.576C1970.7 227.576 1969.02 227.247 1967.76 226.588C1966.55 225.93 1965.64 225.106 1965.04 224.118V236.552H1960.02ZM1971.22 224.447C1972.75 224.447 1973.93 224.228 1974.76 223.789C1975.58 223.35 1976.18 222.773 1976.57 222.06C1976.95 221.291 1977.17 220.468 1977.23 219.589C1977.28 218.656 1977.31 217.668 1977.31 216.625V196.781C1977.31 195.738 1977.28 194.777 1977.23 193.899C1977.17 192.966 1976.95 192.115 1976.57 191.346C1976.18 190.578 1975.58 189.974 1974.76 189.535C1973.93 189.096 1972.75 188.876 1971.22 188.876C1969.68 188.876 1968.5 189.151 1967.68 189.699C1966.85 190.248 1966.25 190.989 1965.86 191.923C1965.48 192.801 1965.26 193.762 1965.21 194.805C1965.15 195.848 1965.12 196.836 1965.12 197.769V217.201C1965.12 218.519 1965.23 219.754 1965.45 220.907C1965.73 222.005 1966.28 222.883 1967.1 223.542C1967.98 224.146 1969.35 224.447 1971.22 224.447ZM2000.63 227.741C1997.89 227.741 1995.66 227.439 1993.96 226.835C1992.26 226.177 1991.03 224.996 1990.26 223.295C1989.49 221.593 1989.1 219.123 1989.1 215.884V195.546C1989.1 191.703 1989.95 189.068 1991.66 187.641C1993.41 186.214 1996.3 185.5 2000.3 185.5C2004.2 185.5 2007 186.214 2008.7 187.641C2010.46 189.068 2011.34 191.703 2011.34 195.546V206.085H1994.21V217.613C1994.21 220.248 1994.62 222.087 1995.44 223.13C1996.27 224.118 1997.94 224.612 2000.47 224.612C2002.77 224.612 2004.31 224.118 2005.08 223.13C2005.85 222.142 2006.23 220.303 2006.23 217.613V212.343H2011.34V215.802C2011.34 218.985 2010.95 221.456 2010.18 223.212C2009.41 224.914 2008.23 226.094 2006.64 226.753C2005.11 227.412 2003.1 227.741 2000.63 227.741ZM1994.21 203.45H2006.23V195.381C2006.23 193.075 2005.85 191.401 2005.08 190.358C2004.31 189.315 2002.72 188.794 2000.3 188.794C1997.89 188.794 1996.27 189.315 1995.44 190.358C1994.62 191.401 1994.21 193.075 1994.21 195.381V203.45ZM2026.05 227.576C2024.79 227.576 2023.5 227.384 2022.18 227C2020.92 226.671 2019.82 225.875 2018.89 224.612C2018.01 223.295 2017.57 221.264 2017.57 218.519V214.566C2017.57 211.822 2018.39 209.626 2020.04 207.979C2021.74 206.277 2024.05 204.768 2026.95 203.45C2028.82 202.517 2030.33 201.694 2031.48 200.98C2032.69 200.267 2033.6 199.471 2034.2 198.592C2034.8 197.714 2035.11 196.534 2035.11 195.052V193.322C2035.11 192.005 2034.83 190.989 2034.28 190.276C2033.73 189.562 2032.99 189.068 2032.06 188.794C2031.18 188.519 2030.25 188.382 2029.26 188.382C2026.79 188.382 2025.17 189.068 2024.4 190.441C2023.63 191.758 2023.25 193.734 2023.25 196.369V199.827H2018.56V195.875C2018.56 193.844 2018.83 192.06 2019.38 190.523C2019.93 188.931 2020.97 187.696 2022.51 186.818C2024.05 185.884 2026.3 185.418 2029.26 185.418C2032.39 185.418 2034.72 185.775 2036.26 186.488C2037.85 187.202 2038.89 188.217 2039.39 189.535C2039.94 190.852 2040.21 192.417 2040.21 194.228V227H2035.19L2035.11 221.895C2034.45 223.761 2033.27 225.188 2031.57 226.177C2029.86 227.11 2028.02 227.576 2026.05 227.576ZM2027.94 224.118C2030.41 224.118 2032.2 223.24 2033.29 221.483C2034.45 219.727 2035.02 217.394 2035.02 214.484V201.474C2034.47 202.353 2033.57 203.149 2032.31 203.862C2031.04 204.576 2029.75 205.289 2028.44 206.003C2026.57 207.101 2025.12 208.254 2024.07 209.461C2023.08 210.614 2022.59 212.233 2022.59 214.319V217.531C2022.59 219.507 2022.86 220.962 2023.41 221.895C2023.96 222.828 2024.65 223.432 2025.47 223.706C2026.3 223.981 2027.12 224.118 2027.94 224.118ZM2048.23 227V186.241H2052.51L2053.09 190.605C2053.69 189.068 2054.68 187.97 2056.05 187.312C2057.42 186.653 2058.8 186.241 2060.17 186.076C2061.71 185.747 2063.19 185.72 2064.62 185.994V190.029C2064.4 189.974 2064.01 189.919 2063.46 189.864C2062.91 189.809 2062.31 189.782 2061.65 189.782C2061.05 189.782 2060.47 189.892 2059.92 190.111C2058.06 190.331 2056.49 191.017 2055.23 192.17C2053.97 193.268 2053.33 194.777 2053.33 196.698V227H2048.23ZM2093.06 227.082C2091.86 227.082 2090.76 226.945 2089.77 226.671C2088.78 226.396 2087.93 225.957 2087.22 225.353C2086.5 224.694 2085.96 223.871 2085.57 222.883C2085.19 221.84 2084.99 220.55 2084.99 219.013V189.452H2081.37V186.818L2085.32 186.241L2086.23 178.583H2090.1V186.241H2098.91V189.452H2090.1V218.107C2090.1 219.644 2090.37 220.934 2090.92 221.977C2091.47 223.02 2092.68 223.542 2094.55 223.542C2095.31 223.542 2096.14 223.514 2097.02 223.459C2097.89 223.35 2098.53 223.295 2098.91 223.295V226.588C2098.47 226.588 2097.7 226.671 2096.6 226.835C2095.51 227 2094.33 227.082 2093.06 227.082ZM2114.33 227.576C2111.8 227.576 2109.69 227.247 2107.99 226.588C2106.34 225.875 2105.1 224.64 2104.28 222.883C2103.51 221.126 2103.13 218.711 2103.13 215.637V196.616C2103.13 192.664 2103.98 189.837 2105.68 188.135C2107.44 186.433 2110.32 185.582 2114.33 185.582C2118.33 185.582 2121.19 186.406 2122.89 188.053C2124.65 189.699 2125.52 192.554 2125.52 196.616V215.637C2125.52 218.711 2125.14 221.126 2124.37 222.883C2123.6 224.585 2122.4 225.792 2120.75 226.506C2119.1 227.22 2116.96 227.576 2114.33 227.576ZM2114.33 224.365C2116.52 224.365 2118.09 223.816 2119.02 222.718C2119.95 221.62 2120.42 219.617 2120.42 216.707V196.369C2120.42 193.679 2119.98 191.758 2119.1 190.605C2118.22 189.398 2116.63 188.794 2114.33 188.794C2112.18 188.794 2110.62 189.37 2109.63 190.523C2108.7 191.621 2108.23 193.569 2108.23 196.369V216.707C2108.23 219.562 2108.7 221.565 2109.63 222.718C2110.62 223.816 2112.18 224.365 2114.33 224.365ZM2160.45 227.576C2157.87 227.576 2155.94 227.137 2154.68 226.259C2153.47 225.326 2152.65 224.31 2152.21 223.212L2151.96 227H2148.34V175.125H2153.36V189.617C2154.02 188.245 2154.98 187.229 2156.25 186.57C2157.56 185.857 2159.21 185.5 2161.19 185.5C2163.27 185.5 2165.03 185.829 2166.46 186.488C2167.88 187.147 2168.95 188.217 2169.67 189.699C2170.38 191.182 2170.74 193.24 2170.74 195.875V216.049C2170.74 218.299 2170.52 220.166 2170.08 221.648C2169.7 223.13 2169.09 224.31 2168.27 225.188C2167.44 226.067 2166.37 226.671 2165.06 227C2163.79 227.384 2162.26 227.576 2160.45 227.576ZM2159.54 223.953C2161.08 223.953 2162.28 223.734 2163.16 223.295C2164.04 222.855 2164.67 222.114 2165.06 221.071C2165.44 219.974 2165.63 218.464 2165.63 216.543V196.04C2165.63 193.295 2165.17 191.429 2164.23 190.441C2163.36 189.452 2161.79 188.958 2159.54 188.958C2157.23 188.958 2155.64 189.535 2154.76 190.688C2153.89 191.84 2153.45 193.515 2153.45 195.71V216.049C2153.45 218.848 2153.91 220.879 2154.85 222.142C2155.83 223.35 2157.4 223.953 2159.54 223.953ZM2188.95 227.741C2186.21 227.741 2183.99 227.439 2182.29 226.835C2180.58 226.177 2179.35 224.996 2178.58 223.295C2177.81 221.593 2177.43 219.123 2177.43 215.884V195.546C2177.43 191.703 2178.28 189.068 2179.98 187.641C2181.74 186.214 2184.62 185.5 2188.63 185.5C2192.52 185.5 2195.32 186.214 2197.02 187.641C2198.78 189.068 2199.66 191.703 2199.66 195.546V206.085H2182.53V217.613C2182.53 220.248 2182.94 222.087 2183.77 223.13C2184.59 224.118 2186.27 224.612 2188.79 224.612C2191.1 224.612 2192.63 224.118 2193.4 223.13C2194.17 222.142 2194.55 220.303 2194.55 217.613V212.343H2199.66V215.802C2199.66 218.985 2199.27 221.456 2198.51 223.212C2197.74 224.914 2196.56 226.094 2194.97 226.753C2193.43 227.412 2191.43 227.741 2188.95 227.741ZM2182.53 203.45H2194.55V195.381C2194.55 193.075 2194.17 191.401 2193.4 190.358C2192.63 189.315 2191.04 188.794 2188.63 188.794C2186.21 188.794 2184.59 189.315 2183.77 190.358C2182.94 191.401 2182.53 193.075 2182.53 195.381V203.45ZM2222.16 227V186.241H2226.44L2227.02 190.77C2227.62 189.178 2228.61 187.915 2229.98 186.982C2231.41 186.049 2233.14 185.582 2235.17 185.582C2238.35 185.582 2240.58 186.241 2241.84 187.559C2243.16 188.876 2243.84 190.797 2243.9 193.322L2242.99 193.405C2243.54 191.044 2244.58 189.151 2246.12 187.723C2247.71 186.296 2249.74 185.582 2252.21 185.582C2255.62 185.582 2257.92 186.378 2259.13 187.97C2260.39 189.562 2261.02 192.005 2261.02 195.299V227H2255.92V196.204C2255.92 193.569 2255.51 191.785 2254.68 190.852C2253.92 189.864 2252.57 189.37 2250.65 189.37C2248.84 189.37 2247.33 189.919 2246.12 191.017C2244.91 192.06 2244.25 193.377 2244.14 194.969V227H2239.04V195.546C2239.04 193.295 2238.63 191.703 2237.8 190.77C2237.04 189.837 2235.64 189.37 2233.6 189.37C2231.74 189.37 2230.31 189.809 2229.32 190.688C2228.39 191.566 2227.7 192.609 2227.26 193.817V227H2222.16ZM2279.33 227.576C2276.8 227.576 2274.69 227.247 2272.99 226.588C2271.34 225.875 2270.11 224.64 2269.28 222.883C2268.52 221.126 2268.13 218.711 2268.13 215.637V196.616C2268.13 192.664 2268.98 189.837 2270.68 188.135C2272.44 186.433 2275.32 185.582 2279.33 185.582C2283.34 185.582 2286.19 186.406 2287.89 188.053C2289.65 189.699 2290.53 192.554 2290.53 196.616V215.637C2290.53 218.711 2290.14 221.126 2289.38 222.883C2288.61 224.585 2287.4 225.792 2285.75 226.506C2284.11 227.22 2281.96 227.576 2279.33 227.576ZM2279.33 224.365C2281.53 224.365 2283.09 223.816 2284.02 222.718C2284.96 221.62 2285.42 219.617 2285.42 216.707V196.369C2285.42 193.679 2284.98 191.758 2284.11 190.605C2283.23 189.398 2281.64 188.794 2279.33 188.794C2277.19 188.794 2275.62 189.37 2274.64 190.523C2273.7 191.621 2273.24 193.569 2273.24 196.369V216.707C2273.24 219.562 2273.7 221.565 2274.64 222.718C2275.62 223.816 2277.19 224.365 2279.33 224.365ZM2298.15 227V186.241H2302.43L2303.01 190.605C2303.61 189.068 2304.6 187.97 2305.97 187.312C2307.34 186.653 2308.71 186.241 2310.09 186.076C2311.62 185.747 2313.11 185.72 2314.53 185.994V190.029C2314.31 189.974 2313.93 189.919 2313.38 189.864C2312.83 189.809 2312.23 189.782 2311.57 189.782C2310.97 189.782 2310.39 189.892 2309.84 190.111C2307.97 190.331 2306.41 191.017 2305.15 192.17C2303.88 193.268 2303.25 194.777 2303.25 196.698V227H2298.15ZM2329.51 227.741C2326.77 227.741 2324.55 227.439 2322.84 226.835C2321.14 226.177 2319.91 224.996 2319.14 223.295C2318.37 221.593 2317.99 219.123 2317.99 215.884V195.546C2317.99 191.703 2318.84 189.068 2320.54 187.641C2322.3 186.214 2325.18 185.5 2329.18 185.5C2333.08 185.5 2335.88 186.214 2337.58 187.641C2339.34 189.068 2340.22 191.703 2340.22 195.546V206.085H2323.09V217.613C2323.09 220.248 2323.5 222.087 2324.33 223.13C2325.15 224.118 2326.82 224.612 2329.35 224.612C2331.65 224.612 2333.19 224.118 2333.96 223.13C2334.73 222.142 2335.11 220.303 2335.11 217.613V212.343H2340.22V215.802C2340.22 218.985 2339.83 221.456 2339.07 223.212C2338.3 224.914 2337.12 226.094 2335.52 226.753C2333.99 227.412 2331.98 227.741 2329.51 227.741ZM2323.09 203.45H2335.11V195.381C2335.11 193.075 2334.73 191.401 2333.96 190.358C2333.19 189.315 2331.6 188.794 2329.18 188.794C2326.77 188.794 2325.15 189.315 2324.33 190.358C2323.5 191.401 2323.09 193.075 2323.09 195.381V203.45ZM2362.72 236.552V186.241H2367.49L2367.66 189.864C2368.15 188.711 2368.95 187.723 2370.05 186.9C2371.14 186.076 2372.96 185.665 2375.48 185.665C2378.06 185.665 2380.04 186.104 2381.41 186.982C2382.78 187.861 2383.74 189.068 2384.29 190.605C2384.84 192.142 2385.11 193.926 2385.11 195.957V216.049C2385.11 218.299 2384.87 220.303 2384.37 222.06C2383.88 223.816 2382.95 225.188 2381.57 226.177C2380.2 227.11 2378.17 227.576 2375.48 227.576C2373.39 227.576 2371.72 227.247 2370.46 226.588C2369.25 225.93 2368.34 225.106 2367.74 224.118V236.552H2362.72ZM2373.92 224.447C2375.45 224.447 2376.63 224.228 2377.46 223.789C2378.28 223.35 2378.88 222.773 2379.27 222.06C2379.65 221.291 2379.87 220.468 2379.93 219.589C2379.98 218.656 2380.01 217.668 2380.01 216.625V196.781C2380.01 195.738 2379.98 194.777 2379.93 193.899C2379.87 192.966 2379.65 192.115 2379.27 191.346C2378.88 190.578 2378.28 189.974 2377.46 189.535C2376.63 189.096 2375.45 188.876 2373.92 188.876C2372.38 188.876 2371.2 189.151 2370.38 189.699C2369.55 190.248 2368.95 190.989 2368.56 191.923C2368.18 192.801 2367.96 193.762 2367.91 194.805C2367.85 195.848 2367.82 196.836 2367.82 197.769V217.201C2367.82 218.519 2367.93 219.754 2368.15 220.907C2368.43 222.005 2368.98 222.883 2369.8 223.542C2370.68 224.146 2372.05 224.447 2373.92 224.447ZM2392.79 227V186.241H2397.07L2397.65 190.605C2398.25 189.068 2399.24 187.97 2400.61 187.312C2401.99 186.653 2403.36 186.241 2404.73 186.076C2406.27 185.747 2407.75 185.72 2409.18 185.994V190.029C2408.96 189.974 2408.57 189.919 2408.02 189.864C2407.48 189.809 2406.87 189.782 2406.21 189.782C2405.61 189.782 2405.03 189.892 2404.48 190.111C2402.62 190.331 2401.05 191.017 2399.79 192.17C2398.53 193.268 2397.9 194.777 2397.9 196.698V227H2392.79ZM2423.83 227.576C2421.3 227.576 2419.19 227.247 2417.49 226.588C2415.84 225.875 2414.61 224.64 2413.78 222.883C2413.01 221.126 2412.63 218.711 2412.63 215.637V196.616C2412.63 192.664 2413.48 189.837 2415.18 188.135C2416.94 186.433 2419.82 185.582 2423.83 185.582C2427.84 185.582 2430.69 186.406 2432.39 188.053C2434.15 189.699 2435.03 192.554 2435.03 196.616V215.637C2435.03 218.711 2434.64 221.126 2433.87 222.883C2433.11 224.585 2431.9 225.792 2430.25 226.506C2428.6 227.22 2426.46 227.576 2423.83 227.576ZM2423.83 224.365C2426.02 224.365 2427.59 223.816 2428.52 222.718C2429.46 221.62 2429.92 219.617 2429.92 216.707V196.369C2429.92 193.679 2429.48 191.758 2428.6 190.605C2427.73 189.398 2426.13 188.794 2423.83 188.794C2421.69 188.794 2420.12 189.37 2419.14 190.523C2418.2 191.621 2417.74 193.569 2417.74 196.369V216.707C2417.74 219.562 2418.2 221.565 2419.14 222.718C2420.12 223.816 2421.69 224.365 2423.83 224.365ZM2452.53 227.576C2449.56 227.576 2447.26 227.22 2445.61 226.506C2443.96 225.737 2442.81 224.557 2442.15 222.965C2441.49 221.318 2441.16 219.15 2441.16 216.46V212.92H2446.35V217.613C2446.35 220.193 2446.79 221.977 2447.67 222.965C2448.55 223.953 2450.14 224.447 2452.45 224.447C2454.48 224.447 2455.96 223.953 2456.89 222.965C2457.88 221.977 2458.37 220.303 2458.37 217.942V215.637C2458.37 214.374 2458.18 213.304 2457.8 212.426C2457.41 211.492 2456.67 210.642 2455.57 209.873C2454.53 209.105 2453.05 208.336 2451.13 207.567C2449.32 206.854 2447.72 206.085 2446.35 205.262C2444.98 204.439 2443.88 203.396 2443.06 202.133C2442.29 200.87 2441.91 199.251 2441.91 197.275V194.805C2441.91 191.895 2442.73 189.645 2444.38 188.053C2446.08 186.406 2448.93 185.582 2452.94 185.582C2455.57 185.582 2457.66 185.939 2459.2 186.653C2460.79 187.366 2461.94 188.519 2462.66 190.111C2463.42 191.703 2463.81 193.762 2463.81 196.287V199.745H2458.79V195.793C2458.79 193.048 2458.32 191.182 2457.39 190.194C2456.45 189.151 2454.97 188.629 2452.94 188.629C2450.63 188.629 2449.07 189.178 2448.25 190.276C2447.48 191.374 2447.09 192.746 2447.09 194.393V196.616C2447.09 198.153 2447.42 199.416 2448.08 200.404C2448.79 201.392 2449.78 202.215 2451.05 202.874C2452.31 203.533 2453.82 204.219 2455.57 204.933C2457.17 205.591 2458.57 206.305 2459.77 207.073C2461.04 207.787 2462.02 208.775 2462.74 210.038C2463.45 211.3 2463.81 213.029 2463.81 215.225V217.119C2463.81 219.315 2463.45 221.209 2462.74 222.801C2462.08 224.338 2460.93 225.518 2459.28 226.341C2457.63 227.165 2455.38 227.576 2452.53 227.576ZM2471.19 236.552V186.241H2475.97L2476.13 189.864C2476.63 188.711 2477.42 187.723 2478.52 186.9C2479.62 186.076 2481.43 185.665 2483.96 185.665C2486.54 185.665 2488.51 186.104 2489.88 186.982C2491.26 187.861 2492.22 189.068 2492.77 190.605C2493.32 192.142 2493.59 193.926 2493.59 195.957V216.049C2493.59 218.299 2493.34 220.303 2492.85 222.06C2492.35 223.816 2491.42 225.188 2490.05 226.177C2488.68 227.11 2486.65 227.576 2483.96 227.576C2481.87 227.576 2480.2 227.247 2478.93 226.588C2477.73 225.93 2476.82 225.106 2476.22 224.118V236.552H2471.19ZM2482.39 224.447C2483.93 224.447 2485.11 224.228 2485.93 223.789C2486.76 223.35 2487.36 222.773 2487.74 222.06C2488.13 221.291 2488.35 220.468 2488.4 219.589C2488.46 218.656 2488.48 217.668 2488.48 216.625V196.781C2488.48 195.738 2488.46 194.777 2488.4 193.899C2488.35 192.966 2488.13 192.115 2487.74 191.346C2487.36 190.578 2486.76 189.974 2485.93 189.535C2485.11 189.096 2483.93 188.876 2482.39 188.876C2480.85 188.876 2479.67 189.151 2478.85 189.699C2478.03 190.248 2477.42 190.989 2477.04 191.923C2476.65 192.801 2476.44 193.762 2476.38 194.805C2476.33 195.848 2476.3 196.836 2476.3 197.769V217.201C2476.3 218.519 2476.41 219.754 2476.63 220.907C2476.9 222.005 2477.45 222.883 2478.27 223.542C2479.15 224.146 2480.52 224.447 2482.39 224.447ZM2511.81 227.741C2509.06 227.741 2506.84 227.439 2505.14 226.835C2503.43 226.177 2502.2 224.996 2501.43 223.295C2500.66 221.593 2500.28 219.123 2500.28 215.884V195.546C2500.28 191.703 2501.13 189.068 2502.83 187.641C2504.59 186.214 2507.47 185.5 2511.48 185.5C2515.37 185.5 2518.17 186.214 2519.88 187.641C2521.63 189.068 2522.51 191.703 2522.51 195.546V206.085H2505.38V217.613C2505.38 220.248 2505.8 222.087 2506.62 223.13C2507.44 224.118 2509.12 224.612 2511.64 224.612C2513.95 224.612 2515.48 224.118 2516.25 223.13C2517.02 222.142 2517.41 220.303 2517.41 217.613V212.343H2522.51V215.802C2522.51 218.985 2522.13 221.456 2521.36 223.212C2520.59 224.914 2519.41 226.094 2517.82 226.753C2516.28 227.412 2514.28 227.741 2511.81 227.741ZM2505.38 203.45H2517.41V195.381C2517.41 193.075 2517.02 191.401 2516.25 190.358C2515.48 189.315 2513.89 188.794 2511.48 188.794C2509.06 188.794 2507.44 189.315 2506.62 190.358C2505.8 191.401 2505.38 193.075 2505.38 195.381V203.45ZM2529.81 227V186.241H2534.09L2534.67 190.605C2535.27 189.068 2536.26 187.97 2537.63 187.312C2539.01 186.653 2540.38 186.241 2541.75 186.076C2543.29 185.747 2544.77 185.72 2546.2 185.994V190.029C2545.98 189.974 2545.59 189.919 2545.05 189.864C2544.5 189.809 2543.89 189.782 2543.23 189.782C2542.63 189.782 2542.05 189.892 2541.51 190.111C2539.64 190.331 2538.07 191.017 2536.81 192.17C2535.55 193.268 2534.92 194.777 2534.92 196.698V227H2529.81ZM2560.85 227.576C2558.32 227.576 2556.21 227.247 2554.51 226.588C2552.86 225.875 2551.63 224.64 2550.8 222.883C2550.04 221.126 2549.65 218.711 2549.65 215.637V196.616C2549.65 192.664 2550.5 189.837 2552.2 188.135C2553.96 186.433 2556.84 185.582 2560.85 185.582C2564.86 185.582 2567.71 186.406 2569.41 188.053C2571.17 189.699 2572.05 192.554 2572.05 196.616V215.637C2572.05 218.711 2571.66 221.126 2570.9 222.883C2570.13 224.585 2568.92 225.792 2567.27 226.506C2565.63 227.22 2563.48 227.576 2560.85 227.576ZM2560.85 224.365C2563.05 224.365 2564.61 223.816 2565.54 222.718C2566.48 221.62 2566.94 219.617 2566.94 216.707V196.369C2566.94 193.679 2566.5 191.758 2565.63 190.605C2564.75 189.398 2563.16 188.794 2560.85 188.794C2558.71 188.794 2557.14 189.37 2556.16 190.523C2555.22 191.621 2554.76 193.569 2554.76 196.369V216.707C2554.76 219.562 2555.22 221.565 2556.16 222.718C2557.14 223.816 2558.71 224.365 2560.85 224.365ZM2588.64 227.659C2585.79 227.659 2583.67 227.165 2582.3 226.177C2580.93 225.134 2580.05 223.789 2579.67 222.142C2579.28 220.495 2579.09 218.738 2579.09 216.872V186.241H2584.2V216.213C2584.2 217.421 2584.25 218.629 2584.36 219.836C2584.53 220.989 2585.05 221.95 2585.93 222.718C2586.8 223.432 2588.26 223.789 2590.29 223.789C2591.72 223.789 2592.84 223.542 2593.67 223.048C2594.49 222.554 2595.12 221.977 2595.56 221.318C2596 220.605 2596.27 219.974 2596.38 219.425V186.241H2601.49V227H2597.12L2596.71 222.554C2596.27 223.871 2595.37 225.051 2593.99 226.094C2592.68 227.137 2590.89 227.659 2588.64 227.659ZM2620.1 227.576C2617.14 227.576 2614.84 227.22 2613.19 226.506C2611.54 225.737 2610.39 224.557 2609.73 222.965C2609.07 221.318 2608.74 219.15 2608.74 216.46V212.92H2613.93V217.613C2613.93 220.193 2614.37 221.977 2615.25 222.965C2616.13 223.953 2617.72 224.447 2620.02 224.447C2622.05 224.447 2623.54 223.953 2624.47 222.965C2625.46 221.977 2625.95 220.303 2625.95 217.942V215.637C2625.95 214.374 2625.76 213.304 2625.37 212.426C2624.99 211.492 2624.25 210.642 2623.15 209.873C2622.11 209.105 2620.63 208.336 2618.71 207.567C2616.89 206.854 2615.3 206.085 2613.93 205.262C2612.56 204.439 2611.46 203.396 2610.64 202.133C2609.87 200.87 2609.48 199.251 2609.48 197.275V194.805C2609.48 191.895 2610.31 189.645 2611.95 188.053C2613.65 186.406 2616.51 185.582 2620.52 185.582C2623.15 185.582 2625.24 185.939 2626.77 186.653C2628.37 187.366 2629.52 188.519 2630.23 190.111C2631 191.703 2631.39 193.762 2631.39 196.287V199.745H2626.36V195.793C2626.36 193.048 2625.9 191.182 2624.96 190.194C2624.03 189.151 2622.55 188.629 2620.52 188.629C2618.21 188.629 2616.65 189.178 2615.82 190.276C2615.05 191.374 2614.67 192.746 2614.67 194.393V196.616C2614.67 198.153 2615 199.416 2615.66 200.404C2616.37 201.392 2617.36 202.215 2618.62 202.874C2619.89 203.533 2621.39 204.219 2623.15 204.933C2624.74 205.591 2626.14 206.305 2627.35 207.073C2628.61 207.787 2629.6 208.775 2630.32 210.038C2631.03 211.3 2631.39 213.029 2631.39 215.225V217.119C2631.39 219.315 2631.03 221.209 2630.32 222.801C2629.66 224.338 2628.5 225.518 2626.86 226.341C2625.21 227.165 2622.96 227.576 2620.1 227.576ZM2644.53 214.566V204.521C2645.36 204.466 2646.18 204.411 2647 204.356C2647.83 204.301 2648.62 204.219 2649.39 204.109C2650.49 203.944 2651.62 203.533 2652.77 202.874C2653.92 202.215 2654.88 201.255 2655.65 199.992C2656.47 198.675 2656.88 197 2656.88 194.969V190.605C2656.88 187.97 2656.31 185.884 2655.16 184.347C2654 182.755 2652.16 181.959 2649.64 181.959C2647.33 181.959 2645.66 182.673 2644.62 184.1C2643.57 185.473 2643.05 187.421 2643.05 189.946V193.569H2637.86V189.617C2637.86 181.932 2641.82 178.089 2649.72 178.089C2652.69 178.089 2655.07 178.529 2656.88 179.407C2658.75 180.23 2660.1 181.575 2660.92 183.442C2661.74 185.253 2662.15 187.641 2662.15 190.605V194.805C2662.15 197.275 2661.63 199.388 2660.59 201.145C2659.55 202.847 2658.28 204.137 2656.8 205.015C2655.38 205.893 2653.92 206.442 2652.44 206.662C2651.89 206.662 2651.34 206.689 2650.79 206.744C2650.24 206.744 2649.67 206.744 2649.06 206.744V214.566H2644.53ZM2646.67 227.412C2645.8 227.412 2645.06 227.137 2644.45 226.588C2643.9 225.984 2643.63 225.271 2643.63 224.447C2643.63 223.569 2643.9 222.855 2644.45 222.307C2645.06 221.703 2645.8 221.401 2646.67 221.401C2647.55 221.401 2648.32 221.703 2648.98 222.307C2649.64 222.855 2649.97 223.569 2649.97 224.447C2649.97 225.271 2649.64 225.984 2648.98 226.588C2648.32 227.137 2647.55 227.412 2646.67 227.412ZM476.305 326L468.647 277.336H473.834L480.01 318.836L487.503 277.336H491.702L499.031 318.754L505.289 277.336H510.558L502.818 326H496.89L489.644 289.029L482.398 326H476.305ZM516.555 326V274.125H521.413V288.617C522.072 287.355 523.06 286.366 524.378 285.653C525.695 284.884 527.369 284.5 529.4 284.5C532.31 284.5 534.423 285.022 535.741 286.065C537.113 287.053 537.991 288.37 538.376 290.017C538.76 291.609 538.952 293.365 538.952 295.287V326H533.847V296.028C533.847 295.204 533.819 294.354 533.765 293.475C533.71 292.542 533.49 291.691 533.106 290.923C532.776 290.154 532.2 289.523 531.377 289.029C530.553 288.48 529.346 288.205 527.754 288.205C526.326 288.205 525.146 288.452 524.213 288.946C523.335 289.386 522.676 289.907 522.237 290.511C521.853 291.115 521.66 291.636 521.66 292.075V326H516.555ZM547.031 326V285.241H552.054V326H547.031ZM549.584 280.218C548.76 280.218 548.047 279.944 547.443 279.395C546.894 278.791 546.619 278.105 546.619 277.336C546.619 276.513 546.894 275.854 547.443 275.36C548.047 274.811 548.76 274.537 549.584 274.537C550.352 274.537 551.038 274.811 551.642 275.36C552.246 275.854 552.548 276.513 552.548 277.336C552.548 278.105 552.246 278.791 551.642 279.395C551.038 279.944 550.352 280.218 549.584 280.218ZM571.239 326.741C568.549 326.741 566.353 326.439 564.651 325.835C562.95 325.177 561.715 324.024 560.946 322.377C560.178 320.675 559.793 318.205 559.793 314.966V294.875C559.793 290.868 560.644 288.151 562.346 286.723C564.103 285.241 566.984 284.5 570.992 284.5C574.889 284.5 577.689 285.214 579.391 286.641C581.147 288.068 582.025 290.703 582.025 294.546V299.898H576.92V294.381C576.92 292.021 576.536 290.319 575.768 289.276C574.999 288.178 573.407 287.629 570.992 287.629C568.576 287.629 566.957 288.178 566.134 289.276C565.31 290.319 564.898 292.021 564.898 294.381V316.284C564.898 318.919 565.31 320.785 566.134 321.883C566.957 322.926 568.631 323.447 571.156 323.447C573.462 323.447 574.999 322.926 575.768 321.883C576.536 320.84 576.92 318.974 576.92 316.284V310.767H582.025V314.966C582.025 318.095 581.641 320.511 580.873 322.212C580.104 323.914 578.924 325.094 577.332 325.753C575.74 326.412 573.709 326.741 571.239 326.741ZM589.327 326V274.125H594.186V288.617C594.844 287.355 595.832 286.366 597.15 285.653C598.467 284.884 600.142 284.5 602.173 284.5C605.082 284.5 607.195 285.022 608.513 286.065C609.885 287.053 610.764 288.37 611.148 290.017C611.532 291.609 611.724 293.365 611.724 295.287V326H606.619V296.028C606.619 295.204 606.592 294.354 606.537 293.475C606.482 292.542 606.262 291.691 605.878 290.923C605.549 290.154 604.972 289.523 604.149 289.029C603.325 288.48 602.118 288.205 600.526 288.205C599.099 288.205 597.918 288.452 596.985 288.946C596.107 289.386 595.448 289.907 595.009 290.511C594.625 291.115 594.433 291.636 594.433 292.075V326H589.327ZM642.412 326.576C641.149 326.576 639.859 326.384 638.542 326C637.279 325.671 636.181 324.875 635.248 323.612C634.37 322.295 633.931 320.264 633.931 317.519V313.566C633.931 310.822 634.754 308.626 636.401 306.979C638.103 305.277 640.408 303.768 643.318 302.45C645.184 301.517 646.693 300.694 647.846 299.98C649.054 299.267 649.96 298.471 650.564 297.592C651.167 296.714 651.469 295.534 651.469 294.052V292.322C651.469 291.005 651.195 289.989 650.646 289.276C650.097 288.562 649.356 288.068 648.423 287.794C647.544 287.519 646.611 287.382 645.623 287.382C643.153 287.382 641.533 288.068 640.765 289.441C639.996 290.758 639.612 292.734 639.612 295.369V298.827H634.919V294.875C634.919 292.844 635.193 291.06 635.742 289.523C636.291 287.931 637.334 286.696 638.871 285.818C640.408 284.884 642.659 284.418 645.623 284.418C648.752 284.418 651.085 284.775 652.622 285.488C654.214 286.202 655.257 287.217 655.751 288.535C656.3 289.852 656.574 291.417 656.574 293.228V326H651.552L651.469 320.895C650.811 322.761 649.63 324.188 647.929 325.177C646.227 326.11 644.388 326.576 642.412 326.576ZM644.306 323.118C646.776 323.118 648.56 322.24 649.658 320.483C650.811 318.727 651.387 316.394 651.387 313.484V300.474C650.838 301.353 649.932 302.149 648.67 302.862C647.407 303.576 646.117 304.289 644.8 305.003C642.933 306.101 641.479 307.254 640.436 308.461C639.447 309.614 638.953 311.233 638.953 313.319V316.531C638.953 318.507 639.228 319.962 639.777 320.895C640.326 321.828 641.012 322.432 641.835 322.706C642.659 322.981 643.482 323.118 644.306 323.118ZM664.592 335.552V285.241H669.368L669.533 288.864C670.027 287.711 670.823 286.723 671.921 285.9C673.019 285.076 674.83 284.665 677.355 284.665C679.935 284.665 681.911 285.104 683.284 285.982C684.656 286.861 685.617 288.068 686.166 289.605C686.715 291.142 686.989 292.926 686.989 294.957V315.049C686.989 317.299 686.742 319.303 686.248 321.06C685.754 322.816 684.821 324.188 683.449 325.177C682.076 326.11 680.045 326.576 677.355 326.576C675.269 326.576 673.595 326.247 672.332 325.588C671.125 324.93 670.219 324.106 669.615 323.118V335.552H664.592ZM675.791 323.447C677.328 323.447 678.508 323.228 679.331 322.789C680.155 322.35 680.759 321.773 681.143 321.06C681.527 320.291 681.747 319.468 681.802 318.589C681.857 317.656 681.884 316.668 681.884 315.625V295.781C681.884 294.738 681.857 293.777 681.802 292.899C681.747 291.966 681.527 291.115 681.143 290.346C680.759 289.578 680.155 288.974 679.331 288.535C678.508 288.096 677.328 287.876 675.791 287.876C674.254 287.876 673.074 288.151 672.25 288.699C671.427 289.248 670.823 289.989 670.439 290.923C670.054 291.801 669.835 292.762 669.78 293.805C669.725 294.848 669.698 295.836 669.698 296.769V316.201C669.698 317.519 669.807 318.754 670.027 319.907C670.301 321.005 670.85 321.883 671.674 322.542C672.552 323.146 673.924 323.447 675.791 323.447ZM694.666 335.552V285.241H699.442L699.607 288.864C700.101 287.711 700.897 286.723 701.995 285.9C703.092 285.076 704.904 284.665 707.429 284.665C710.009 284.665 711.985 285.104 713.358 285.982C714.73 286.861 715.691 288.068 716.24 289.605C716.789 291.142 717.063 292.926 717.063 294.957V315.049C717.063 317.299 716.816 319.303 716.322 321.06C715.828 322.816 714.895 324.188 713.522 325.177C712.15 326.11 710.119 326.576 707.429 326.576C705.343 326.576 703.669 326.247 702.406 325.588C701.199 324.93 700.293 324.106 699.689 323.118V335.552H694.666ZM705.865 323.447C707.402 323.447 708.582 323.228 709.405 322.789C710.229 322.35 710.833 321.773 711.217 321.06C711.601 320.291 711.821 319.468 711.876 318.589C711.93 317.656 711.958 316.668 711.958 315.625V295.781C711.958 294.738 711.93 293.777 711.876 292.899C711.821 291.966 711.601 291.115 711.217 290.346C710.833 289.578 710.229 288.974 709.405 288.535C708.582 288.096 707.402 287.876 705.865 287.876C704.328 287.876 703.147 288.151 702.324 288.699C701.501 289.248 700.897 289.989 700.512 290.923C700.128 291.801 699.909 292.762 699.854 293.805C699.799 294.848 699.771 295.836 699.771 296.769V316.201C699.771 317.519 699.881 318.754 700.101 319.907C700.375 321.005 700.924 321.883 701.748 322.542C702.626 323.146 703.998 323.447 705.865 323.447ZM735.28 326.741C732.535 326.741 730.312 326.439 728.61 325.835C726.908 325.177 725.673 323.996 724.905 322.295C724.136 320.593 723.752 318.123 723.752 314.884V294.546C723.752 290.703 724.603 288.068 726.305 286.641C728.061 285.214 730.943 284.5 734.95 284.5C738.848 284.5 741.647 285.214 743.349 286.641C745.106 288.068 745.984 290.703 745.984 294.546V305.085H728.857V316.613C728.857 319.248 729.269 321.087 730.092 322.13C730.916 323.118 732.59 323.612 735.115 323.612C737.421 323.612 738.958 323.118 739.726 322.13C740.495 321.142 740.879 319.303 740.879 316.613V311.343H745.984V314.802C745.984 317.985 745.6 320.456 744.831 322.212C744.063 323.914 742.883 325.094 741.291 325.753C739.754 326.412 737.75 326.741 735.28 326.741ZM728.857 302.45H740.879V294.381C740.879 292.075 740.495 290.401 739.726 289.358C738.958 288.315 737.366 287.794 734.95 287.794C732.535 287.794 730.916 288.315 730.092 289.358C729.269 290.401 728.857 292.075 728.857 294.381V302.45ZM760.697 326.576C759.434 326.576 758.144 326.384 756.827 326C755.564 325.671 754.466 324.875 753.533 323.612C752.655 322.295 752.216 320.264 752.216 317.519V313.566C752.216 310.822 753.039 308.626 754.686 306.979C756.388 305.277 758.693 303.768 761.603 302.45C763.469 301.517 764.978 300.694 766.131 299.98C767.339 299.267 768.245 298.471 768.849 297.592C769.452 296.714 769.754 295.534 769.754 294.052V292.322C769.754 291.005 769.48 289.989 768.931 289.276C768.382 288.562 767.641 288.068 766.708 287.794C765.829 287.519 764.896 287.382 763.908 287.382C761.438 287.382 759.818 288.068 759.05 289.441C758.281 290.758 757.897 292.734 757.897 295.369V298.827H753.204V294.875C753.204 292.844 753.478 291.06 754.027 289.523C754.576 287.931 755.619 286.696 757.156 285.818C758.693 284.884 760.944 284.418 763.908 284.418C767.037 284.418 769.37 284.775 770.907 285.488C772.499 286.202 773.542 287.217 774.036 288.535C774.585 289.852 774.859 291.417 774.859 293.228V326H769.837L769.754 320.895C769.096 322.761 767.915 324.188 766.214 325.177C764.512 326.11 762.673 326.576 760.697 326.576ZM762.591 323.118C765.061 323.118 766.845 322.24 767.943 320.483C769.096 318.727 769.672 316.394 769.672 313.484V300.474C769.123 301.353 768.217 302.149 766.955 302.862C765.692 303.576 764.402 304.289 763.085 305.003C761.218 306.101 759.764 307.254 758.721 308.461C757.732 309.614 757.238 311.233 757.238 313.319V316.531C757.238 318.507 757.513 319.962 758.062 320.895C758.611 321.828 759.297 322.432 760.12 322.706C760.944 322.981 761.767 323.118 762.591 323.118ZM782.877 326V285.241H787.159L787.736 289.605C788.339 288.068 789.327 286.97 790.7 286.312C792.072 285.653 793.445 285.241 794.817 285.076C796.354 284.747 797.836 284.72 799.263 284.994V289.029C799.044 288.974 798.659 288.919 798.111 288.864C797.562 288.809 796.958 288.782 796.299 288.782C795.695 288.782 795.119 288.892 794.57 289.111C792.703 289.331 791.139 290.017 789.876 291.17C788.614 292.268 787.983 293.777 787.983 295.698V326H782.877ZM827.712 326.082C826.504 326.082 825.407 325.945 824.419 325.671C823.43 325.396 822.58 324.957 821.866 324.353C821.152 323.694 820.603 322.871 820.219 321.883C819.835 320.84 819.643 319.55 819.643 318.013V288.452H816.02V285.818L819.972 285.241L820.878 277.583H824.748V285.241H833.558V288.452H824.748V317.107C824.748 318.644 825.022 319.934 825.571 320.977C826.12 322.02 827.328 322.542 829.194 322.542C829.963 322.542 830.786 322.514 831.665 322.459C832.543 322.35 833.174 322.295 833.558 322.295V325.588C833.119 325.588 832.351 325.671 831.253 325.835C830.155 326 828.975 326.082 827.712 326.082ZM848.974 326.576C846.448 326.576 844.335 326.247 842.633 325.588C840.986 324.875 839.751 323.64 838.928 321.883C838.159 320.126 837.775 317.711 837.775 314.637V295.616C837.775 291.664 838.626 288.837 840.328 287.135C842.084 285.433 844.966 284.582 848.974 284.582C852.981 284.582 855.835 285.406 857.537 287.053C859.294 288.699 860.172 291.554 860.172 295.616V314.637C860.172 317.711 859.788 320.126 859.019 321.883C858.251 323.585 857.043 324.792 855.396 325.506C853.749 326.22 851.608 326.576 848.974 326.576ZM848.974 323.365C851.169 323.365 852.734 322.816 853.667 321.718C854.6 320.62 855.067 318.617 855.067 315.707V295.369C855.067 292.679 854.628 290.758 853.749 289.605C852.871 288.398 851.279 287.794 848.974 287.794C846.833 287.794 845.268 288.37 844.28 289.523C843.347 290.621 842.88 292.569 842.88 295.369V315.707C842.88 318.562 843.347 320.565 844.28 321.718C845.268 322.816 846.833 323.365 848.974 323.365ZM895.094 326.576C892.514 326.576 890.592 326.137 889.33 325.259C888.122 324.326 887.299 323.31 886.859 322.212L886.612 326H882.989V274.125H888.012V288.617C888.671 287.245 889.632 286.229 890.894 285.57C892.212 284.857 893.858 284.5 895.835 284.5C897.921 284.5 899.677 284.829 901.105 285.488C902.532 286.147 903.602 287.217 904.316 288.699C905.029 290.182 905.386 292.24 905.386 294.875V315.049C905.386 317.299 905.167 319.166 904.728 320.648C904.343 322.13 903.739 323.31 902.916 324.188C902.093 325.067 901.022 325.671 899.705 326C898.442 326.384 896.905 326.576 895.094 326.576ZM894.188 322.953C895.725 322.953 896.933 322.734 897.811 322.295C898.689 321.855 899.32 321.114 899.705 320.071C900.089 318.974 900.281 317.464 900.281 315.543V295.04C900.281 292.295 899.814 290.429 898.881 289.441C898.003 288.452 896.439 287.958 894.188 287.958C891.882 287.958 890.29 288.535 889.412 289.688C888.534 290.84 888.095 292.515 888.095 294.71V315.049C888.095 317.848 888.561 319.879 889.494 321.142C890.482 322.35 892.047 322.953 894.188 322.953ZM923.603 326.741C920.858 326.741 918.635 326.439 916.933 325.835C915.232 325.177 913.996 323.996 913.228 322.295C912.459 320.593 912.075 318.123 912.075 314.884V294.546C912.075 290.703 912.926 288.068 914.628 286.641C916.384 285.214 919.266 284.5 923.274 284.5C927.171 284.5 929.971 285.214 931.672 286.641C933.429 288.068 934.307 290.703 934.307 294.546V305.085H917.18V316.613C917.18 319.248 917.592 321.087 918.415 322.13C919.239 323.118 920.913 323.612 923.438 323.612C925.744 323.612 927.281 323.118 928.049 322.13C928.818 321.142 929.202 319.303 929.202 316.613V311.343H934.307V314.802C934.307 317.985 933.923 320.456 933.155 322.212C932.386 323.914 931.206 325.094 929.614 325.753C928.077 326.412 926.073 326.741 923.603 326.741ZM917.18 302.45H929.202V294.381C929.202 292.075 928.818 290.401 928.049 289.358C927.281 288.315 925.689 287.794 923.274 287.794C920.858 287.794 919.239 288.315 918.415 289.358C917.592 290.401 917.18 292.075 917.18 294.381V302.45ZM966.688 326.576C963.724 326.576 961.418 326.22 959.771 325.506C958.124 324.737 956.972 323.557 956.313 321.965C955.654 320.318 955.325 318.15 955.325 315.46V311.92H960.512V316.613C960.512 319.193 960.952 320.977 961.83 321.965C962.708 322.953 964.3 323.447 966.606 323.447C968.637 323.447 970.119 322.953 971.052 321.965C972.04 320.977 972.534 319.303 972.534 316.942V314.637C972.534 313.374 972.342 312.304 971.958 311.426C971.574 310.492 970.832 309.642 969.735 308.873C968.692 308.105 967.209 307.336 965.288 306.567C963.477 305.854 961.885 305.085 960.512 304.262C959.14 303.439 958.042 302.396 957.219 301.133C956.45 299.87 956.066 298.251 956.066 296.275V293.805C956.066 290.895 956.889 288.645 958.536 287.053C960.238 285.406 963.092 284.582 967.1 284.582C969.735 284.582 971.821 284.939 973.358 285.653C974.95 286.366 976.102 287.519 976.816 289.111C977.584 290.703 977.969 292.762 977.969 295.287V298.745H972.946V294.793C972.946 292.048 972.479 290.182 971.546 289.194C970.613 288.151 969.131 287.629 967.1 287.629C964.794 287.629 963.23 288.178 962.406 289.276C961.638 290.374 961.253 291.746 961.253 293.393V295.616C961.253 297.153 961.583 298.416 962.242 299.404C962.955 300.392 963.943 301.215 965.206 301.874C966.468 302.533 967.978 303.219 969.735 303.933C971.327 304.591 972.726 305.305 973.934 306.073C975.197 306.787 976.185 307.775 976.898 309.038C977.612 310.3 977.969 312.029 977.969 314.225V316.119C977.969 318.315 977.612 320.209 976.898 321.801C976.24 323.338 975.087 324.518 973.44 325.341C971.793 326.165 969.542 326.576 966.688 326.576ZM994.164 326.082C992.956 326.082 991.858 325.945 990.87 325.671C989.882 325.396 989.031 324.957 988.317 324.353C987.604 323.694 987.055 322.871 986.67 321.883C986.286 320.84 986.094 319.55 986.094 318.013V288.452H982.471V285.818L986.423 285.241L987.329 277.583H991.199V285.241H1000.01V288.452H991.199V317.107C991.199 318.644 991.474 319.934 992.023 320.977C992.572 322.02 993.779 322.542 995.646 322.542C996.414 322.542 997.238 322.514 998.116 322.459C998.994 322.35 999.626 322.295 1000.01 322.295V325.588C999.571 325.588 998.802 325.671 997.704 325.835C996.606 326 995.426 326.082 994.164 326.082ZM1005.29 326V285.241H1009.58L1010.15 289.605C1010.76 288.068 1011.75 286.97 1013.12 286.312C1014.49 285.653 1015.86 285.241 1017.23 285.076C1018.77 284.747 1020.25 284.72 1021.68 284.994V289.029C1021.46 288.974 1021.08 288.919 1020.53 288.864C1019.98 288.809 1019.38 288.782 1018.72 288.782C1018.11 288.782 1017.54 288.892 1016.99 289.111C1015.12 289.331 1013.56 290.017 1012.29 291.17C1011.03 292.268 1010.4 293.777 1010.4 295.698V326H1005.29ZM1035.1 326.659C1032.24 326.659 1030.13 326.165 1028.76 325.177C1027.38 324.134 1026.51 322.789 1026.12 321.142C1025.74 319.495 1025.55 317.738 1025.55 315.872V285.241H1030.65V315.213C1030.65 316.421 1030.71 317.629 1030.81 318.836C1030.98 319.989 1031.5 320.95 1032.38 321.718C1033.26 322.432 1034.71 322.789 1036.74 322.789C1038.17 322.789 1039.3 322.542 1040.12 322.048C1040.94 321.554 1041.57 320.977 1042.01 320.318C1042.45 319.605 1042.73 318.974 1042.84 318.425V285.241H1047.94V326H1043.58L1043.17 321.554C1042.73 322.871 1041.82 324.051 1040.45 325.094C1039.13 326.137 1037.35 326.659 1035.1 326.659ZM1066.06 335.634C1065.46 335.634 1064.75 335.606 1063.92 335.552C1063.1 335.497 1062.28 335.442 1061.45 335.387C1060.69 335.332 1060 335.25 1059.4 335.14C1058.85 335.085 1058.49 335.03 1058.32 334.975V332.011C1058.98 332.066 1059.92 332.176 1061.12 332.34C1062.39 332.505 1063.51 332.587 1064.5 332.587C1065.27 332.587 1066.12 332.532 1067.05 332.423C1067.99 332.313 1068.89 332.011 1069.77 331.517C1070.7 331.023 1071.44 330.199 1071.99 329.047C1072.6 327.894 1072.9 326.302 1072.9 324.271V318.672C1072.57 319.715 1072.05 320.648 1071.33 321.471C1070.68 322.295 1069.8 322.953 1068.7 323.447C1067.6 323.887 1066.26 324.106 1064.66 324.106C1063.62 324.106 1062.55 323.996 1061.45 323.777C1060.41 323.557 1059.45 323.118 1058.57 322.459C1057.69 321.746 1056.98 320.675 1056.43 319.248C1055.94 317.766 1055.69 315.79 1055.69 313.319V294.628C1055.69 291.005 1056.4 288.398 1057.83 286.806C1059.26 285.214 1061.56 284.418 1064.75 284.418C1066.17 284.418 1067.46 284.61 1068.62 284.994C1069.82 285.378 1070.84 285.955 1071.66 286.723C1072.49 287.492 1073.12 288.452 1073.56 289.605H1072.65L1073.48 285.241H1077.92V322.542C1077.92 324.683 1077.65 326.549 1077.1 328.141C1076.6 329.788 1075.86 331.16 1074.88 332.258C1073.89 333.411 1072.65 334.262 1071.17 334.811C1069.69 335.359 1067.99 335.634 1066.06 335.634ZM1066.48 320.813C1068.29 320.813 1069.63 320.373 1070.51 319.495C1071.44 318.562 1072.05 317.409 1072.32 316.037C1072.65 314.609 1072.82 313.182 1072.82 311.755V291.828C1072.65 291.334 1072.32 290.785 1071.83 290.182C1071.39 289.578 1070.73 289.056 1069.85 288.617C1069.03 288.178 1067.9 287.958 1066.48 287.958C1064.45 287.958 1062.99 288.452 1062.11 289.441C1061.23 290.429 1060.79 292.24 1060.79 294.875V314.555C1060.79 315.982 1060.99 317.135 1061.37 318.013C1061.76 318.891 1062.25 319.522 1062.85 319.907C1063.51 320.291 1064.17 320.538 1064.83 320.648C1065.49 320.758 1066.04 320.813 1066.48 320.813ZM1095.5 335.634C1094.89 335.634 1094.18 335.606 1093.35 335.552C1092.53 335.497 1091.71 335.442 1090.88 335.387C1090.12 335.332 1089.43 335.25 1088.83 335.14C1088.28 335.085 1087.92 335.03 1087.76 334.975V332.011C1088.41 332.066 1089.35 332.176 1090.55 332.34C1091.82 332.505 1092.94 332.587 1093.93 332.587C1094.7 332.587 1095.55 332.532 1096.48 332.423C1097.42 332.313 1098.32 332.011 1099.2 331.517C1100.13 331.023 1100.87 330.199 1101.42 329.047C1102.03 327.894 1102.33 326.302 1102.33 324.271V318.672C1102 319.715 1101.48 320.648 1100.77 321.471C1100.11 322.295 1099.23 322.953 1098.13 323.447C1097.03 323.887 1095.69 324.106 1094.1 324.106C1093.05 324.106 1091.98 323.996 1090.88 323.777C1089.84 323.557 1088.88 323.118 1088 322.459C1087.12 321.746 1086.41 320.675 1085.86 319.248C1085.37 317.766 1085.12 315.79 1085.12 313.319V294.628C1085.12 291.005 1085.83 288.398 1087.26 286.806C1088.69 285.214 1090.99 284.418 1094.18 284.418C1095.61 284.418 1096.9 284.61 1098.05 284.994C1099.26 285.378 1100.27 285.955 1101.09 286.723C1101.92 287.492 1102.55 288.452 1102.99 289.605H1102.08L1102.91 285.241H1107.35V322.542C1107.35 324.683 1107.08 326.549 1106.53 328.141C1106.03 329.788 1105.29 331.16 1104.31 332.258C1103.32 333.411 1102.08 334.262 1100.6 334.811C1099.12 335.359 1097.42 335.634 1095.5 335.634ZM1095.91 320.813C1097.72 320.813 1099.06 320.373 1099.94 319.495C1100.87 318.562 1101.48 317.409 1101.75 316.037C1102.08 314.609 1102.25 313.182 1102.25 311.755V291.828C1102.08 291.334 1101.75 290.785 1101.26 290.182C1100.82 289.578 1100.16 289.056 1099.28 288.617C1098.46 288.178 1097.33 287.958 1095.91 287.958C1093.88 287.958 1092.42 288.452 1091.54 289.441C1090.66 290.429 1090.23 292.24 1090.23 294.875V314.555C1090.23 315.982 1090.42 317.135 1090.8 318.013C1091.19 318.891 1091.68 319.522 1092.28 319.907C1092.94 320.291 1093.6 320.538 1094.26 320.648C1094.92 320.758 1095.47 320.813 1095.91 320.813ZM1115.54 326V273.796H1120.56V326H1115.54ZM1129.29 326V285.241H1134.31V326H1129.29ZM1131.84 280.218C1131.02 280.218 1130.3 279.944 1129.7 279.395C1129.15 278.791 1128.88 278.105 1128.88 277.336C1128.88 276.513 1129.15 275.854 1129.7 275.36C1130.3 274.811 1131.02 274.537 1131.84 274.537C1132.61 274.537 1133.3 274.811 1133.9 275.36C1134.5 275.854 1134.81 276.513 1134.81 277.336C1134.81 278.105 1134.5 278.791 1133.9 279.395C1133.3 279.944 1132.61 280.218 1131.84 280.218ZM1143.04 326V285.241H1147.24L1147.9 289.605C1148.34 287.958 1149.35 286.696 1150.94 285.818C1152.54 284.939 1154.18 284.5 1155.88 284.5C1158.79 284.5 1160.91 285.022 1162.23 286.065C1163.6 287.053 1164.48 288.37 1164.86 290.017C1165.24 291.609 1165.44 293.365 1165.44 295.287V326H1160.33V296.028C1160.33 295.04 1160.3 294.079 1160.25 293.146C1160.19 292.213 1159.97 291.389 1159.59 290.676C1159.26 289.907 1158.68 289.303 1157.86 288.864C1157.04 288.425 1155.83 288.205 1154.24 288.205C1152.87 288.205 1151.74 288.48 1150.86 289.029C1150.04 289.523 1149.41 290.127 1148.97 290.84C1148.58 291.499 1148.31 292.13 1148.14 292.734V326H1143.04ZM1182.9 335.634C1182.3 335.634 1181.58 335.606 1180.76 335.552C1179.94 335.497 1179.11 335.442 1178.29 335.387C1177.52 335.332 1176.84 335.25 1176.23 335.14C1175.68 335.085 1175.33 335.03 1175.16 334.975V332.011C1175.82 332.066 1176.75 332.176 1177.96 332.34C1179.22 332.505 1180.35 332.587 1181.34 332.587C1182.11 332.587 1182.96 332.532 1183.89 332.423C1184.82 332.313 1185.73 332.011 1186.61 331.517C1187.54 331.023 1188.28 330.199 1188.83 329.047C1189.43 327.894 1189.74 326.302 1189.74 324.271V318.672C1189.41 319.715 1188.89 320.648 1188.17 321.471C1187.51 322.295 1186.64 322.953 1185.54 323.447C1184.44 323.887 1183.09 324.106 1181.5 324.106C1180.46 324.106 1179.39 323.996 1178.29 323.777C1177.25 323.557 1176.29 323.118 1175.41 322.459C1174.53 321.746 1173.82 320.675 1173.27 319.248C1172.77 317.766 1172.53 315.79 1172.53 313.319V294.628C1172.53 291.005 1173.24 288.398 1174.67 286.806C1176.1 285.214 1178.4 284.418 1181.58 284.418C1183.01 284.418 1184.3 284.61 1185.45 284.994C1186.66 285.378 1187.68 285.955 1188.5 286.723C1189.32 287.492 1189.96 288.452 1190.4 289.605H1189.49L1190.31 285.241H1194.76V322.542C1194.76 324.683 1194.48 326.549 1193.94 328.141C1193.44 329.788 1192.7 331.16 1191.71 332.258C1190.72 333.411 1189.49 334.262 1188.01 334.811C1186.53 335.359 1184.82 335.634 1182.9 335.634ZM1183.31 320.813C1185.13 320.813 1186.47 320.373 1187.35 319.495C1188.28 318.562 1188.89 317.409 1189.16 316.037C1189.49 314.609 1189.65 313.182 1189.65 311.755V291.828C1189.49 291.334 1189.16 290.785 1188.67 290.182C1188.23 289.578 1187.57 289.056 1186.69 288.617C1185.87 288.178 1184.74 287.958 1183.31 287.958C1181.28 287.958 1179.83 288.452 1178.95 289.441C1178.07 290.429 1177.63 292.24 1177.63 294.875V314.555C1177.63 315.982 1177.82 317.135 1178.21 318.013C1178.59 318.891 1179.09 319.522 1179.69 319.907C1180.35 320.291 1181.01 320.538 1181.67 320.648C1182.33 320.758 1182.87 320.813 1183.31 320.813ZM1208.71 313.566V303.521C1209.53 303.466 1210.36 303.411 1211.18 303.356C1212 303.301 1212.8 303.219 1213.57 303.109C1214.67 302.944 1215.79 302.533 1216.94 301.874C1218.1 301.215 1219.06 300.255 1219.83 298.992C1220.65 297.675 1221.06 296 1221.06 293.969V289.605C1221.06 286.97 1220.48 284.884 1219.33 283.347C1218.18 281.755 1216.34 280.959 1213.82 280.959C1211.51 280.959 1209.84 281.673 1208.79 283.1C1207.75 284.473 1207.23 286.421 1207.23 288.946V292.569H1202.04V288.617C1202.04 280.932 1205.99 277.089 1213.9 277.089C1216.86 277.089 1219.25 277.529 1221.06 278.407C1222.93 279.23 1224.27 280.575 1225.1 282.442C1225.92 284.253 1226.33 286.641 1226.33 289.605V293.805C1226.33 296.275 1225.81 298.388 1224.77 300.145C1223.72 301.847 1222.46 303.137 1220.98 304.015C1219.55 304.893 1218.1 305.442 1216.61 305.662C1216.07 305.662 1215.52 305.689 1214.97 305.744C1214.42 305.744 1213.84 305.744 1213.24 305.744V313.566H1208.71ZM1210.85 326.412C1209.97 326.412 1209.23 326.137 1208.63 325.588C1208.08 324.984 1207.8 324.271 1207.8 323.447C1207.8 322.569 1208.08 321.855 1208.63 321.307C1209.23 320.703 1209.97 320.401 1210.85 320.401C1211.73 320.401 1212.5 320.703 1213.16 321.307C1213.82 321.855 1214.14 322.569 1214.14 323.447C1214.14 324.271 1213.82 324.984 1213.16 325.588C1212.5 326.137 1211.73 326.412 1210.85 326.412Z" fill="#485578"/>
<mask id="path-3-outside-1_93_11331" maskUnits="userSpaceOnUse" x="70.9204" y="-8.35168" width="309.069" height="313.656" fill="black">
<rect fill="white" x="70.9204" y="-8.35168" width="309.069" height="313.656"/>
<path d="M366.232 114.761C344.805 96.9755 319.516 84.4467 292.385 78.1759C265.254 71.905 237.032 72.0658 209.974 78.6455C182.916 85.2252 157.772 98.0414 136.549 116.07C115.327 134.099 98.615 156.841 87.7481 182.48L252.17 252.17L366.232 114.761Z"/>
</mask>
<path d="M366.232 114.761C344.805 96.9755 319.516 84.4467 292.385 78.1759C265.254 71.905 237.032 72.0658 209.974 78.6455C182.916 85.2252 157.772 98.0414 136.549 116.07C115.327 134.099 98.615 156.841 87.7481 182.48L252.17 252.17L366.232 114.761Z" fill="#FA863D"/>
<path d="M366.232 114.761C344.805 96.9755 319.516 84.4467 292.385 78.1759C265.254 71.905 237.032 72.0658 209.974 78.6455C182.916 85.2252 157.772 98.0414 136.549 116.07C115.327 134.099 98.615 156.841 87.7481 182.48L252.17 252.17L366.232 114.761Z" stroke="white" stroke-width="11.2873" mask="url(#path-3-outside-1_93_11331)"/>
<mask id="path-4-outside-2_93_11331" maskUnits="userSpaceOnUse" x="-1.02337" y="130.169" width="328.476" height="322.49" fill="black">
<rect fill="white" x="-1.02337" y="130.169" width="328.476" height="322.49"/>
<path d="M85.6284 187.71C76.3837 211.594 72.3847 237.188 73.9028 262.755C75.4208 288.321 82.4204 313.262 94.4265 335.885C106.433 358.508 123.164 378.284 143.487 393.871C163.809 409.458 187.246 420.491 212.208 426.222L252.17 252.17L85.6284 187.71Z"/>
</mask>
<path d="M85.6284 187.71C76.3837 211.594 72.3847 237.188 73.9028 262.755C75.4208 288.321 82.4204 313.262 94.4265 335.885C106.433 358.508 123.164 378.284 143.487 393.871C163.809 409.458 187.246 420.491 212.208 426.222L252.17 252.17L85.6284 187.71Z" fill="#57BFDC"/>
<path d="M85.6284 187.71C76.3837 211.594 72.3847 237.188 73.9028 262.755C75.4208 288.321 82.4204 313.262 94.4265 335.885C106.433 358.508 123.164 378.284 143.487 393.871C163.809 409.458 187.246 420.491 212.208 426.222L252.17 252.17L85.6284 187.71Z" stroke="white" stroke-width="11.2873" mask="url(#path-4-outside-2_93_11331)"/>
<mask id="path-5-outside-3_93_11331" maskUnits="userSpaceOnUse" x="132.095" y="231.034" width="253.662" height="253.273" fill="black">
<rect fill="white" x="132.095" y="231.034" width="253.662" height="253.273"/>
<path d="M216.591 427.171C249.569 433.876 283.771 431.125 315.254 419.237L252.17 252.17L216.591 427.171Z"/>
</mask>
<path d="M216.591 427.171C249.569 433.876 283.771 431.125 315.254 419.237L252.17 252.17L216.591 427.171Z" fill="#FED767"/>
<path d="M216.591 427.171C249.569 433.876 283.771 431.125 315.254 419.237L252.17 252.17L216.591 427.171Z" stroke="white" stroke-width="11.2873" mask="url(#path-5-outside-3_93_11331)"/>
<mask id="path-6-outside-4_93_11331" maskUnits="userSpaceOnUse" x="188.681" y="109.07" width="323.902" height="329.888" fill="black">
<rect fill="white" x="188.681" y="109.07" width="323.902" height="329.888"/>
<path d="M320.149 417.306C348.325 405.707 373.065 387.092 392.015 363.231C410.965 339.37 423.494 311.057 428.411 280.986C433.327 250.915 430.468 220.086 420.105 191.433C409.742 162.779 392.219 137.253 369.204 117.284L252.17 252.17L320.149 417.306Z"/>
</mask>
<path d="M320.149 417.306C348.325 405.707 373.065 387.092 392.015 363.231C410.965 339.37 423.494 311.057 428.411 280.986C433.327 250.915 430.468 220.086 420.105 191.433C409.742 162.779 392.219 137.253 369.204 117.284L252.17 252.17L320.149 417.306Z" fill="#475480"/>
<path d="M320.149 417.306C348.325 405.707 373.065 387.092 392.015 363.231C410.965 339.37 423.494 311.057 428.411 280.986C433.327 250.915 430.468 220.086 420.105 191.433C409.742 162.779 392.219 137.253 369.204 117.284L252.17 252.17L320.149 417.306Z" stroke="white" stroke-width="11.2873" mask="url(#path-6-outside-4_93_11331)"/>
<circle cx="252.17" cy="252.17" r="154.797" transform="rotate(-48.1512 252.17 252.17)" fill="white" stroke="white" stroke-width="5.64365"/>
<path d="M246.376 357.466L230.491 329.795C228.954 329.795 227.416 329.88 225.879 330.051C224.342 330.222 222.634 330.307 220.755 330.307C213.41 330.307 206.834 329.453 201.026 327.745C195.39 326.037 190.863 322.535 187.447 317.24C184.202 311.774 182.579 303.576 182.579 292.644V207.582C182.579 198.016 184.287 190.842 187.703 186.06C191.12 181.277 195.731 178.117 201.539 176.58C207.517 174.872 214.179 174.018 221.523 174.018C229.21 174.018 235.871 174.872 241.508 176.58C247.145 178.288 251.586 181.533 254.831 186.316C258.076 191.099 259.699 198.187 259.699 207.582V292.388C259.699 302.636 258.333 310.323 255.6 315.447C252.867 320.571 248.938 324.158 243.814 326.208L258.162 350.548L246.376 357.466ZM221.523 320.315C225.964 320.315 229.808 319.802 233.053 318.778C236.298 317.582 238.86 315.361 240.739 312.116C242.789 308.7 243.814 303.661 243.814 297V207.582C243.814 200.749 242.789 195.71 240.739 192.465C238.86 189.22 236.213 187.085 232.797 186.06C229.551 184.864 225.794 184.266 221.523 184.266C217.082 184.266 213.154 184.864 209.738 186.06C206.492 187.085 203.93 189.22 202.051 192.465C200.172 195.71 199.233 200.749 199.233 207.582V297C199.233 303.661 200.172 308.7 202.051 312.116C203.93 315.361 206.492 317.582 209.738 318.778C213.154 319.802 217.082 320.315 221.523 320.315ZM303.051 327.489V198.87H278.711V189.647L291.521 189.391C295.792 189.22 298.866 188.195 300.745 186.316C302.795 184.437 304.417 181.021 305.613 176.068H319.192V327.489H303.051Z" fill="#485578"/>
</svg>
