<svg width="3474" height="461" viewBox="0 0 3474 461" fill="none" xmlns="http://www.w3.org/2000/svg">
<path d="M215.454 201.561C214.545 186.88 214.502 168.655 214.5 144.5H3296C3321.91 144.5 3341.18 144.502 3356.56 145.454C3371.91 146.406 3383.16 148.295 3393.03 151.969C3425.43 164.024 3450.98 189.573 3463.03 221.966C3466.7 231.839 3468.59 243.085 3469.55 258.439C3470.46 273.12 3470.5 291.345 3470.5 315.5H389C363.092 315.5 343.821 315.498 328.439 314.546C313.085 313.594 301.839 311.705 291.966 308.031C259.573 295.976 234.024 270.427 221.969 238.034C218.295 228.161 216.406 216.915 215.454 201.561Z" stroke="#57BFDC" stroke-width="7"/>
<path d="M450.187 254V205.336H464.762C466.848 205.336 468.632 205.638 470.114 206.242C471.651 206.846 472.804 207.889 473.572 209.371C474.396 210.798 474.807 212.775 474.807 215.3V243.378C474.807 246.178 474.368 248.346 473.49 249.883C472.612 251.42 471.349 252.49 469.702 253.094C468.11 253.698 466.244 254 464.103 254H450.187ZM455.54 251.036H463.444C465.311 251.036 466.793 250.542 467.891 249.554C469.044 248.511 469.62 246.534 469.62 243.625V215.958C469.62 213.049 469.044 211.073 467.891 210.03C466.793 208.987 465.311 208.465 463.444 208.465H455.54V251.036ZM494.159 254.741C491.414 254.741 489.191 254.439 487.489 253.835C485.788 253.177 484.552 251.996 483.784 250.295C483.015 248.593 482.631 246.123 482.631 242.884V222.546C482.631 218.703 483.482 216.068 485.184 214.641C486.94 213.214 489.822 212.5 493.83 212.5C497.727 212.5 500.527 213.214 502.228 214.641C503.985 216.068 504.863 218.703 504.863 222.546V233.085H487.736V244.613C487.736 247.248 488.148 249.087 488.971 250.13C489.795 251.118 491.469 251.612 493.994 251.612C496.3 251.612 497.837 251.118 498.605 250.13C499.374 249.142 499.758 247.303 499.758 244.613V239.343H504.863V242.802C504.863 245.985 504.479 248.456 503.711 250.212C502.942 251.914 501.762 253.094 500.17 253.753C498.633 254.412 496.629 254.741 494.159 254.741ZM487.736 230.45H499.758V222.381C499.758 220.075 499.374 218.401 498.605 217.358C497.837 216.315 496.245 215.794 493.83 215.794C491.414 215.794 489.795 216.315 488.971 217.358C488.148 218.401 487.736 220.075 487.736 222.381V230.45ZM522.046 254.576C519.082 254.576 516.776 254.22 515.13 253.506C513.483 252.737 512.33 251.557 511.671 249.965C511.013 248.318 510.683 246.15 510.683 243.46V239.92H515.871V244.613C515.871 247.193 516.31 248.977 517.188 249.965C518.066 250.953 519.658 251.447 521.964 251.447C523.995 251.447 525.477 250.953 526.41 249.965C527.398 248.977 527.892 247.303 527.892 244.942V242.637C527.892 241.374 527.7 240.304 527.316 239.426C526.932 238.492 526.191 237.642 525.093 236.873C524.05 236.105 522.568 235.336 520.646 234.567C518.835 233.854 517.243 233.085 515.871 232.262C514.498 231.439 513.4 230.396 512.577 229.133C511.808 227.87 511.424 226.251 511.424 224.275V221.805C511.424 218.895 512.248 216.645 513.894 215.053C515.596 213.406 518.451 212.582 522.458 212.582C525.093 212.582 527.179 212.939 528.716 213.653C530.308 214.366 531.461 215.519 532.174 217.111C532.943 218.703 533.327 220.762 533.327 223.287V226.745H528.304V222.793C528.304 220.048 527.838 218.182 526.904 217.194C525.971 216.151 524.489 215.629 522.458 215.629C520.152 215.629 518.588 216.178 517.764 217.276C516.996 218.374 516.612 219.746 516.612 221.393V223.616C516.612 225.153 516.941 226.416 517.6 227.404C518.313 228.392 519.302 229.215 520.564 229.874C521.827 230.533 523.336 231.219 525.093 231.933C526.685 232.591 528.085 233.305 529.292 234.073C530.555 234.787 531.543 235.775 532.257 237.038C532.97 238.3 533.327 240.029 533.327 242.225V244.119C533.327 246.315 532.97 248.209 532.257 249.801C531.598 251.338 530.445 252.518 528.798 253.341C527.151 254.165 524.901 254.576 522.046 254.576ZM551.169 254.741C548.479 254.741 546.283 254.439 544.581 253.835C542.88 253.177 541.645 252.024 540.876 250.377C540.107 248.675 539.723 246.205 539.723 242.966V222.875C539.723 218.868 540.574 216.151 542.276 214.723C544.032 213.241 546.914 212.5 550.922 212.5C554.819 212.5 557.619 213.214 559.32 214.641C561.077 216.068 561.955 218.703 561.955 222.546V227.898H556.85V222.381C556.85 220.021 556.466 218.319 555.697 217.276C554.929 216.178 553.337 215.629 550.922 215.629C548.506 215.629 546.887 216.178 546.063 217.276C545.24 218.319 544.828 220.021 544.828 222.381V244.284C544.828 246.919 545.24 248.785 546.063 249.883C546.887 250.926 548.561 251.447 551.086 251.447C553.392 251.447 554.929 250.926 555.697 249.883C556.466 248.84 556.85 246.974 556.85 244.284V238.767H561.955V242.966C561.955 246.095 561.571 248.511 560.803 250.212C560.034 251.914 558.854 253.094 557.262 253.753C555.67 254.412 553.639 254.741 551.169 254.741ZM569.257 254V213.241H573.539L574.115 217.605C574.719 216.068 575.707 214.97 577.08 214.312C578.452 213.653 579.824 213.241 581.197 213.076C582.734 212.747 584.216 212.72 585.643 212.994V217.029C585.424 216.974 585.039 216.919 584.49 216.864C583.941 216.809 583.338 216.782 582.679 216.782C582.075 216.782 581.499 216.892 580.95 217.111C579.083 217.331 577.519 218.017 576.256 219.17C574.994 220.268 574.362 221.777 574.362 223.698V254H569.257ZM590.084 254V213.241H595.107V254H590.084ZM592.636 208.218C591.813 208.218 591.099 207.944 590.496 207.395C589.947 206.791 589.672 206.105 589.672 205.336C589.672 204.513 589.947 203.854 590.496 203.36C591.099 202.811 591.813 202.537 592.636 202.537C593.405 202.537 594.091 202.811 594.695 203.36C595.299 203.854 595.601 204.513 595.601 205.336C595.601 206.105 595.299 206.791 594.695 207.395C594.091 207.944 593.405 208.218 592.636 208.218ZM615.938 254.576C613.358 254.576 611.437 254.137 610.174 253.259C608.967 252.326 608.143 251.31 607.704 250.212L607.457 254H603.834V202.125H608.857V216.617C609.516 215.245 610.476 214.229 611.739 213.57C613.056 212.857 614.703 212.5 616.679 212.5C618.765 212.5 620.522 212.829 621.949 213.488C623.376 214.147 624.447 215.217 625.161 216.699C625.874 218.182 626.231 220.24 626.231 222.875V243.049C626.231 245.299 626.011 247.166 625.572 248.648C625.188 250.13 624.584 251.31 623.761 252.188C622.937 253.067 621.867 253.671 620.549 254C619.287 254.384 617.75 254.576 615.938 254.576ZM615.033 250.953C616.57 250.953 617.777 250.734 618.656 250.295C619.534 249.855 620.165 249.114 620.549 248.071C620.934 246.974 621.126 245.464 621.126 243.543V223.04C621.126 220.295 620.659 218.429 619.726 217.441C618.848 216.452 617.283 215.958 615.033 215.958C612.727 215.958 611.135 216.535 610.257 217.688C609.378 218.84 608.939 220.515 608.939 222.71V243.049C608.939 245.848 609.406 247.879 610.339 249.142C611.327 250.35 612.892 250.953 615.033 250.953ZM644.448 254.741C641.703 254.741 639.48 254.439 637.778 253.835C636.076 253.177 634.841 251.996 634.073 250.295C633.304 248.593 632.92 246.123 632.92 242.884V222.546C632.92 218.703 633.771 216.068 635.472 214.641C637.229 213.214 640.111 212.5 644.118 212.5C648.016 212.5 650.815 213.214 652.517 214.641C654.274 216.068 655.152 218.703 655.152 222.546V233.085H638.025V244.613C638.025 247.248 638.437 249.087 639.26 250.13C640.084 251.118 641.758 251.612 644.283 251.612C646.589 251.612 648.126 251.118 648.894 250.13C649.663 249.142 650.047 247.303 650.047 244.613V239.343H655.152V242.802C655.152 245.985 654.768 248.456 653.999 250.212C653.231 251.914 652.05 253.094 650.459 253.753C648.922 254.412 646.918 254.741 644.448 254.741ZM638.025 230.45H650.047V222.381C650.047 220.075 649.663 218.401 648.894 217.358C648.126 216.315 646.534 215.794 644.118 215.794C641.703 215.794 640.084 216.315 639.26 217.358C638.437 218.401 638.025 220.075 638.025 222.381V230.45ZM686.462 254.082C685.255 254.082 684.157 253.945 683.169 253.671C682.18 253.396 681.33 252.957 680.616 252.353C679.902 251.694 679.353 250.871 678.969 249.883C678.585 248.84 678.393 247.55 678.393 246.013V216.452H674.77V213.818L678.722 213.241L679.628 205.583H683.498V213.241H692.308V216.452H683.498V245.107C683.498 246.644 683.772 247.934 684.321 248.977C684.87 250.02 686.078 250.542 687.944 250.542C688.713 250.542 689.536 250.514 690.415 250.459C691.293 250.35 691.924 250.295 692.308 250.295V253.588C691.869 253.588 691.101 253.671 690.003 253.835C688.905 254 687.725 254.082 686.462 254.082ZM697.594 254V202.125H702.452V216.617C703.111 215.355 704.099 214.366 705.416 213.653C706.734 212.884 708.408 212.5 710.439 212.5C713.348 212.5 715.462 213.022 716.779 214.065C718.152 215.053 719.03 216.37 719.414 218.017C719.798 219.609 719.991 221.365 719.991 223.287V254H714.885V224.028C714.885 223.204 714.858 222.354 714.803 221.475C714.748 220.542 714.529 219.691 714.144 218.923C713.815 218.154 713.239 217.523 712.415 217.029C711.592 216.48 710.384 216.205 708.792 216.205C707.365 216.205 706.185 216.452 705.251 216.946C704.373 217.386 703.714 217.907 703.275 218.511C702.891 219.115 702.699 219.636 702.699 220.075V254H697.594ZM738.609 254.741C735.865 254.741 733.641 254.439 731.94 253.835C730.238 253.177 729.003 251.996 728.234 250.295C727.466 248.593 727.081 246.123 727.081 242.884V222.546C727.081 218.703 727.932 216.068 729.634 214.641C731.391 213.214 734.273 212.5 738.28 212.5C742.177 212.5 744.977 213.214 746.679 214.641C748.435 216.068 749.314 218.703 749.314 222.546V233.085H732.187V244.613C732.187 247.248 732.598 249.087 733.422 250.13C734.245 251.118 735.919 251.612 738.445 251.612C740.75 251.612 742.287 251.118 743.056 250.13C743.824 249.142 744.208 247.303 744.208 244.613V239.343H749.314V242.802C749.314 245.985 748.929 248.456 748.161 250.212C747.392 251.914 746.212 253.094 744.62 253.753C743.083 254.412 741.079 254.741 738.609 254.741ZM732.187 230.45H744.208V222.381C744.208 220.075 743.824 218.401 743.056 217.358C742.287 216.315 740.695 215.794 738.28 215.794C735.865 215.794 734.245 216.315 733.422 217.358C732.598 218.401 732.187 220.075 732.187 222.381V230.45ZM771.813 254V202.125H776.671V216.617C777.33 215.355 778.318 214.366 779.636 213.653C780.953 212.884 782.627 212.5 784.659 212.5C787.568 212.5 789.681 213.022 790.999 214.065C792.371 215.053 793.249 216.37 793.634 218.017C794.018 219.609 794.21 221.365 794.21 223.287V254H789.105V224.028C789.105 223.204 789.078 222.354 789.023 221.475C788.968 220.542 788.748 219.691 788.364 218.923C788.035 218.154 787.458 217.523 786.635 217.029C785.811 216.48 784.604 216.205 783.012 216.205C781.584 216.205 780.404 216.452 779.471 216.946C778.593 217.386 777.934 217.907 777.495 218.511C777.111 219.115 776.918 219.636 776.918 220.075V254H771.813ZM812.829 254.741C810.084 254.741 807.861 254.439 806.159 253.835C804.458 253.177 803.222 251.996 802.454 250.295C801.685 248.593 801.301 246.123 801.301 242.884V222.546C801.301 218.703 802.152 216.068 803.854 214.641C805.61 213.214 808.492 212.5 812.5 212.5C816.397 212.5 819.197 213.214 820.898 214.641C822.655 216.068 823.533 218.703 823.533 222.546V233.085H806.406V244.613C806.406 247.248 806.818 249.087 807.641 250.13C808.465 251.118 810.139 251.612 812.664 251.612C814.97 251.612 816.507 251.118 817.275 250.13C818.044 249.142 818.428 247.303 818.428 244.613V239.343H823.533V242.802C823.533 245.985 823.149 248.456 822.38 250.212C821.612 251.914 820.432 253.094 818.84 253.753C817.303 254.412 815.299 254.741 812.829 254.741ZM806.406 230.45H818.428V222.381C818.428 220.075 818.044 218.401 817.275 217.358C816.507 216.315 814.915 215.794 812.5 215.794C810.084 215.794 808.465 216.315 807.641 217.358C806.818 218.401 806.406 220.075 806.406 222.381V230.45ZM838.246 254.576C836.983 254.576 835.693 254.384 834.376 254C833.113 253.671 832.015 252.875 831.082 251.612C830.204 250.295 829.765 248.264 829.765 245.519V241.566C829.765 238.822 830.588 236.626 832.235 234.979C833.937 233.277 836.242 231.768 839.152 230.45C841.018 229.517 842.528 228.694 843.68 227.98C844.888 227.267 845.794 226.471 846.398 225.592C847.002 224.714 847.303 223.534 847.303 222.052V220.322C847.303 219.005 847.029 217.989 846.48 217.276C845.931 216.562 845.19 216.068 844.257 215.794C843.379 215.519 842.445 215.382 841.457 215.382C838.987 215.382 837.368 216.068 836.599 217.441C835.831 218.758 835.446 220.734 835.446 223.369V226.827H830.753V222.875C830.753 220.844 831.027 219.06 831.576 217.523C832.125 215.931 833.168 214.696 834.705 213.818C836.242 212.884 838.493 212.418 841.457 212.418C844.586 212.418 846.919 212.775 848.456 213.488C850.048 214.202 851.091 215.217 851.585 216.535C852.134 217.852 852.409 219.417 852.409 221.228V254H847.386L847.303 248.895C846.645 250.761 845.464 252.188 843.763 253.177C842.061 254.11 840.222 254.576 838.246 254.576ZM840.14 251.118C842.61 251.118 844.394 250.24 845.492 248.483C846.645 246.727 847.221 244.394 847.221 241.484V228.474C846.672 229.353 845.766 230.149 844.504 230.862C843.241 231.576 841.951 232.289 840.634 233.003C838.767 234.101 837.313 235.254 836.27 236.461C835.282 237.614 834.788 239.233 834.788 241.319V244.531C834.788 246.507 835.062 247.962 835.611 248.895C836.16 249.828 836.846 250.432 837.67 250.706C838.493 250.981 839.316 251.118 840.14 251.118ZM860.427 254V201.796H865.449V254H860.427ZM882.987 254.082C881.78 254.082 880.682 253.945 879.694 253.671C878.706 253.396 877.855 252.957 877.141 252.353C876.428 251.694 875.879 250.871 875.494 249.883C875.11 248.84 874.918 247.55 874.918 246.013V216.452H871.295V213.818L875.247 213.241L876.153 205.583H880.023V213.241H888.834V216.452H880.023V245.107C880.023 246.644 880.298 247.934 880.847 248.977C881.395 250.02 882.603 250.542 884.47 250.542C885.238 250.542 886.061 250.514 886.94 250.459C887.818 250.35 888.449 250.295 888.834 250.295V253.588C888.394 253.588 887.626 253.671 886.528 253.835C885.43 254 884.25 254.082 882.987 254.082ZM894.119 254V202.125H898.977V216.617C899.636 215.355 900.624 214.366 901.941 213.653C903.259 212.884 904.933 212.5 906.964 212.5C909.874 212.5 911.987 213.022 913.304 214.065C914.677 215.053 915.555 216.37 915.939 218.017C916.324 219.609 916.516 221.365 916.516 223.287V254H911.411V224.028C911.411 223.204 911.383 222.354 911.328 221.475C911.273 220.542 911.054 219.691 910.669 218.923C910.34 218.154 909.764 217.523 908.94 217.029C908.117 216.48 906.909 216.205 905.317 216.205C903.89 216.205 902.71 216.452 901.777 216.946C900.898 217.386 900.24 217.907 899.8 218.511C899.416 219.115 899.224 219.636 899.224 220.075V254H894.119ZM950.003 254.576C947.478 254.576 945.364 254.247 943.663 253.588C942.016 252.875 940.781 251.64 939.957 249.883C939.189 248.126 938.804 245.711 938.804 242.637V223.616C938.804 219.664 939.655 216.837 941.357 215.135C943.114 213.433 945.996 212.582 950.003 212.582C954.01 212.582 956.865 213.406 958.566 215.053C960.323 216.699 961.201 219.554 961.201 223.616V242.637C961.201 245.711 960.817 248.126 960.048 249.883C959.28 251.585 958.072 252.792 956.425 253.506C954.779 254.22 952.638 254.576 950.003 254.576ZM950.003 251.365C952.199 251.365 953.763 250.816 954.696 249.718C955.629 248.62 956.096 246.617 956.096 243.707V223.369C956.096 220.679 955.657 218.758 954.779 217.605C953.9 216.398 952.308 215.794 950.003 215.794C947.862 215.794 946.297 216.37 945.309 217.523C944.376 218.621 943.91 220.569 943.91 223.369V243.707C943.91 246.562 944.376 248.565 945.309 249.718C946.297 250.816 947.862 251.365 950.003 251.365ZM968.903 254V218.017H966.351V214.806H968.903V209.865C968.903 208.383 969.068 207.12 969.397 206.077C969.782 205.034 970.303 204.211 970.962 203.607C971.621 202.948 972.389 202.482 973.267 202.207C974.201 201.933 975.216 201.796 976.314 201.796C977.192 201.796 978.071 201.823 978.949 201.878C979.882 201.878 980.733 201.933 981.502 202.043C982.27 202.098 982.819 202.125 983.148 202.125V205.007C982.545 204.897 981.831 204.815 981.007 204.76C980.184 204.65 979.196 204.595 978.043 204.595C976.671 204.595 975.628 205.007 974.914 205.83C974.256 206.599 973.926 207.999 973.926 210.03V214.806H983.148V218.017H973.926V254H968.903ZM1010.68 254.082C1009.47 254.082 1008.37 253.945 1007.39 253.671C1006.4 253.396 1005.55 252.957 1004.83 252.353C1004.12 251.694 1003.57 250.871 1003.19 249.883C1002.8 248.84 1002.61 247.55 1002.61 246.013V216.452H998.988V213.818L1002.94 213.241L1003.85 205.583H1007.72V213.241H1016.53V216.452H1007.72V245.107C1007.72 246.644 1007.99 247.934 1008.54 248.977C1009.09 250.02 1010.3 250.542 1012.16 250.542C1012.93 250.542 1013.75 250.514 1014.63 250.459C1015.51 250.35 1016.14 250.295 1016.53 250.295V253.588C1016.09 253.588 1015.32 253.671 1014.22 253.835C1013.12 254 1011.94 254.082 1010.68 254.082ZM1021.81 254V202.125H1026.67V216.617C1027.33 215.355 1028.32 214.366 1029.63 213.653C1030.95 212.884 1032.63 212.5 1034.66 212.5C1037.57 212.5 1039.68 213.022 1041 214.065C1042.37 215.053 1043.25 216.37 1043.63 218.017C1044.02 219.609 1044.21 221.365 1044.21 223.287V254H1039.1V224.028C1039.1 223.204 1039.08 222.354 1039.02 221.475C1038.97 220.542 1038.75 219.691 1038.36 218.923C1038.03 218.154 1037.46 217.523 1036.63 217.029C1035.81 216.48 1034.6 216.205 1033.01 216.205C1031.58 216.205 1030.4 216.452 1029.47 216.946C1028.59 217.386 1027.93 217.907 1027.49 218.511C1027.11 219.115 1026.92 219.636 1026.92 220.075V254H1021.81ZM1062.83 254.741C1060.08 254.741 1057.86 254.439 1056.16 253.835C1054.46 253.177 1053.22 251.996 1052.45 250.295C1051.68 248.593 1051.3 246.123 1051.3 242.884V222.546C1051.3 218.703 1052.15 216.068 1053.85 214.641C1055.61 213.214 1058.49 212.5 1062.5 212.5C1066.4 212.5 1069.2 213.214 1070.9 214.641C1072.65 216.068 1073.53 218.703 1073.53 222.546V233.085H1056.4V244.613C1056.4 247.248 1056.82 249.087 1057.64 250.13C1058.46 251.118 1060.14 251.612 1062.66 251.612C1064.97 251.612 1066.51 251.118 1067.27 250.13C1068.04 249.142 1068.43 247.303 1068.43 244.613V239.343H1073.53V242.802C1073.53 245.985 1073.15 248.456 1072.38 250.212C1071.61 251.914 1070.43 253.094 1068.84 253.753C1067.3 254.412 1065.3 254.741 1062.83 254.741ZM1056.4 230.45H1068.43V222.381C1068.43 220.075 1068.04 218.401 1067.27 217.358C1066.51 216.315 1064.91 215.794 1062.5 215.794C1060.08 215.794 1058.46 216.315 1057.64 217.358C1056.82 218.401 1056.4 220.075 1056.4 222.381V230.45ZM1102.37 254L1092.82 213.241H1098.09L1105.75 248.154H1105.58L1112.75 213.241H1117.61L1108.38 254H1102.37ZM1130.54 254.576C1129.28 254.576 1127.99 254.384 1126.67 254C1125.41 253.671 1124.31 252.875 1123.38 251.612C1122.5 250.295 1122.06 248.264 1122.06 245.519V241.566C1122.06 238.822 1122.88 236.626 1124.53 234.979C1126.23 233.277 1128.54 231.768 1131.45 230.45C1133.31 229.517 1134.82 228.694 1135.98 227.98C1137.18 227.267 1138.09 226.471 1138.69 225.592C1139.3 224.714 1139.6 223.534 1139.6 222.052V220.322C1139.6 219.005 1139.32 217.989 1138.78 217.276C1138.23 216.562 1137.49 216.068 1136.55 215.794C1135.67 215.519 1134.74 215.382 1133.75 215.382C1131.28 215.382 1129.66 216.068 1128.89 217.441C1128.13 218.758 1127.74 220.734 1127.74 223.369V226.827H1123.05V222.875C1123.05 220.844 1123.32 219.06 1123.87 217.523C1124.42 215.931 1125.46 214.696 1127 213.818C1128.54 212.884 1130.79 212.418 1133.75 212.418C1136.88 212.418 1139.21 212.775 1140.75 213.488C1142.34 214.202 1143.39 215.217 1143.88 216.535C1144.43 217.852 1144.7 219.417 1144.7 221.228V254H1139.68L1139.6 248.895C1138.94 250.761 1137.76 252.188 1136.06 253.177C1134.36 254.11 1132.52 254.576 1130.54 254.576ZM1132.43 251.118C1134.91 251.118 1136.69 250.24 1137.79 248.483C1138.94 246.727 1139.52 244.394 1139.52 241.484V228.474C1138.97 229.353 1138.06 230.149 1136.8 230.862C1135.54 231.576 1134.25 232.289 1132.93 233.003C1131.06 234.101 1129.61 235.254 1128.56 236.461C1127.58 237.614 1127.08 239.233 1127.08 241.319V244.531C1127.08 246.507 1127.36 247.962 1127.91 248.895C1128.45 249.828 1129.14 250.432 1129.96 250.706C1130.79 250.981 1131.61 251.118 1132.43 251.118ZM1152.72 254V213.241H1157L1157.58 217.605C1158.18 216.068 1159.17 214.97 1160.54 214.312C1161.92 213.653 1163.29 213.241 1164.66 213.076C1166.2 212.747 1167.68 212.72 1169.11 212.994V217.029C1168.89 216.974 1168.5 216.919 1167.95 216.864C1167.41 216.809 1166.8 216.782 1166.14 216.782C1165.54 216.782 1164.96 216.892 1164.41 217.111C1162.55 217.331 1160.98 218.017 1159.72 219.17C1158.46 220.268 1157.83 221.777 1157.83 223.698V254H1152.72ZM1173.55 254V213.241H1178.57V254H1173.55ZM1176.1 208.218C1175.28 208.218 1174.56 207.944 1173.96 207.395C1173.41 206.791 1173.14 206.105 1173.14 205.336C1173.14 204.513 1173.41 203.854 1173.96 203.36C1174.56 202.811 1175.28 202.537 1176.1 202.537C1176.87 202.537 1177.56 202.811 1178.16 203.36C1178.76 203.854 1179.06 204.513 1179.06 205.336C1179.06 206.105 1178.76 206.791 1178.16 207.395C1177.56 207.944 1176.87 208.218 1176.1 208.218ZM1197.51 254.576C1194.98 254.576 1192.87 254.247 1191.17 253.588C1189.52 252.875 1188.29 251.64 1187.46 249.883C1186.69 248.126 1186.31 245.711 1186.31 242.637V223.616C1186.31 219.664 1187.16 216.837 1188.86 215.135C1190.62 213.433 1193.5 212.582 1197.51 212.582C1201.52 212.582 1204.37 213.406 1206.07 215.053C1207.83 216.699 1208.71 219.554 1208.71 223.616V242.637C1208.71 245.711 1208.32 248.126 1207.55 249.883C1206.79 251.585 1205.58 252.792 1203.93 253.506C1202.28 254.22 1200.14 254.576 1197.51 254.576ZM1197.51 251.365C1199.7 251.365 1201.27 250.816 1202.2 249.718C1203.14 248.62 1203.6 246.617 1203.6 243.707V223.369C1203.6 220.679 1203.16 218.758 1202.28 217.605C1201.41 216.398 1199.81 215.794 1197.51 215.794C1195.37 215.794 1193.8 216.37 1192.82 217.523C1191.88 218.621 1191.42 220.569 1191.42 223.369V243.707C1191.42 246.562 1191.88 248.565 1192.82 249.718C1193.8 250.816 1195.37 251.365 1197.51 251.365ZM1225.3 254.659C1222.45 254.659 1220.33 254.165 1218.96 253.177C1217.59 252.134 1216.71 250.789 1216.33 249.142C1215.94 247.495 1215.75 245.738 1215.75 243.872V213.241H1220.86V243.213C1220.86 244.421 1220.91 245.629 1221.02 246.836C1221.19 247.989 1221.71 248.95 1222.58 249.718C1223.46 250.432 1224.92 250.789 1226.95 250.789C1228.38 250.789 1229.5 250.542 1230.32 250.048C1231.15 249.554 1231.78 248.977 1232.22 248.318C1232.66 247.605 1232.93 246.974 1233.04 246.425V213.241H1238.15V254H1233.78L1233.37 249.554C1232.93 250.871 1232.03 252.051 1230.65 253.094C1229.34 254.137 1227.55 254.659 1225.3 254.659ZM1256.76 254.576C1253.8 254.576 1251.49 254.22 1249.85 253.506C1248.2 252.737 1247.05 251.557 1246.39 249.965C1245.73 248.318 1245.4 246.15 1245.4 243.46V239.92H1250.59V244.613C1250.59 247.193 1251.03 248.977 1251.91 249.965C1252.78 250.953 1254.38 251.447 1256.68 251.447C1258.71 251.447 1260.2 250.953 1261.13 249.965C1262.12 248.977 1262.61 247.303 1262.61 244.942V242.637C1262.61 241.374 1262.42 240.304 1262.03 239.426C1261.65 238.492 1260.91 237.642 1259.81 236.873C1258.77 236.105 1257.29 235.336 1255.36 234.567C1253.55 233.854 1251.96 233.085 1250.59 232.262C1249.22 231.439 1248.12 230.396 1247.29 229.133C1246.53 227.87 1246.14 226.251 1246.14 224.275V221.805C1246.14 218.895 1246.97 216.645 1248.61 215.053C1250.31 213.406 1253.17 212.582 1257.18 212.582C1259.81 212.582 1261.9 212.939 1263.43 213.653C1265.03 214.366 1266.18 215.519 1266.89 217.111C1267.66 218.703 1268.04 220.762 1268.04 223.287V226.745H1263.02V222.793C1263.02 220.048 1262.56 218.182 1261.62 217.194C1260.69 216.151 1259.21 215.629 1257.18 215.629C1254.87 215.629 1253.31 216.178 1252.48 217.276C1251.71 218.374 1251.33 219.746 1251.33 221.393V223.616C1251.33 225.153 1251.66 226.416 1252.32 227.404C1253.03 228.392 1254.02 229.215 1255.28 229.874C1256.54 230.533 1258.05 231.219 1259.81 231.933C1261.4 232.591 1262.8 233.305 1264.01 234.073C1265.27 234.787 1266.26 235.775 1266.97 237.038C1267.69 238.3 1268.04 240.029 1268.04 242.225V244.119C1268.04 246.315 1267.69 248.209 1266.97 249.801C1266.32 251.338 1265.16 252.518 1263.52 253.341C1261.87 254.165 1259.62 254.576 1256.76 254.576ZM1301.17 254.741C1298.42 254.741 1296.2 254.439 1294.5 253.835C1292.8 253.177 1291.56 251.996 1290.79 250.295C1290.02 248.593 1289.64 246.123 1289.64 242.884V222.546C1289.64 218.703 1290.49 216.068 1292.19 214.641C1293.95 213.214 1296.83 212.5 1300.84 212.5C1304.73 212.5 1307.53 213.214 1309.24 214.641C1310.99 216.068 1311.87 218.703 1311.87 222.546V233.085H1294.74V244.613C1294.74 247.248 1295.16 249.087 1295.98 250.13C1296.8 251.118 1298.48 251.612 1301 251.612C1303.31 251.612 1304.84 251.118 1305.61 250.13C1306.38 249.142 1306.77 247.303 1306.77 244.613V239.343H1311.87V242.802C1311.87 245.985 1311.49 248.456 1310.72 250.212C1309.95 251.914 1308.77 253.094 1307.18 253.753C1305.64 254.412 1303.64 254.741 1301.17 254.741ZM1294.74 230.45H1306.77V222.381C1306.77 220.075 1306.38 218.401 1305.61 217.358C1304.84 216.315 1303.25 215.794 1300.84 215.794C1298.42 215.794 1296.8 216.315 1295.98 217.358C1295.16 218.401 1294.74 220.075 1294.74 222.381V230.45ZM1319.17 254V213.241H1323.45L1324.03 217.77C1324.63 216.178 1325.62 214.915 1327 213.982C1328.42 213.049 1330.15 212.582 1332.18 212.582C1335.37 212.582 1337.59 213.241 1338.85 214.559C1340.17 215.876 1340.86 217.797 1340.91 220.322L1340.01 220.405C1340.55 218.044 1341.6 216.151 1343.13 214.723C1344.73 213.296 1346.76 212.582 1349.23 212.582C1352.63 212.582 1354.94 213.378 1356.14 214.97C1357.41 216.562 1358.04 219.005 1358.04 222.299V254H1352.93V223.204C1352.93 220.569 1352.52 218.785 1351.7 217.852C1350.93 216.864 1349.58 216.37 1347.66 216.37C1345.85 216.37 1344.34 216.919 1343.13 218.017C1341.93 219.06 1341.27 220.377 1341.16 221.969V254H1336.05V222.546C1336.05 220.295 1335.64 218.703 1334.82 217.77C1334.05 216.837 1332.65 216.37 1330.62 216.37C1328.75 216.37 1327.32 216.809 1326.34 217.688C1325.4 218.566 1324.72 219.609 1324.28 220.817V254H1319.17ZM1366.13 263.552V213.241H1370.91L1371.07 216.864C1371.57 215.711 1372.36 214.723 1373.46 213.9C1374.56 213.076 1376.37 212.665 1378.9 212.665C1381.48 212.665 1383.45 213.104 1384.82 213.982C1386.2 214.861 1387.16 216.068 1387.71 217.605C1388.26 219.142 1388.53 220.926 1388.53 222.957V243.049C1388.53 245.299 1388.28 247.303 1387.79 249.06C1387.29 250.816 1386.36 252.188 1384.99 253.177C1383.62 254.11 1381.59 254.576 1378.9 254.576C1376.81 254.576 1375.14 254.247 1373.87 253.588C1372.67 252.93 1371.76 252.106 1371.16 251.118V263.552H1366.13ZM1377.33 251.447C1378.87 251.447 1380.05 251.228 1380.87 250.789C1381.7 250.35 1382.3 249.773 1382.68 249.06C1383.07 248.291 1383.29 247.468 1383.34 246.589C1383.4 245.656 1383.42 244.668 1383.42 243.625V223.781C1383.42 222.738 1383.4 221.777 1383.34 220.899C1383.29 219.966 1383.07 219.115 1382.68 218.346C1382.3 217.578 1381.7 216.974 1380.87 216.535C1380.05 216.096 1378.87 215.876 1377.33 215.876C1375.79 215.876 1374.61 216.151 1373.79 216.699C1372.97 217.248 1372.36 217.989 1371.98 218.923C1371.6 219.801 1371.38 220.762 1371.32 221.805C1371.27 222.848 1371.24 223.836 1371.24 224.769V244.201C1371.24 245.519 1371.35 246.754 1371.57 247.907C1371.84 249.005 1372.39 249.883 1373.21 250.542C1374.09 251.146 1375.47 251.447 1377.33 251.447ZM1396.21 254V201.796H1401.23V254H1396.21ZM1420.17 254.576C1417.64 254.576 1415.53 254.247 1413.83 253.588C1412.18 252.875 1410.95 251.64 1410.12 249.883C1409.35 248.126 1408.97 245.711 1408.97 242.637V223.616C1408.97 219.664 1409.82 216.837 1411.52 215.135C1413.28 213.433 1416.16 212.582 1420.17 212.582C1424.17 212.582 1427.03 213.406 1428.73 215.053C1430.49 216.699 1431.37 219.554 1431.37 223.616V242.637C1431.37 245.711 1430.98 248.126 1430.21 249.883C1429.44 251.585 1428.24 252.792 1426.59 253.506C1424.94 254.22 1422.8 254.576 1420.17 254.576ZM1420.17 251.365C1422.36 251.365 1423.93 250.816 1424.86 249.718C1425.79 248.62 1426.26 246.617 1426.26 243.707V223.369C1426.26 220.679 1425.82 218.758 1424.94 217.605C1424.07 216.398 1422.47 215.794 1420.17 215.794C1418.03 215.794 1416.46 216.37 1415.47 217.523C1414.54 218.621 1414.07 220.569 1414.07 223.369V243.707C1414.07 246.562 1414.54 248.565 1415.47 249.718C1416.46 250.816 1418.03 251.365 1420.17 251.365ZM1440.3 263.634C1439.15 263.634 1438.11 263.552 1437.17 263.387C1436.3 263.222 1435.61 263.085 1435.12 262.975V259.929C1435.28 260.038 1435.64 260.148 1436.19 260.258C1436.79 260.368 1437.48 260.423 1438.24 260.423C1439.07 260.423 1439.97 260.285 1440.96 260.011C1442 259.736 1442.86 258.968 1443.51 257.705C1443.84 257.156 1444.2 256.525 1444.58 255.812C1445.02 255.098 1445.13 254.274 1444.91 253.341L1435.53 213.241H1440.8L1448.29 248.813H1448.21L1455.45 213.241H1460.31L1451.42 252.436C1450.6 256.223 1449.31 259.023 1447.55 260.834C1445.79 262.701 1443.38 263.634 1440.3 263.634ZM1475.74 254.741C1472.99 254.741 1470.77 254.439 1469.07 253.835C1467.37 253.177 1466.13 251.996 1465.36 250.295C1464.6 248.593 1464.21 246.123 1464.21 242.884V222.546C1464.21 218.703 1465.06 216.068 1466.76 214.641C1468.52 213.214 1471.4 212.5 1475.41 212.5C1479.31 212.5 1482.11 213.214 1483.81 214.641C1485.57 216.068 1486.44 218.703 1486.44 222.546V233.085H1469.32V244.613C1469.32 247.248 1469.73 249.087 1470.55 250.13C1471.38 251.118 1473.05 251.612 1475.57 251.612C1477.88 251.612 1479.42 251.118 1480.19 250.13C1480.95 249.142 1481.34 247.303 1481.34 244.613V239.343H1486.44V242.802C1486.44 245.985 1486.06 248.456 1485.29 250.212C1484.52 251.914 1483.34 253.094 1481.75 253.753C1480.21 254.412 1478.21 254.741 1475.74 254.741ZM1469.32 230.45H1481.34V222.381C1481.34 220.075 1480.95 218.401 1480.19 217.358C1479.42 216.315 1477.83 215.794 1475.41 215.794C1472.99 215.794 1471.38 216.315 1470.55 217.358C1469.73 218.401 1469.32 220.075 1469.32 222.381V230.45ZM1493.75 254V213.241H1498.03L1498.6 217.605C1499.21 216.068 1500.2 214.97 1501.57 214.312C1502.94 213.653 1504.31 213.241 1505.69 213.076C1507.22 212.747 1508.7 212.72 1510.13 212.994V217.029C1509.91 216.974 1509.53 216.919 1508.98 216.864C1508.43 216.809 1507.83 216.782 1507.17 216.782C1506.56 216.782 1505.99 216.892 1505.44 217.111C1503.57 217.331 1502.01 218.017 1500.74 219.17C1499.48 220.268 1498.85 221.777 1498.85 223.698V254H1493.75ZM1524.45 254.576C1521.49 254.576 1519.18 254.22 1517.54 253.506C1515.89 252.737 1514.74 251.557 1514.08 249.965C1513.42 248.318 1513.09 246.15 1513.09 243.46V239.92H1518.28V244.613C1518.28 247.193 1518.72 248.977 1519.6 249.965C1520.47 250.953 1522.07 251.447 1524.37 251.447C1526.4 251.447 1527.88 250.953 1528.82 249.965C1529.81 248.977 1530.3 247.303 1530.3 244.942V242.637C1530.3 241.374 1530.11 240.304 1529.72 239.426C1529.34 238.492 1528.6 237.642 1527.5 236.873C1526.46 236.105 1524.97 235.336 1523.05 234.567C1521.24 233.854 1519.65 233.085 1518.28 232.262C1516.91 231.439 1515.81 230.396 1514.98 229.133C1514.22 227.87 1513.83 226.251 1513.83 224.275V221.805C1513.83 218.895 1514.65 216.645 1516.3 215.053C1518 213.406 1520.86 212.582 1524.86 212.582C1527.5 212.582 1529.59 212.939 1531.12 213.653C1532.71 214.366 1533.87 215.519 1534.58 217.111C1535.35 218.703 1535.73 220.762 1535.73 223.287V226.745H1530.71V222.793C1530.71 220.048 1530.24 218.182 1529.31 217.194C1528.38 216.151 1526.9 215.629 1524.86 215.629C1522.56 215.629 1520.99 216.178 1520.17 217.276C1519.4 218.374 1519.02 219.746 1519.02 221.393V223.616C1519.02 225.153 1519.35 226.416 1520.01 227.404C1520.72 228.392 1521.71 229.215 1522.97 229.874C1524.23 230.533 1525.74 231.219 1527.5 231.933C1529.09 232.591 1530.49 233.305 1531.7 234.073C1532.96 234.787 1533.95 235.775 1534.66 237.038C1535.38 238.3 1535.73 240.029 1535.73 242.225V244.119C1535.73 246.315 1535.38 248.209 1534.66 249.801C1534 251.338 1532.85 252.518 1531.21 253.341C1529.56 254.165 1527.31 254.576 1524.45 254.576ZM1564 254L1554.86 213.241H1559.8L1566.96 247.495L1573.96 213.241H1578.82L1586.23 247.495L1592.9 213.241H1597.76L1588.95 254H1583.1L1576.35 223.369L1569.84 254H1564ZM1603.11 254V213.241H1608.13V254H1603.11ZM1605.66 208.218C1604.83 208.218 1604.12 207.944 1603.52 207.395C1602.97 206.791 1602.69 206.105 1602.69 205.336C1602.69 204.513 1602.97 203.854 1603.52 203.36C1604.12 202.811 1604.83 202.537 1605.66 202.537C1606.43 202.537 1607.11 202.811 1607.72 203.36C1608.32 203.854 1608.62 204.513 1608.62 205.336C1608.62 206.105 1608.32 206.791 1607.72 207.395C1607.11 207.944 1606.43 208.218 1605.66 208.218ZM1625.67 254.082C1624.46 254.082 1623.36 253.945 1622.37 253.671C1621.38 253.396 1620.53 252.957 1619.82 252.353C1619.11 251.694 1618.56 250.871 1618.17 249.883C1617.79 248.84 1617.6 247.55 1617.6 246.013V216.452H1613.97V213.818L1617.93 213.241L1618.83 205.583H1622.7V213.241H1631.51V216.452H1622.7V245.107C1622.7 246.644 1622.98 247.934 1623.53 248.977C1624.07 250.02 1625.28 250.542 1627.15 250.542C1627.92 250.542 1628.74 250.514 1629.62 250.459C1630.5 250.35 1631.13 250.295 1631.51 250.295V253.588C1631.07 253.588 1630.3 253.671 1629.21 253.835C1628.11 254 1626.93 254.082 1625.67 254.082ZM1636.8 254V202.125H1641.66V216.617C1642.31 215.355 1643.3 214.366 1644.62 213.653C1645.94 212.884 1647.61 212.5 1649.64 212.5C1652.55 212.5 1654.67 213.022 1655.98 214.065C1657.36 215.053 1658.23 216.37 1658.62 218.017C1659 219.609 1659.19 221.365 1659.19 223.287V254H1654.09V224.028C1654.09 223.204 1654.06 222.354 1654.01 221.475C1653.95 220.542 1653.73 219.691 1653.35 218.923C1653.02 218.154 1652.44 217.523 1651.62 217.029C1650.8 216.48 1649.59 216.205 1648 216.205C1646.57 216.205 1645.39 216.452 1644.46 216.946C1643.58 217.386 1642.92 217.907 1642.48 218.511C1642.09 219.115 1641.9 219.636 1641.9 220.075V254H1636.8ZM1667.27 254V213.241H1672.3V254H1667.27ZM1669.83 208.218C1669 208.218 1668.29 207.944 1667.69 207.395C1667.14 206.791 1666.86 206.105 1666.86 205.336C1666.86 204.513 1667.14 203.854 1667.69 203.36C1668.29 202.811 1669 202.537 1669.83 202.537C1670.59 202.537 1671.28 202.811 1671.88 203.36C1672.49 203.854 1672.79 204.513 1672.79 205.336C1672.79 206.105 1672.49 206.791 1671.88 207.395C1671.28 207.944 1670.59 208.218 1669.83 208.218ZM1681.02 254V213.241H1685.22L1685.88 217.605C1686.32 215.958 1687.34 214.696 1688.93 213.818C1690.52 212.939 1692.17 212.5 1693.87 212.5C1696.78 212.5 1698.89 213.022 1700.21 214.065C1701.58 215.053 1702.46 216.37 1702.84 218.017C1703.23 219.609 1703.42 221.365 1703.42 223.287V254H1698.32V224.028C1698.32 223.04 1698.29 222.079 1698.23 221.146C1698.18 220.213 1697.96 219.389 1697.57 218.676C1697.24 217.907 1696.67 217.303 1695.85 216.864C1695.02 216.425 1693.81 216.205 1692.22 216.205C1690.85 216.205 1689.72 216.48 1688.85 217.029C1688.02 217.523 1687.39 218.127 1686.95 218.84C1686.57 219.499 1686.29 220.13 1686.13 220.734V254H1681.02ZM1735.51 254.082C1734.3 254.082 1733.2 253.945 1732.21 253.671C1731.23 253.396 1730.38 252.957 1729.66 252.353C1728.95 251.694 1728.4 250.871 1728.01 249.883C1727.63 248.84 1727.44 247.55 1727.44 246.013V216.452H1723.82V213.818L1727.77 213.241L1728.67 205.583H1732.54V213.241H1741.35V216.452H1732.54V245.107C1732.54 246.644 1732.82 247.934 1733.37 248.977C1733.92 250.02 1735.12 250.542 1736.99 250.542C1737.76 250.542 1738.58 250.514 1739.46 250.459C1740.34 250.35 1740.97 250.295 1741.35 250.295V253.588C1740.91 253.588 1740.15 253.671 1739.05 253.835C1737.95 254 1736.77 254.082 1735.51 254.082ZM1746.64 254V202.125H1751.5V216.617C1752.16 215.355 1753.14 214.366 1754.46 213.653C1755.78 212.884 1757.45 212.5 1759.48 212.5C1762.39 212.5 1764.51 213.022 1765.82 214.065C1767.2 215.053 1768.08 216.37 1768.46 218.017C1768.84 219.609 1769.04 221.365 1769.04 223.287V254H1763.93V224.028C1763.93 223.204 1763.9 222.354 1763.85 221.475C1763.79 220.542 1763.57 219.691 1763.19 218.923C1762.86 218.154 1762.28 217.523 1761.46 217.029C1760.64 216.48 1759.43 216.205 1757.84 216.205C1756.41 216.205 1755.23 216.452 1754.3 216.946C1753.42 217.386 1752.76 217.907 1752.32 218.511C1751.94 219.115 1751.74 219.636 1751.74 220.075V254H1746.64ZM1787.65 254.741C1784.91 254.741 1782.69 254.439 1780.99 253.835C1779.28 253.177 1778.05 251.996 1777.28 250.295C1776.51 248.593 1776.13 246.123 1776.13 242.884V222.546C1776.13 218.703 1776.98 216.068 1778.68 214.641C1780.44 213.214 1783.32 212.5 1787.33 212.5C1791.22 212.5 1794.02 213.214 1795.72 214.641C1797.48 216.068 1798.36 218.703 1798.36 222.546V233.085H1781.23V244.613C1781.23 247.248 1781.64 249.087 1782.47 250.13C1783.29 251.118 1784.97 251.612 1787.49 251.612C1789.8 251.612 1791.33 251.118 1792.1 250.13C1792.87 249.142 1793.25 247.303 1793.25 244.613V239.343H1798.36V242.802C1798.36 245.985 1797.97 248.456 1797.21 250.212C1796.44 251.914 1795.26 253.094 1793.67 253.753C1792.13 254.412 1790.13 254.741 1787.65 254.741ZM1781.23 230.45H1793.25V222.381C1793.25 220.075 1792.87 218.401 1792.1 217.358C1791.33 216.315 1789.74 215.794 1787.33 215.794C1784.91 215.794 1783.29 216.315 1782.47 217.358C1781.64 218.401 1781.23 220.075 1781.23 222.381V230.45ZM1831.32 254.741C1828.63 254.741 1826.43 254.439 1824.73 253.835C1823.03 253.177 1821.79 252.024 1821.02 250.377C1820.26 248.675 1819.87 246.205 1819.87 242.966V222.875C1819.87 218.868 1820.72 216.151 1822.42 214.723C1824.18 213.241 1827.06 212.5 1831.07 212.5C1834.97 212.5 1837.77 213.214 1839.47 214.641C1841.22 216.068 1842.1 218.703 1842.1 222.546V227.898H1837V222.381C1837 220.021 1836.61 218.319 1835.85 217.276C1835.08 216.178 1833.48 215.629 1831.07 215.629C1828.65 215.629 1827.03 216.178 1826.21 217.276C1825.39 218.319 1824.98 220.021 1824.98 222.381V244.284C1824.98 246.919 1825.39 248.785 1826.21 249.883C1827.03 250.926 1828.71 251.447 1831.23 251.447C1833.54 251.447 1835.08 250.926 1835.85 249.883C1836.61 248.84 1837 246.974 1837 244.284V238.767H1842.1V242.966C1842.1 246.095 1841.72 248.511 1840.95 250.212C1840.18 251.914 1839 253.094 1837.41 253.753C1835.82 254.412 1833.79 254.741 1831.32 254.741ZM1849.4 254V213.241H1854.43V254H1849.4ZM1851.96 208.218C1851.13 208.218 1850.42 207.944 1849.82 207.395C1849.27 206.791 1848.99 206.105 1848.99 205.336C1848.99 204.513 1849.27 203.854 1849.82 203.36C1850.42 202.811 1851.13 202.537 1851.96 202.537C1852.73 202.537 1853.41 202.811 1854.02 203.36C1854.62 203.854 1854.92 204.513 1854.92 205.336C1854.92 206.105 1854.62 206.791 1854.02 207.395C1853.41 207.944 1852.73 208.218 1851.96 208.218ZM1871.97 254.082C1870.76 254.082 1869.66 253.945 1868.67 253.671C1867.68 253.396 1866.83 252.957 1866.12 252.353C1865.41 251.694 1864.86 250.871 1864.47 249.883C1864.09 248.84 1863.9 247.55 1863.9 246.013V216.452H1860.27V213.818L1864.23 213.241L1865.13 205.583H1869V213.241H1877.81V216.452H1869V245.107C1869 246.644 1869.28 247.934 1869.82 248.977C1870.37 250.02 1871.58 250.542 1873.45 250.542C1874.22 250.542 1875.04 250.514 1875.92 250.459C1876.8 250.35 1877.43 250.295 1877.81 250.295V253.588C1877.37 253.588 1876.6 253.671 1875.51 253.835C1874.41 254 1873.23 254.082 1871.97 254.082ZM1884.41 263.634C1883.26 263.634 1882.22 263.552 1881.29 263.387C1880.41 263.222 1879.72 263.085 1879.23 262.975V259.929C1879.39 260.038 1879.75 260.148 1880.3 260.258C1880.9 260.368 1881.59 260.423 1882.36 260.423C1883.18 260.423 1884.09 260.285 1885.07 260.011C1886.12 259.736 1886.97 258.968 1887.63 257.705C1887.96 257.156 1888.31 256.525 1888.7 255.812C1889.14 255.098 1889.25 254.274 1889.03 253.341L1879.64 213.241H1884.91L1892.4 248.813H1892.32L1899.57 213.241H1904.42L1895.53 252.436C1894.71 256.223 1893.42 259.023 1891.66 260.834C1889.9 262.701 1887.49 263.634 1884.41 263.634ZM1924.51 254V201.796H1929.53V254H1924.51ZM1938.26 254V213.241H1943.28V254H1938.26ZM1940.81 208.218C1939.99 208.218 1939.28 207.944 1938.67 207.395C1938.12 206.791 1937.85 206.105 1937.85 205.336C1937.85 204.513 1938.12 203.854 1938.67 203.36C1939.28 202.811 1939.99 202.537 1940.81 202.537C1941.58 202.537 1942.27 202.811 1942.87 203.36C1943.47 203.854 1943.78 204.513 1943.78 205.336C1943.78 206.105 1943.47 206.791 1942.87 207.395C1942.27 207.944 1941.58 208.218 1940.81 208.218ZM1952.01 254V213.241H1956.29L1956.87 217.77C1957.47 216.178 1958.46 214.915 1959.83 213.982C1961.26 213.049 1962.99 212.582 1965.02 212.582C1968.2 212.582 1970.43 213.241 1971.69 214.559C1973.01 215.876 1973.69 217.797 1973.75 220.322L1972.84 220.405C1973.39 218.044 1974.43 216.151 1975.97 214.723C1977.56 213.296 1979.59 212.582 1982.06 212.582C1985.47 212.582 1987.77 213.378 1988.98 214.97C1990.24 216.562 1990.87 219.005 1990.87 222.299V254H1985.77V223.204C1985.77 220.569 1985.36 218.785 1984.53 217.852C1983.77 216.864 1982.42 216.37 1980.5 216.37C1978.69 216.37 1977.18 216.919 1975.97 218.017C1974.76 219.06 1974.1 220.377 1973.99 221.969V254H1968.89V222.546C1968.89 220.295 1968.48 218.703 1967.65 217.77C1966.89 216.837 1965.49 216.37 1963.46 216.37C1961.59 216.37 1960.16 216.809 1959.17 217.688C1958.24 218.566 1957.55 219.609 1957.11 220.817V254H1952.01ZM1998.97 254V213.241H2003.99V254H1998.97ZM2001.52 208.218C2000.7 208.218 1999.99 207.944 1999.38 207.395C1998.83 206.791 1998.56 206.105 1998.56 205.336C1998.56 204.513 1998.83 203.854 1999.38 203.36C1999.99 202.811 2000.7 202.537 2001.52 202.537C2002.29 202.537 2002.98 202.811 2003.58 203.36C2004.18 203.854 2004.49 204.513 2004.49 205.336C2004.49 206.105 2004.18 206.791 2003.58 207.395C2002.98 207.944 2002.29 208.218 2001.52 208.218ZM2021.53 254.082C2020.32 254.082 2019.23 253.945 2018.24 253.671C2017.25 253.396 2016.4 252.957 2015.68 252.353C2014.97 251.694 2014.42 250.871 2014.04 249.883C2013.65 248.84 2013.46 247.55 2013.46 246.013V216.452H2009.84V213.818L2013.79 213.241L2014.7 205.583H2018.57V213.241H2027.38V216.452H2018.57V245.107C2018.57 246.644 2018.84 247.934 2019.39 248.977C2019.94 250.02 2021.15 250.542 2023.01 250.542C2023.78 250.542 2024.6 250.514 2025.48 250.459C2026.36 250.35 2026.99 250.295 2027.38 250.295V253.588C2026.94 253.588 2026.17 253.671 2025.07 253.835C2023.97 254 2022.79 254.082 2021.53 254.082ZM2042.54 254.576C2039.58 254.576 2037.27 254.22 2035.63 253.506C2033.98 252.737 2032.83 251.557 2032.17 249.965C2031.51 248.318 2031.18 246.15 2031.18 243.46V239.92H2036.37V244.613C2036.37 247.193 2036.81 248.977 2037.69 249.965C2038.56 250.953 2040.16 251.447 2042.46 251.447C2044.49 251.447 2045.97 250.953 2046.91 249.965C2047.9 248.977 2048.39 247.303 2048.39 244.942V242.637C2048.39 241.374 2048.2 240.304 2047.81 239.426C2047.43 238.492 2046.69 237.642 2045.59 236.873C2044.55 236.105 2043.06 235.336 2041.14 234.567C2039.33 233.854 2037.74 233.085 2036.37 232.262C2035 231.439 2033.9 230.396 2033.07 229.133C2032.31 227.87 2031.92 226.251 2031.92 224.275V221.805C2031.92 218.895 2032.74 216.645 2034.39 215.053C2036.09 213.406 2038.95 212.582 2042.95 212.582C2045.59 212.582 2047.68 212.939 2049.21 213.653C2050.8 214.366 2051.96 215.519 2052.67 217.111C2053.44 218.703 2053.82 220.762 2053.82 223.287V226.745H2048.8V222.793C2048.8 220.048 2048.33 218.182 2047.4 217.194C2046.47 216.151 2044.99 215.629 2042.95 215.629C2040.65 215.629 2039.08 216.178 2038.26 217.276C2037.49 218.374 2037.11 219.746 2037.11 221.393V223.616C2037.11 225.153 2037.44 226.416 2038.1 227.404C2038.81 228.392 2039.8 229.215 2041.06 229.874C2042.32 230.533 2043.83 231.219 2045.59 231.933C2047.18 232.591 2048.58 233.305 2049.79 234.073C2051.05 234.787 2052.04 235.775 2052.75 237.038C2053.47 238.3 2053.82 240.029 2053.82 242.225V244.119C2053.82 246.315 2053.47 248.209 2052.75 249.801C2052.09 251.338 2050.94 252.518 2049.3 253.341C2047.65 254.165 2045.4 254.576 2042.54 254.576ZM2064.09 254.576C2063.21 254.576 2062.47 254.274 2061.87 253.671C2061.26 253.067 2060.96 252.353 2060.96 251.53C2060.96 250.706 2061.26 249.993 2061.87 249.389C2062.47 248.785 2063.21 248.483 2064.09 248.483C2064.97 248.483 2065.71 248.785 2066.31 249.389C2066.97 249.993 2067.3 250.706 2067.3 251.53C2067.3 252.353 2066.97 253.067 2066.31 253.671C2065.71 254.274 2064.97 254.576 2064.09 254.576ZM2095.9 254L2088.24 205.336H2093.43L2099.61 246.836L2107.1 205.336H2111.3L2118.63 246.754L2124.89 205.336H2130.15L2122.41 254H2116.49L2109.24 217.029L2101.99 254H2095.9ZM2136.15 254V202.125H2141.01V216.617C2141.67 215.355 2142.66 214.366 2143.97 213.653C2145.29 212.884 2146.97 212.5 2149 212.5C2151.91 212.5 2154.02 213.022 2155.34 214.065C2156.71 215.053 2157.59 216.37 2157.97 218.017C2158.36 219.609 2158.55 221.365 2158.55 223.287V254H2153.44V224.028C2153.44 223.204 2153.42 222.354 2153.36 221.475C2153.31 220.542 2153.09 219.691 2152.7 218.923C2152.37 218.154 2151.8 217.523 2150.97 217.029C2150.15 216.48 2148.94 216.205 2147.35 216.205C2145.92 216.205 2144.74 216.452 2143.81 216.946C2142.93 217.386 2142.27 217.907 2141.83 218.511C2141.45 219.115 2141.26 219.636 2141.26 220.075V254H2136.15ZM2174.04 254.576C2172.78 254.576 2171.49 254.384 2170.17 254C2168.91 253.671 2167.81 252.875 2166.87 251.612C2166 250.295 2165.56 248.264 2165.56 245.519V241.566C2165.56 238.822 2166.38 236.626 2168.03 234.979C2169.73 233.277 2172.03 231.768 2174.94 230.45C2176.81 229.517 2178.32 228.694 2179.47 227.98C2180.68 227.267 2181.59 226.471 2182.19 225.592C2182.79 224.714 2183.1 223.534 2183.1 222.052V220.322C2183.1 219.005 2182.82 217.989 2182.27 217.276C2181.72 216.562 2180.98 216.068 2180.05 215.794C2179.17 215.519 2178.24 215.382 2177.25 215.382C2174.78 215.382 2173.16 216.068 2172.39 217.441C2171.62 218.758 2171.24 220.734 2171.24 223.369V226.827H2166.55V222.875C2166.55 220.844 2166.82 219.06 2167.37 217.523C2167.92 215.931 2168.96 214.696 2170.5 213.818C2172.03 212.884 2174.29 212.418 2177.25 212.418C2180.38 212.418 2182.71 212.775 2184.25 213.488C2185.84 214.202 2186.88 215.217 2187.38 216.535C2187.93 217.852 2188.2 219.417 2188.2 221.228V254H2183.18L2183.1 248.895C2182.44 250.761 2181.26 252.188 2179.56 253.177C2177.85 254.11 2176.01 254.576 2174.04 254.576ZM2175.93 251.118C2178.4 251.118 2180.19 250.24 2181.28 248.483C2182.44 246.727 2183.01 244.394 2183.01 241.484V228.474C2182.46 229.353 2181.56 230.149 2180.3 230.862C2179.03 231.576 2177.74 232.289 2176.43 233.003C2174.56 234.101 2173.11 235.254 2172.06 236.461C2171.07 237.614 2170.58 239.233 2170.58 241.319V244.531C2170.58 246.507 2170.85 247.962 2171.4 248.895C2171.95 249.828 2172.64 250.432 2173.46 250.706C2174.29 250.981 2175.11 251.118 2175.93 251.118ZM2205.03 254.082C2203.82 254.082 2202.72 253.945 2201.74 253.671C2200.75 253.396 2199.9 252.957 2199.18 252.353C2198.47 251.694 2197.92 250.871 2197.54 249.883C2197.15 248.84 2196.96 247.55 2196.96 246.013V216.452H2193.34V213.818L2197.29 213.241L2198.2 205.583H2202.07V213.241H2210.88V216.452H2202.07V245.107C2202.07 246.644 2202.34 247.934 2202.89 248.977C2203.44 250.02 2204.65 250.542 2206.51 250.542C2207.28 250.542 2208.1 250.514 2208.98 250.459C2209.86 250.35 2210.49 250.295 2210.88 250.295V253.588C2210.44 253.588 2209.67 253.671 2208.57 253.835C2207.47 254 2206.29 254.082 2205.03 254.082ZM2241.9 254.741C2239.15 254.741 2236.93 254.439 2235.23 253.835C2233.53 253.177 2232.29 251.996 2231.52 250.295C2230.75 248.593 2230.37 246.123 2230.37 242.884V222.546C2230.37 218.703 2231.22 216.068 2232.92 214.641C2234.68 213.214 2237.56 212.5 2241.57 212.5C2245.47 212.5 2248.27 213.214 2249.97 214.641C2251.72 216.068 2252.6 218.703 2252.6 222.546V233.085H2235.48V244.613C2235.48 247.248 2235.89 249.087 2236.71 250.13C2237.53 251.118 2239.21 251.612 2241.73 251.612C2244.04 251.612 2245.58 251.118 2246.34 250.13C2247.11 249.142 2247.5 247.303 2247.5 244.613V239.343H2252.6V242.802C2252.6 245.985 2252.22 248.456 2251.45 250.212C2250.68 251.914 2249.5 253.094 2247.91 253.753C2246.37 254.412 2244.37 254.741 2241.9 254.741ZM2235.48 230.45H2247.5V222.381C2247.5 220.075 2247.11 218.401 2246.34 217.358C2245.58 216.315 2243.98 215.794 2241.57 215.794C2239.15 215.794 2237.53 216.315 2236.71 217.358C2235.89 218.401 2235.48 220.075 2235.48 222.381V230.45ZM2259.9 254V213.241H2264.19L2264.76 217.77C2265.37 216.178 2266.35 214.915 2267.73 213.982C2269.15 213.049 2270.88 212.582 2272.91 212.582C2276.1 212.582 2278.32 213.241 2279.58 214.559C2280.9 215.876 2281.59 217.797 2281.64 220.322L2280.74 220.405C2281.29 218.044 2282.33 216.151 2283.87 214.723C2285.46 213.296 2287.49 212.582 2289.96 212.582C2293.36 212.582 2295.67 213.378 2296.88 214.97C2298.14 216.562 2298.77 219.005 2298.77 222.299V254H2293.66V223.204C2293.66 220.569 2293.25 218.785 2292.43 217.852C2291.66 216.864 2290.32 216.37 2288.39 216.37C2286.58 216.37 2285.07 216.919 2283.87 218.017C2282.66 219.06 2282 220.377 2281.89 221.969V254H2276.78V222.546C2276.78 220.295 2276.37 218.703 2275.55 217.77C2274.78 216.837 2273.38 216.37 2271.35 216.37C2269.48 216.37 2268.06 216.809 2267.07 217.688C2266.14 218.566 2265.45 219.609 2265.01 220.817V254H2259.9ZM2306.86 263.552V213.241H2311.64L2311.81 216.864C2312.3 215.711 2313.1 214.723 2314.19 213.9C2315.29 213.076 2317.1 212.665 2319.63 212.665C2322.21 212.665 2324.18 213.104 2325.56 213.982C2326.93 214.861 2327.89 216.068 2328.44 217.605C2328.99 219.142 2329.26 220.926 2329.26 222.957V243.049C2329.26 245.299 2329.01 247.303 2328.52 249.06C2328.03 250.816 2327.09 252.188 2325.72 253.177C2324.35 254.11 2322.32 254.576 2319.63 254.576C2317.54 254.576 2315.87 254.247 2314.6 253.588C2313.4 252.93 2312.49 252.106 2311.89 251.118V263.552H2306.86ZM2318.06 251.447C2319.6 251.447 2320.78 251.228 2321.6 250.789C2322.43 250.35 2323.03 249.773 2323.42 249.06C2323.8 248.291 2324.02 247.468 2324.07 246.589C2324.13 245.656 2324.16 244.668 2324.16 243.625V223.781C2324.16 222.738 2324.13 221.777 2324.07 220.899C2324.02 219.966 2323.8 219.115 2323.42 218.346C2323.03 217.578 2322.43 216.974 2321.6 216.535C2320.78 216.096 2319.6 215.876 2318.06 215.876C2316.53 215.876 2315.35 216.151 2314.52 216.699C2313.7 217.248 2313.1 217.989 2312.71 218.923C2312.33 219.801 2312.11 220.762 2312.05 221.805C2312 222.848 2311.97 223.836 2311.97 224.769V244.201C2311.97 245.519 2312.08 246.754 2312.3 247.907C2312.57 249.005 2313.12 249.883 2313.95 250.542C2314.82 251.146 2316.2 251.447 2318.06 251.447ZM2336.94 254V201.796H2341.96V254H2336.94ZM2360.9 254.576C2358.37 254.576 2356.26 254.247 2354.56 253.588C2352.91 252.875 2351.68 251.64 2350.85 249.883C2350.09 248.126 2349.7 245.711 2349.7 242.637V223.616C2349.7 219.664 2350.55 216.837 2352.25 215.135C2354.01 213.433 2356.89 212.582 2360.9 212.582C2364.91 212.582 2367.76 213.406 2369.46 215.053C2371.22 216.699 2372.1 219.554 2372.1 223.616V242.637C2372.1 245.711 2371.71 248.126 2370.94 249.883C2370.18 251.585 2368.97 252.792 2367.32 253.506C2365.68 254.22 2363.53 254.576 2360.9 254.576ZM2360.9 251.365C2363.09 251.365 2364.66 250.816 2365.59 249.718C2366.53 248.62 2366.99 246.617 2366.99 243.707V223.369C2366.99 220.679 2366.55 218.758 2365.68 217.605C2364.8 216.398 2363.2 215.794 2360.9 215.794C2358.76 215.794 2357.19 216.37 2356.21 217.523C2355.27 218.621 2354.81 220.569 2354.81 223.369V243.707C2354.81 246.562 2355.27 248.565 2356.21 249.718C2357.19 250.816 2358.76 251.365 2360.9 251.365ZM2381.03 263.634C2379.88 263.634 2378.84 263.552 2377.91 263.387C2377.03 263.222 2376.34 263.085 2375.85 262.975V259.929C2376.01 260.038 2376.37 260.148 2376.92 260.258C2377.52 260.368 2378.21 260.423 2378.98 260.423C2379.8 260.423 2380.71 260.285 2381.69 260.011C2382.74 259.736 2383.59 258.968 2384.25 257.705C2384.58 257.156 2384.93 256.525 2385.32 255.812C2385.76 255.098 2385.87 254.274 2385.65 253.341L2376.26 213.241H2381.53L2389.02 248.813H2388.94L2396.19 213.241H2401.04L2392.15 252.436C2391.33 256.223 2390.04 259.023 2388.28 260.834C2386.52 262.701 2384.11 263.634 2381.03 263.634ZM2405.93 254V213.241H2410.21L2410.79 217.77C2411.39 216.178 2412.38 214.915 2413.75 213.982C2415.18 213.049 2416.91 212.582 2418.94 212.582C2422.13 212.582 2424.35 213.241 2425.61 214.559C2426.93 215.876 2427.61 217.797 2427.67 220.322L2426.76 220.405C2427.31 218.044 2428.36 216.151 2429.89 214.723C2431.48 213.296 2433.52 212.582 2435.99 212.582C2439.39 212.582 2441.69 213.378 2442.9 214.97C2444.17 216.562 2444.8 219.005 2444.8 222.299V254H2439.69V223.204C2439.69 220.569 2439.28 218.785 2438.46 217.852C2437.69 216.864 2436.34 216.37 2434.42 216.37C2432.61 216.37 2431.1 216.919 2429.89 218.017C2428.69 219.06 2428.03 220.377 2427.92 221.969V254H2422.81V222.546C2422.81 220.295 2422.4 218.703 2421.58 217.77C2420.81 216.837 2419.41 216.37 2417.38 216.37C2415.51 216.37 2414.08 216.809 2413.1 217.688C2412.16 218.566 2411.48 219.609 2411.04 220.817V254H2405.93ZM2463.43 254.741C2460.69 254.741 2458.46 254.439 2456.76 253.835C2455.06 253.177 2453.82 251.996 2453.06 250.295C2452.29 248.593 2451.9 246.123 2451.9 242.884V222.546C2451.9 218.703 2452.75 216.068 2454.46 214.641C2456.21 213.214 2459.09 212.5 2463.1 212.5C2467 212.5 2469.8 213.214 2471.5 214.641C2473.26 216.068 2474.14 218.703 2474.14 222.546V233.085H2457.01V244.613C2457.01 247.248 2457.42 249.087 2458.24 250.13C2459.07 251.118 2460.74 251.612 2463.27 251.612C2465.57 251.612 2467.11 251.118 2467.88 250.13C2468.65 249.142 2469.03 247.303 2469.03 244.613V239.343H2474.14V242.802C2474.14 245.985 2473.75 248.456 2472.98 250.212C2472.21 251.914 2471.03 253.094 2469.44 253.753C2467.91 254.412 2465.9 254.741 2463.43 254.741ZM2457.01 230.45H2469.03V222.381C2469.03 220.075 2468.65 218.401 2467.88 217.358C2467.11 216.315 2465.52 215.794 2463.1 215.794C2460.69 215.794 2459.07 216.315 2458.24 217.358C2457.42 218.401 2457.01 220.075 2457.01 222.381V230.45ZM2481.44 254V213.241H2485.64L2486.3 217.605C2486.73 215.958 2487.75 214.696 2489.34 213.818C2490.93 212.939 2492.58 212.5 2494.28 212.5C2497.19 212.5 2499.31 213.022 2500.62 214.065C2502 215.053 2502.87 216.37 2503.26 218.017C2503.64 219.609 2503.83 221.365 2503.83 223.287V254H2498.73V224.028C2498.73 223.04 2498.7 222.079 2498.65 221.146C2498.59 220.213 2498.37 219.389 2497.99 218.676C2497.66 217.907 2497.08 217.303 2496.26 216.864C2495.44 216.425 2494.23 216.205 2492.64 216.205C2491.26 216.205 2490.14 216.48 2489.26 217.029C2488.44 217.523 2487.81 218.127 2487.37 218.84C2486.98 219.499 2486.71 220.13 2486.54 220.734V254H2481.44ZM2520.72 254.082C2519.52 254.082 2518.42 253.945 2517.43 253.671C2516.44 253.396 2515.59 252.957 2514.88 252.353C2514.16 251.694 2513.62 250.871 2513.23 249.883C2512.85 248.84 2512.65 247.55 2512.65 246.013V216.452H2509.03V213.818L2512.98 213.241L2513.89 205.583H2517.76V213.241H2526.57V216.452H2517.76V245.107C2517.76 246.644 2518.03 247.934 2518.58 248.977C2519.13 250.02 2520.34 250.542 2522.21 250.542C2522.97 250.542 2523.8 250.514 2524.68 250.459C2525.55 250.35 2526.19 250.295 2526.57 250.295V253.588C2526.13 253.588 2525.36 253.671 2524.26 253.835C2523.17 254 2521.99 254.082 2520.72 254.082ZM2547.05 263.552V213.241H2551.83L2551.99 216.864C2552.49 215.711 2553.28 214.723 2554.38 213.9C2555.48 213.076 2557.29 212.665 2559.82 212.665C2562.4 212.665 2564.37 213.104 2565.74 213.982C2567.12 214.861 2568.08 216.068 2568.63 217.605C2569.18 219.142 2569.45 220.926 2569.45 222.957V243.049C2569.45 245.299 2569.2 247.303 2568.71 249.06C2568.21 250.816 2567.28 252.188 2565.91 253.177C2564.54 254.11 2562.51 254.576 2559.82 254.576C2557.73 254.576 2556.06 254.247 2554.79 253.588C2553.59 252.93 2552.68 252.106 2552.08 251.118V263.552H2547.05ZM2558.25 251.447C2559.79 251.447 2560.97 251.228 2561.79 250.789C2562.62 250.35 2563.22 249.773 2563.6 249.06C2563.99 248.291 2564.21 247.468 2564.26 246.589C2564.32 245.656 2564.34 244.668 2564.34 243.625V223.781C2564.34 222.738 2564.32 221.777 2564.26 220.899C2564.21 219.966 2563.99 219.115 2563.6 218.346C2563.22 217.578 2562.62 216.974 2561.79 216.535C2560.97 216.096 2559.79 215.876 2558.25 215.876C2556.71 215.876 2555.53 216.151 2554.71 216.699C2553.89 217.248 2553.28 217.989 2552.9 218.923C2552.52 219.801 2552.3 220.762 2552.24 221.805C2552.19 222.848 2552.16 223.836 2552.16 224.769V244.201C2552.16 245.519 2552.27 246.754 2552.49 247.907C2552.76 249.005 2553.31 249.883 2554.13 250.542C2555.01 251.146 2556.39 251.447 2558.25 251.447ZM2584.54 254.576C2583.28 254.576 2581.99 254.384 2580.67 254C2579.41 253.671 2578.31 252.875 2577.37 251.612C2576.5 250.295 2576.06 248.264 2576.06 245.519V241.566C2576.06 238.822 2576.88 236.626 2578.53 234.979C2580.23 233.277 2582.53 231.768 2585.44 230.45C2587.31 229.517 2588.82 228.694 2589.97 227.98C2591.18 227.267 2592.09 226.471 2592.69 225.592C2593.29 224.714 2593.6 223.534 2593.6 222.052V220.322C2593.6 219.005 2593.32 217.989 2592.77 217.276C2592.22 216.562 2591.48 216.068 2590.55 215.794C2589.67 215.519 2588.74 215.382 2587.75 215.382C2585.28 215.382 2583.66 216.068 2582.89 217.441C2582.12 218.758 2581.74 220.734 2581.74 223.369V226.827H2577.04V222.875C2577.04 220.844 2577.32 219.06 2577.87 217.523C2578.42 215.931 2579.46 214.696 2581 213.818C2582.53 212.884 2584.78 212.418 2587.75 212.418C2590.88 212.418 2593.21 212.775 2594.75 213.488C2596.34 214.202 2597.38 215.217 2597.88 216.535C2598.43 217.852 2598.7 219.417 2598.7 221.228V254H2593.68L2593.6 248.895C2592.94 250.761 2591.76 252.188 2590.05 253.177C2588.35 254.11 2586.51 254.576 2584.54 254.576ZM2586.43 251.118C2588.9 251.118 2590.69 250.24 2591.78 248.483C2592.94 246.727 2593.51 244.394 2593.51 241.484V228.474C2592.96 229.353 2592.06 230.149 2590.8 230.862C2589.53 231.576 2588.24 232.289 2586.93 233.003C2585.06 234.101 2583.6 235.254 2582.56 236.461C2581.57 237.614 2581.08 239.233 2581.08 241.319V244.531C2581.08 246.507 2581.35 247.962 2581.9 248.895C2582.45 249.828 2583.14 250.432 2583.96 250.706C2584.78 250.981 2585.61 251.118 2586.43 251.118ZM2615.53 254.082C2614.32 254.082 2613.22 253.945 2612.24 253.671C2611.25 253.396 2610.4 252.957 2609.68 252.353C2608.97 251.694 2608.42 250.871 2608.04 249.883C2607.65 248.84 2607.46 247.55 2607.46 246.013V216.452H2603.84V213.818L2607.79 213.241L2608.69 205.583H2612.56V213.241H2621.38V216.452H2612.56V245.107C2612.56 246.644 2612.84 247.934 2613.39 248.977C2613.94 250.02 2615.14 250.542 2617.01 250.542C2617.78 250.542 2618.6 250.514 2619.48 250.459C2620.36 250.35 2620.99 250.295 2621.38 250.295V253.588C2620.94 253.588 2620.17 253.671 2619.07 253.835C2617.97 254 2616.79 254.082 2615.53 254.082ZM2635.47 254.082C2634.26 254.082 2633.17 253.945 2632.18 253.671C2631.19 253.396 2630.34 252.957 2629.62 252.353C2628.91 251.694 2628.36 250.871 2627.98 249.883C2627.59 248.84 2627.4 247.55 2627.4 246.013V216.452H2623.78V213.818L2627.73 213.241L2628.64 205.583H2632.51V213.241H2641.32V216.452H2632.51V245.107C2632.51 246.644 2632.78 247.934 2633.33 248.977C2633.88 250.02 2635.09 250.542 2636.95 250.542C2637.72 250.542 2638.55 250.514 2639.42 250.459C2640.3 250.35 2640.93 250.295 2641.32 250.295V253.588C2640.88 253.588 2640.11 253.671 2639.01 253.835C2637.91 254 2636.73 254.082 2635.47 254.082ZM2657.06 254.741C2654.32 254.741 2652.09 254.439 2650.39 253.835C2648.69 253.177 2647.46 251.996 2646.69 250.295C2645.92 248.593 2645.53 246.123 2645.53 242.884V222.546C2645.53 218.703 2646.38 216.068 2648.09 214.641C2649.84 213.214 2652.73 212.5 2656.73 212.5C2660.63 212.5 2663.43 213.214 2665.13 214.641C2666.89 216.068 2667.77 218.703 2667.77 222.546V233.085H2650.64V244.613C2650.64 247.248 2651.05 249.087 2651.87 250.13C2652.7 251.118 2654.37 251.612 2656.9 251.612C2659.2 251.612 2660.74 251.118 2661.51 250.13C2662.28 249.142 2662.66 247.303 2662.66 244.613V239.343H2667.77V242.802C2667.77 245.985 2667.38 248.456 2666.61 250.212C2665.84 251.914 2664.66 253.094 2663.07 253.753C2661.54 254.412 2659.53 254.741 2657.06 254.741ZM2650.64 230.45H2662.66V222.381C2662.66 220.075 2662.28 218.401 2661.51 217.358C2660.74 216.315 2659.15 215.794 2656.73 215.794C2654.32 215.794 2652.7 216.315 2651.87 217.358C2651.05 218.401 2650.64 220.075 2650.64 222.381V230.45ZM2675.07 254V213.241H2679.35L2679.93 217.605C2680.53 216.068 2681.52 214.97 2682.89 214.312C2684.26 213.653 2685.64 213.241 2687.01 213.076C2688.54 212.747 2690.03 212.72 2691.45 212.994V217.029C2691.23 216.974 2690.85 216.919 2690.3 216.864C2689.75 216.809 2689.15 216.782 2688.49 216.782C2687.89 216.782 2687.31 216.892 2686.76 217.111C2684.89 217.331 2683.33 218.017 2682.07 219.17C2680.8 220.268 2680.17 221.777 2680.17 223.698V254H2675.07ZM2695.89 254V213.241H2700.09L2700.75 217.605C2701.19 215.958 2702.21 214.696 2703.8 213.818C2705.39 212.939 2707.04 212.5 2708.74 212.5C2711.65 212.5 2713.76 213.022 2715.08 214.065C2716.45 215.053 2717.33 216.37 2717.72 218.017C2718.1 219.609 2718.29 221.365 2718.29 223.287V254H2713.19V224.028C2713.19 223.04 2713.16 222.079 2713.1 221.146C2713.05 220.213 2712.83 219.389 2712.45 218.676C2712.12 217.907 2711.54 217.303 2710.72 216.864C2709.89 216.425 2708.68 216.205 2707.09 216.205C2705.72 216.205 2704.6 216.48 2703.72 217.029C2702.89 217.523 2702.26 218.127 2701.82 218.84C2701.44 219.499 2701.16 220.13 2701 220.734V254H2695.89ZM2736.25 254.576C2733.29 254.576 2730.98 254.22 2729.33 253.506C2727.69 252.737 2726.54 251.557 2725.88 249.965C2725.22 248.318 2724.89 246.15 2724.89 243.46V239.92H2730.08V244.613C2730.08 247.193 2730.51 248.977 2731.39 249.965C2732.27 250.953 2733.86 251.447 2736.17 251.447C2738.2 251.447 2739.68 250.953 2740.62 249.965C2741.6 248.977 2742.1 247.303 2742.1 244.942V242.637C2742.1 241.374 2741.91 240.304 2741.52 239.426C2741.14 238.492 2740.4 237.642 2739.3 236.873C2738.26 236.105 2736.77 235.336 2734.85 234.567C2733.04 233.854 2731.45 233.085 2730.08 232.262C2728.7 231.439 2727.61 230.396 2726.78 229.133C2726.01 227.87 2725.63 226.251 2725.63 224.275V221.805C2725.63 218.895 2726.45 216.645 2728.1 215.053C2729.8 213.406 2732.66 212.582 2736.66 212.582C2739.3 212.582 2741.38 212.939 2742.92 213.653C2744.51 214.366 2745.67 215.519 2746.38 217.111C2747.15 218.703 2747.53 220.762 2747.53 223.287V226.745H2742.51V222.793C2742.51 220.048 2742.04 218.182 2741.11 217.194C2740.18 216.151 2738.69 215.629 2736.66 215.629C2734.36 215.629 2732.79 216.178 2731.97 217.276C2731.2 218.374 2730.82 219.746 2730.82 221.393V223.616C2730.82 225.153 2731.15 226.416 2731.8 227.404C2732.52 228.392 2733.51 229.215 2734.77 229.874C2736.03 230.533 2737.54 231.219 2739.3 231.933C2740.89 232.591 2742.29 233.305 2743.5 234.073C2744.76 234.787 2745.75 235.775 2746.46 237.038C2747.18 238.3 2747.53 240.029 2747.53 242.225V244.119C2747.53 246.315 2747.18 248.209 2746.46 249.801C2745.8 251.338 2744.65 252.518 2743 253.341C2741.36 254.165 2739.11 254.576 2736.25 254.576ZM2779.17 254.659C2777.14 254.659 2775.47 254.412 2774.15 253.918C2772.83 253.369 2771.79 252.628 2771.02 251.694C2770.31 250.706 2769.81 249.499 2769.54 248.071C2769.26 246.589 2769.13 244.915 2769.13 243.049V222.71C2769.13 221.228 2769.26 219.883 2769.54 218.676C2769.87 217.413 2770.39 216.343 2771.1 215.464C2771.82 214.531 2772.78 213.818 2773.98 213.323C2775.19 212.775 2776.73 212.5 2778.6 212.5C2780.79 212.5 2782.49 212.829 2783.7 213.488C2784.96 214.147 2785.87 214.943 2786.42 215.876V202.125H2791.52V254H2787.98L2787.49 250.13C2787.16 250.844 2786.66 251.557 2786.01 252.271C2785.4 252.93 2784.55 253.506 2783.45 254C2782.41 254.439 2780.98 254.659 2779.17 254.659ZM2780.08 251.53C2781.67 251.53 2782.9 251.255 2783.78 250.706C2784.66 250.103 2785.27 249.334 2785.59 248.401C2785.98 247.468 2786.2 246.452 2786.25 245.354C2786.36 244.201 2786.42 243.076 2786.42 241.978V219.664C2786.25 219.17 2785.95 218.621 2785.51 218.017C2785.13 217.413 2784.52 216.892 2783.7 216.452C2782.88 216.013 2781.75 215.794 2780.32 215.794C2778.73 215.794 2777.53 216.013 2776.7 216.452C2775.88 216.892 2775.27 217.495 2774.89 218.264C2774.56 218.978 2774.37 219.801 2774.31 220.734C2774.26 221.667 2774.23 222.628 2774.23 223.616V243.707C2774.23 245.025 2774.31 246.287 2774.48 247.495C2774.64 248.703 2775.14 249.691 2775.96 250.459C2776.78 251.173 2778.16 251.53 2780.08 251.53ZM2810.4 254.576C2807.87 254.576 2805.76 254.247 2804.06 253.588C2802.41 252.875 2801.18 251.64 2800.35 249.883C2799.58 248.126 2799.2 245.711 2799.2 242.637V223.616C2799.2 219.664 2800.05 216.837 2801.75 215.135C2803.51 213.433 2806.39 212.582 2810.4 212.582C2814.41 212.582 2817.26 213.406 2818.96 215.053C2820.72 216.699 2821.6 219.554 2821.6 223.616V242.637C2821.6 245.711 2821.21 248.126 2820.44 249.883C2819.68 251.585 2818.47 252.792 2816.82 253.506C2815.17 254.22 2813.03 254.576 2810.4 254.576ZM2810.4 251.365C2812.59 251.365 2814.16 250.816 2815.09 249.718C2816.03 248.62 2816.49 246.617 2816.49 243.707V223.369C2816.49 220.679 2816.05 218.758 2815.17 217.605C2814.3 216.398 2812.7 215.794 2810.4 215.794C2808.26 215.794 2806.69 216.37 2805.7 217.523C2804.77 218.621 2804.31 220.569 2804.31 223.369V243.707C2804.31 246.562 2804.77 248.565 2805.7 249.718C2806.69 250.816 2808.26 251.365 2810.4 251.365ZM2845.73 263.634C2844.58 263.634 2843.54 263.552 2842.6 263.387C2841.72 263.222 2841.04 263.085 2840.54 262.975V259.929C2840.71 260.038 2841.07 260.148 2841.61 260.258C2842.22 260.368 2842.9 260.423 2843.67 260.423C2844.5 260.423 2845.4 260.285 2846.39 260.011C2847.43 259.736 2848.28 258.968 2848.94 257.705C2849.27 257.156 2849.63 256.525 2850.01 255.812C2850.45 255.098 2850.56 254.274 2850.34 253.341L2840.96 213.241H2846.23L2853.72 248.813H2853.64L2860.88 213.241H2865.74L2856.85 252.436C2856.02 256.223 2854.73 259.023 2852.98 260.834C2851.22 262.701 2848.81 263.634 2845.73 263.634ZM2880.84 254.576C2878.31 254.576 2876.2 254.247 2874.5 253.588C2872.85 252.875 2871.62 251.64 2870.79 249.883C2870.02 248.126 2869.64 245.711 2869.64 242.637V223.616C2869.64 219.664 2870.49 216.837 2872.19 215.135C2873.95 213.433 2876.83 212.582 2880.84 212.582C2884.85 212.582 2887.7 213.406 2889.4 215.053C2891.16 216.699 2892.04 219.554 2892.04 223.616V242.637C2892.04 245.711 2891.65 248.126 2890.88 249.883C2890.12 251.585 2888.91 252.792 2887.26 253.506C2885.61 254.22 2883.47 254.576 2880.84 254.576ZM2880.84 251.365C2883.03 251.365 2884.6 250.816 2885.53 249.718C2886.47 248.62 2886.93 246.617 2886.93 243.707V223.369C2886.93 220.679 2886.49 218.758 2885.61 217.605C2884.74 216.398 2883.14 215.794 2880.84 215.794C2878.7 215.794 2877.13 216.37 2876.15 217.523C2875.21 218.621 2874.75 220.569 2874.75 223.369V243.707C2874.75 246.562 2875.21 248.565 2876.15 249.718C2877.13 250.816 2878.7 251.365 2880.84 251.365ZM2908.63 254.659C2905.78 254.659 2903.66 254.165 2902.29 253.177C2900.92 252.134 2900.04 250.789 2899.66 249.142C2899.27 247.495 2899.08 245.738 2899.08 243.872V213.241H2904.19V243.213C2904.19 244.421 2904.24 245.629 2904.35 246.836C2904.51 247.989 2905.04 248.95 2905.91 249.718C2906.79 250.432 2908.25 250.789 2910.28 250.789C2911.71 250.789 2912.83 250.542 2913.65 250.048C2914.48 249.554 2915.11 248.977 2915.55 248.318C2915.99 247.605 2916.26 246.974 2916.37 246.425V213.241H2921.48V254H2917.11L2916.7 249.554C2916.26 250.871 2915.36 252.051 2913.98 253.094C2912.67 254.137 2910.88 254.659 2908.63 254.659ZM2955.62 254.576C2953.1 254.576 2950.98 254.247 2949.28 253.588C2947.63 252.875 2946.4 251.64 2945.58 249.883C2944.81 248.126 2944.42 245.711 2944.42 242.637V223.616C2944.42 219.664 2945.27 216.837 2946.98 215.135C2948.73 213.433 2951.61 212.582 2955.62 212.582C2959.63 212.582 2962.48 213.406 2964.18 215.053C2965.94 216.699 2966.82 219.554 2966.82 223.616V242.637C2966.82 245.711 2966.44 248.126 2965.67 249.883C2964.9 251.585 2963.69 252.792 2962.04 253.506C2960.4 254.22 2958.26 254.576 2955.62 254.576ZM2955.62 251.365C2957.82 251.365 2959.38 250.816 2960.31 249.718C2961.25 248.62 2961.71 246.617 2961.71 243.707V223.369C2961.71 220.679 2961.28 218.758 2960.4 217.605C2959.52 216.398 2957.93 215.794 2955.62 215.794C2953.48 215.794 2951.92 216.37 2950.93 217.523C2949.99 218.621 2949.53 220.569 2949.53 223.369V243.707C2949.53 246.562 2949.99 248.565 2950.93 249.718C2951.92 250.816 2953.48 251.365 2955.62 251.365ZM2986.54 254.576C2983.96 254.576 2982.04 254.137 2980.78 253.259C2979.57 252.326 2978.75 251.31 2978.31 250.212L2978.06 254H2974.44V202.125H2979.46V216.617C2980.12 215.245 2981.08 214.229 2982.34 213.57C2983.66 212.857 2985.31 212.5 2987.28 212.5C2989.37 212.5 2991.13 212.829 2992.55 213.488C2993.98 214.147 2995.05 215.217 2995.77 216.699C2996.48 218.182 2996.84 220.24 2996.84 222.875V243.049C2996.84 245.299 2996.62 247.166 2996.18 248.648C2995.79 250.13 2995.19 251.31 2994.37 252.188C2993.54 253.067 2992.47 253.671 2991.15 254C2989.89 254.384 2988.35 254.576 2986.54 254.576ZM2985.64 250.953C2987.17 250.953 2988.38 250.734 2989.26 250.295C2990.14 249.855 2990.77 249.114 2991.15 248.071C2991.54 246.974 2991.73 245.464 2991.73 243.543V223.04C2991.73 220.295 2991.26 218.429 2990.33 217.441C2989.45 216.452 2987.89 215.958 2985.64 215.958C2983.33 215.958 2981.74 216.535 2980.86 217.688C2979.98 218.84 2979.54 220.515 2979.54 222.71V243.049C2979.54 245.848 2980.01 247.879 2980.94 249.142C2981.93 250.35 2983.5 250.953 2985.64 250.953ZM3014.39 254.576C3011.43 254.576 3009.12 254.22 3007.48 253.506C3005.83 252.737 3004.68 251.557 3004.02 249.965C3003.36 248.318 3003.03 246.15 3003.03 243.46V239.92H3008.22V244.613C3008.22 247.193 3008.66 248.977 3009.54 249.965C3010.41 250.953 3012.01 251.447 3014.31 251.447C3016.34 251.447 3017.82 250.953 3018.76 249.965C3019.75 248.977 3020.24 247.303 3020.24 244.942V242.637C3020.24 241.374 3020.05 240.304 3019.66 239.426C3019.28 238.492 3018.54 237.642 3017.44 236.873C3016.4 236.105 3014.92 235.336 3012.99 234.567C3011.18 233.854 3009.59 233.085 3008.22 232.262C3006.85 231.439 3005.75 230.396 3004.92 229.133C3004.16 227.87 3003.77 226.251 3003.77 224.275V221.805C3003.77 218.895 3004.6 216.645 3006.24 215.053C3007.94 213.406 3010.8 212.582 3014.81 212.582C3017.44 212.582 3019.53 212.939 3021.06 213.653C3022.66 214.366 3023.81 215.519 3024.52 217.111C3025.29 218.703 3025.67 220.762 3025.67 223.287V226.745H3020.65V222.793C3020.65 220.048 3020.19 218.182 3019.25 217.194C3018.32 216.151 3016.84 215.629 3014.81 215.629C3012.5 215.629 3010.94 216.178 3010.11 217.276C3009.34 218.374 3008.96 219.746 3008.96 221.393V223.616C3008.96 225.153 3009.29 226.416 3009.95 227.404C3010.66 228.392 3011.65 229.215 3012.91 229.874C3014.17 230.533 3015.68 231.219 3017.44 231.933C3019.03 232.591 3020.43 233.305 3021.64 234.073C3022.9 234.787 3023.89 235.775 3024.6 237.038C3025.32 238.3 3025.67 240.029 3025.67 242.225V244.119C3025.67 246.315 3025.32 248.209 3024.6 249.801C3023.95 251.338 3022.79 252.518 3021.15 253.341C3019.5 254.165 3017.25 254.576 3014.39 254.576ZM3043.6 254.741C3040.85 254.741 3038.63 254.439 3036.93 253.835C3035.23 253.177 3033.99 251.996 3033.22 250.295C3032.46 248.593 3032.07 246.123 3032.07 242.884V222.546C3032.07 218.703 3032.92 216.068 3034.62 214.641C3036.38 213.214 3039.26 212.5 3043.27 212.5C3047.17 212.5 3049.97 213.214 3051.67 214.641C3053.42 216.068 3054.3 218.703 3054.3 222.546V233.085H3037.18V244.613C3037.18 247.248 3037.59 249.087 3038.41 250.13C3039.23 251.118 3040.91 251.612 3043.43 251.612C3045.74 251.612 3047.28 251.118 3048.05 250.13C3048.81 249.142 3049.2 247.303 3049.2 244.613V239.343H3054.3V242.802C3054.3 245.985 3053.92 248.456 3053.15 250.212C3052.38 251.914 3051.2 253.094 3049.61 253.753C3048.07 254.412 3046.07 254.741 3043.6 254.741ZM3037.18 230.45H3049.2V222.381C3049.2 220.075 3048.81 218.401 3048.05 217.358C3047.28 216.315 3045.68 215.794 3043.27 215.794C3040.85 215.794 3039.23 216.315 3038.41 217.358C3037.59 218.401 3037.18 220.075 3037.18 222.381V230.45ZM3061.61 254V213.241H3065.89L3066.46 217.605C3067.07 216.068 3068.06 214.97 3069.43 214.312C3070.8 213.653 3072.17 213.241 3073.54 213.076C3075.08 212.747 3076.56 212.72 3077.99 212.994V217.029C3077.77 216.974 3077.39 216.919 3076.84 216.864C3076.29 216.809 3075.69 216.782 3075.03 216.782C3074.42 216.782 3073.85 216.892 3073.3 217.111C3071.43 217.331 3069.87 218.017 3068.6 219.17C3067.34 220.268 3066.71 221.777 3066.71 223.698V254H3061.61ZM3088.77 254L3079.22 213.241H3084.49L3092.15 248.154H3091.98L3099.15 213.241H3104.01L3094.78 254H3088.77ZM3119.43 254.741C3116.68 254.741 3114.46 254.439 3112.76 253.835C3111.06 253.177 3109.82 251.996 3109.05 250.295C3108.28 248.593 3107.9 246.123 3107.9 242.884V222.546C3107.9 218.703 3108.75 216.068 3110.45 214.641C3112.21 213.214 3115.09 212.5 3119.1 212.5C3122.99 212.5 3125.79 213.214 3127.5 214.641C3129.25 216.068 3130.13 218.703 3130.13 222.546V233.085H3113V244.613C3113 247.248 3113.42 249.087 3114.24 250.13C3115.06 251.118 3116.74 251.612 3119.26 251.612C3121.57 251.612 3123.1 251.118 3123.87 250.13C3124.64 249.142 3125.03 247.303 3125.03 244.613V239.343H3130.13V242.802C3130.13 245.985 3129.75 248.456 3128.98 250.212C3128.21 251.914 3127.03 253.094 3125.44 253.753C3123.9 254.412 3121.9 254.741 3119.43 254.741ZM3113 230.45H3125.03V222.381C3125.03 220.075 3124.64 218.401 3123.87 217.358C3123.1 216.315 3121.51 215.794 3119.1 215.794C3116.68 215.794 3115.06 216.315 3114.24 217.358C3113.42 218.401 3113 220.075 3113 222.381V230.45ZM3143.2 241.566V231.521C3144.02 231.466 3144.84 231.411 3145.67 231.356C3146.49 231.301 3147.29 231.219 3148.05 231.109C3149.15 230.944 3150.28 230.533 3151.43 229.874C3152.58 229.215 3153.54 228.255 3154.31 226.992C3155.14 225.675 3155.55 224 3155.55 221.969V217.605C3155.55 214.97 3154.97 212.884 3153.82 211.347C3152.67 209.755 3150.83 208.959 3148.3 208.959C3146 208.959 3144.32 209.673 3143.28 211.1C3142.24 212.473 3141.71 214.421 3141.71 216.946V220.569H3136.53V216.617C3136.53 208.932 3140.48 205.089 3148.38 205.089C3151.35 205.089 3153.74 205.529 3155.55 206.407C3157.41 207.23 3158.76 208.575 3159.58 210.442C3160.41 212.253 3160.82 214.641 3160.82 217.605V221.805C3160.82 224.275 3160.3 226.388 3159.25 228.145C3158.21 229.847 3156.95 231.137 3155.47 232.015C3154.04 232.893 3152.58 233.442 3151.1 233.662C3150.55 233.662 3150 233.689 3149.45 233.744C3148.91 233.744 3148.33 233.744 3147.73 233.744V241.566H3143.2ZM3145.34 254.412C3144.46 254.412 3143.72 254.137 3143.11 253.588C3142.57 252.984 3142.29 252.271 3142.29 251.447C3142.29 250.569 3142.57 249.855 3143.11 249.307C3143.72 248.703 3144.46 248.401 3145.34 248.401C3146.22 248.401 3146.98 248.703 3147.64 249.307C3148.3 249.855 3148.63 250.569 3148.63 251.447C3148.63 252.271 3148.3 252.984 3147.64 253.588C3146.98 254.137 3146.22 254.412 3145.34 254.412Z" fill="#57BFDC"/>
<mask id="path-3-outside-1_93_11415" maskUnits="userSpaceOnUse" x="55.4831" y="201.015" width="301.424" height="267.129" fill="black">
<rect fill="white" x="55.4831" y="201.015" width="301.424" height="267.129"/>
<path d="M65.708 299.679C76.5367 325.333 93.2149 348.1 114.41 366.161C135.606 384.221 160.731 397.075 187.779 403.695C214.828 410.315 243.049 410.518 270.19 404.287C297.33 398.057 322.638 385.565 344.091 367.811L230.233 230.233L65.708 299.679Z"/>
</mask>
<path d="M65.708 299.679C76.5367 325.333 93.2149 348.1 114.41 366.161C135.606 384.221 160.731 397.075 187.779 403.695C214.828 410.315 243.049 410.518 270.19 404.287C297.33 398.057 322.638 385.565 344.091 367.811L230.233 230.233L65.708 299.679Z" fill="#FA863D"/>
<path d="M65.708 299.679C76.5367 325.333 93.2149 348.1 114.41 366.161C135.606 384.221 160.731 397.075 187.779 403.695C214.828 410.315 243.049 410.518 270.19 404.287C297.33 398.057 322.638 385.565 344.091 367.811L230.233 230.233L65.708 299.679Z" stroke="white" stroke-width="11.2873" mask="url(#path-3-outside-1_93_11415)"/>
<mask id="path-4-outside-2_93_11415" maskUnits="userSpaceOnUse" x="189.872" y="76.5888" width="274.79" height="319.548" fill="black">
<rect fill="white" x="189.872" y="76.5888" width="274.79" height="319.548"/>
<path d="M348.38 364.146C367.586 347.201 382.921 326.324 393.347 302.931C403.774 279.538 409.046 254.176 408.807 228.565C408.567 202.955 402.822 177.695 391.961 154.501C381.1 131.307 365.376 110.72 345.858 94.1373L230.233 230.233L348.38 364.146Z"/>
</mask>
<path d="M348.38 364.146C367.586 347.201 382.921 326.324 393.347 302.931C403.774 279.538 409.046 254.176 408.807 228.565C408.567 202.955 402.822 177.695 391.961 154.501C381.1 131.307 365.376 110.72 345.858 94.1373L230.233 230.233L348.38 364.146Z" fill="#57BFDC"/>
<path d="M348.38 364.146C367.586 347.201 382.921 326.324 393.347 302.931C403.774 279.538 409.046 254.176 408.807 228.565C408.567 202.955 402.822 177.695 391.961 154.501C381.1 131.307 365.376 110.72 345.858 94.1373L230.233 230.233L348.38 364.146Z" stroke="white" stroke-width="11.2873" mask="url(#path-4-outside-2_93_11415)"/>
<mask id="path-5-outside-3_93_11415" maskUnits="userSpaceOnUse" x="157.838" y="17.0385" width="229.965" height="232.871" fill="black">
<rect fill="white" x="157.838" y="17.0385" width="229.965" height="232.871"/>
<path d="M342.404 91.2771C316.218 70.1389 284.593 56.8299 251.172 52.8841L230.233 230.233L342.404 91.2771Z"/>
</mask>
<path d="M342.404 91.2771C316.218 70.1389 284.593 56.8299 251.172 52.8841L230.233 230.233L342.404 91.2771Z" fill="#FED767"/>
<path d="M342.404 91.2771C316.218 70.1389 284.593 56.8299 251.172 52.8841L230.233 230.233L342.404 91.2771Z" stroke="white" stroke-width="11.2873" mask="url(#path-5-outside-3_93_11415)"/>
<mask id="path-6-outside-4_93_11415" maskUnits="userSpaceOnUse" x="-7.52651" y="27.4609" width="320.837" height="276.08" fill="black">
<rect fill="white" x="-7.52651" y="27.4609" width="320.837" height="276.08"/>
<path d="M245.938 52.3442C215.586 49.6646 185.053 54.7958 157.244 67.2496C129.435 79.7035 105.275 99.0657 87.0623 123.494C68.85 147.923 57.191 176.605 53.1947 206.812C49.1985 237.019 52.9977 267.746 64.2311 296.07L230.233 230.233L245.938 52.3442Z"/>
</mask>
<path d="M245.938 52.3442C215.586 49.6646 185.053 54.7958 157.244 67.2496C129.435 79.7035 105.275 99.0657 87.0623 123.494C68.85 147.923 57.191 176.605 53.1947 206.812C49.1985 237.019 52.9977 267.746 64.2311 296.07L230.233 230.233L245.938 52.3442Z" fill="#475480"/>
<path d="M245.938 52.3442C215.586 49.6646 185.053 54.7958 157.244 67.2496C129.435 79.7035 105.275 99.0657 87.0623 123.494C68.85 147.923 57.191 176.605 53.1947 206.812C49.1985 237.019 52.9977 267.746 64.2311 296.07L230.233 230.233L245.938 52.3442Z" stroke="white" stroke-width="11.2873" mask="url(#path-6-outside-4_93_11415)"/>
<circle cx="230.233" cy="230.233" r="154.797" transform="rotate(159.269 230.233 230.233)" fill="white" stroke="white" stroke-width="5.64365"/>
<path d="M205.439 335.529L189.554 307.858C188.017 307.858 186.48 307.944 184.942 308.114C183.405 308.285 181.697 308.371 179.818 308.371C172.473 308.371 165.897 307.517 160.09 305.808C154.453 304.1 149.927 300.599 146.51 295.304C143.265 289.838 141.642 281.639 141.642 270.707V185.645C141.642 176.08 143.351 168.906 146.767 164.123C150.183 159.341 154.795 156.181 160.602 154.643C166.58 152.935 173.242 152.081 180.587 152.081C188.273 152.081 194.935 152.935 200.571 154.643C206.208 156.352 210.649 159.597 213.894 164.379C217.14 169.162 218.762 176.251 218.762 185.645V270.451C218.762 280.7 217.396 288.386 214.663 293.51C211.93 298.635 208.001 302.221 202.877 304.271L217.225 328.611L205.439 335.529ZM180.587 298.378C185.028 298.378 188.871 297.866 192.116 296.841C195.362 295.645 197.924 293.425 199.803 290.18C201.852 286.763 202.877 281.725 202.877 275.063V185.645C202.877 178.813 201.852 173.774 199.803 170.529C197.924 167.283 195.276 165.148 191.86 164.123C188.615 162.928 184.857 162.33 180.587 162.33C176.146 162.33 172.217 162.928 168.801 164.123C165.556 165.148 162.993 167.283 161.115 170.529C159.236 173.774 158.296 178.813 158.296 185.645V275.063C158.296 281.725 159.236 286.763 161.115 290.18C162.993 293.425 165.556 295.645 168.801 296.841C172.217 297.866 176.146 298.378 180.587 298.378ZM281.586 307.346C272.192 307.346 264.591 305.808 258.783 302.734C252.976 299.489 248.706 295.048 245.973 289.411C243.24 283.603 241.873 277.113 241.873 269.939V254.566H258.527V267.633C258.527 276.344 260.406 283.176 264.164 288.13C268.092 292.912 273.9 295.389 281.586 295.56C288.589 295.56 294.141 293.254 298.24 288.642C302.51 284.03 304.645 277.796 304.645 269.939V255.847C304.645 248.161 302.169 242.353 297.215 238.425C292.433 234.496 285.771 232.361 277.231 232.019H262.37V221.771H277.487C281.415 221.771 285.173 221.088 288.76 219.721C292.347 218.184 295.251 216.049 297.471 213.316C299.692 211.095 301.229 208.704 302.083 206.142C302.937 203.409 303.364 200.505 303.364 197.431V188.463C303.364 181.973 301.656 176.507 298.24 172.066C294.824 167.454 289.273 165.148 281.586 165.148C273.729 165.148 268.092 167.539 264.676 172.322C261.26 177.105 259.552 183.254 259.552 190.769V199.737H242.898V188.463C242.898 177.361 245.973 168.735 252.122 162.586C258.442 156.437 268.263 153.362 281.586 153.362C295.422 153.362 305.329 156.352 311.307 162.33C317.456 168.137 320.53 176.507 320.53 187.439V195.125C320.53 204.007 318.31 211.181 313.869 216.647C309.428 221.942 303.62 225.529 296.446 227.408C304.645 228.774 310.88 232.361 315.15 238.169C319.42 243.805 321.555 250.979 321.555 259.69V269.939C321.555 277.454 320.274 284.03 317.712 289.667C315.15 295.304 310.965 299.659 305.158 302.734C299.35 305.808 291.493 307.346 281.586 307.346Z" fill="#57BFDC"/>
</svg>
